<?xml version="1.0" standalone="no"?>
<!DOCTYPE svg PUBLIC "-//W3C//DTD SVG 1.1//EN" "http://www.w3.org/Graphics/SVG/1.1/DTD/svg11.dtd" >
<svg xmlns="http://www.w3.org/2000/svg" xmlns:xlink="http://www.w3.org/1999/xlink" version="1.1">
<metadata>
Created by FontForge 20170515 at Sun Jun 25 21:39:54 2017
 By fw_worker
(c) 1996-2015 Typodermic Fonts Inc. See attached license agreement. If agreement is missing visit typodermicfonts.com for more info.
</metadata>
<defs>
<font id="Neuropol-Regular" horiz-adv-x="865" >
  <font-face 
    font-family="Neuropol"
    font-weight="400"
    font-stretch="normal"
    units-per-em="1000"
    panose-1="2 15 6 7 3 2 1 1 8 4"
    ascent="790"
    descent="-210"
    x-height="565"
    cap-height="729"
    bbox="-196 -210 1555 990"
    underline-thickness="20"
    underline-position="-133"
    unicode-range="U+0017-E2B1"
  />
<missing-glyph horiz-adv-x="836" 
d="M233 -189q-186 0 -186 117v786q0 116 186 116h370q186 0 186 -116v-786q0 -117 -186 -117h-370zM434 238q149 0 222.5 44.5t73.5 138.5v68q0 186 -296 186h-39q-24 0 -31.5 -13.5t-7.5 -40.5t7.5 -40.5t31.5 -13.5h42q88 0 126.5 -22.5t38.5 -55.5v-68q0 -32 -38.5 -55
t-126.5 -23h-139q-31 0 -61 -6.5t-53.5 -22t-38 -41t-14.5 -62.5v-56q0 -28 16.5 -37t48.5 -9t48.5 9t16.5 37v43q0 22 5.5 31t30.5 9h137zM117 8q0 -32 18.5 -47t60.5 -15t60.5 15t18.5 47t-18.5 47t-60.5 15t-60.5 -15t-18.5 -47z" />
    <glyph glyph-name=".notdef" horiz-adv-x="836" 
d="M233 -189q-186 0 -186 117v786q0 116 186 116h370q186 0 186 -116v-786q0 -117 -186 -117h-370zM434 238q149 0 222.5 44.5t73.5 138.5v68q0 186 -296 186h-39q-24 0 -31.5 -13.5t-7.5 -40.5t7.5 -40.5t31.5 -13.5h42q88 0 126.5 -22.5t38.5 -55.5v-68q0 -32 -38.5 -55
t-126.5 -23h-139q-31 0 -61 -6.5t-53.5 -22t-38 -41t-14.5 -62.5v-56q0 -28 16.5 -37t48.5 -9t48.5 9t16.5 37v43q0 22 5.5 31t30.5 9h137zM117 8q0 -32 18.5 -47t60.5 -15t60.5 15t18.5 47t-18.5 47t-60.5 15t-60.5 -15t-18.5 -47z" />
    <glyph glyph-name="uni0017" horiz-adv-x="349" 
 />
    <glyph glyph-name="space" unicode=" " horiz-adv-x="349" 
 />
    <glyph glyph-name="exclam" unicode="!" horiz-adv-x="252" 
d="M47 58q0 32 18.5 47t60.5 15t60.5 -15t18.5 -47t-18.5 -47t-60.5 -15t-60.5 15t-18.5 47zM193 206q0 -29 -17 -38t-50 -9q-32 0 -49 9t-17 38v476q0 29 17 38t49 9q33 0 50 -9t17 -38v-476z" />
    <glyph glyph-name="quotedbl" unicode="&#x22;" horiz-adv-x="390" 
d="M36 471zM159 516q0 -27 -15.5 -36t-46.5 -9q-30 0 -45.5 9t-15.5 36v180q0 27 15.5 36t45.5 9q31 0 46.5 -9t15.5 -36v-180zM354 516q0 -27 -15.5 -36t-46.5 -9q-30 0 -45.5 9t-15.5 36v180q0 27 15.5 36t45.5 9q31 0 46.5 -9t15.5 -36v-180z" />
    <glyph glyph-name="numbersign" unicode="#" horiz-adv-x="873" 
d="M212 316l33 90h-113q-23 0 -29.5 12.5t-6.5 37.5t6.5 38t29.5 13h150l73 199q5 12 18.5 17.5t33.5 5.5q10 0 23 -2t24 -6.5t18.5 -11.5t7.5 -18q0 -6 -4 -17l-61 -167h150l73 199q5 12 18.5 17.5t33.5 5.5q10 0 23 -2t24 -6.5t18.5 -11.5t7.5 -18q0 -6 -4 -17l-61 -167
h111q23 0 29.5 -13t6.5 -38t-6.5 -37.5t-29.5 -12.5h-148l-33 -90h112q23 0 29.5 -13t6.5 -38t-6.5 -37.5t-29.5 -12.5h-149l-72 -196q-5 -12 -18.5 -17.5t-33.5 -5.5q-11 0 -23.5 2t-23.5 6.5t-18.5 11.5t-7.5 18q0 6 4 17l60 164h-150l-72 -196q-5 -12 -18.5 -17.5
t-33.5 -5.5q-11 0 -23.5 2t-23.5 6.5t-18.5 11.5t-7.5 18q0 6 4 17l60 164h-112q-23 0 -29.5 12.5t-6.5 37.5t6.5 38t29.5 13h149zM345 316h150l33 90h-150z" />
    <glyph glyph-name="dollar" unicode="$" horiz-adv-x="890" 
d="M513 422h48q296 0 296 -186v-30q0 -186 -296 -186h-48v-27q0 -29 -16 -38t-48 -9t-47.5 9t-15.5 38v27h-315q-24 0 -31.5 13.5t-7.5 40.5t7.5 40.5t31.5 13.5h315v186h-58q-296 0 -296 186v19q0 186 296 186h58v27q0 29 15.5 38t47.5 9t48 -9t16 -38v-310zM513 314v-186
h51q88 0 124.5 22.5t36.5 55.5v30q0 32 -36.5 55t-124.5 23h-51zM164 500q0 -32 36.5 -55t124.5 -23h61v175h-61q-88 0 -124.5 -22.5t-36.5 -55.5v-19z" />
    <glyph glyph-name="percent" unicode="%" horiz-adv-x="1261" 
d="M38 0zM209 310q-171 0 -171 110v194q0 111 171 111h160q171 0 171 -111v-194q0 -110 -171 -110h-160zM367 385q44 0 64 10.5t20 24.5v194q0 15 -20 25t-64 10h-156q-44 0 -64 -10t-20 -25v-194q0 -14 20 -24.5t64 -10.5h156zM422 15q-15 -19 -46 -19q-44 0 -44 31
q0 3 2.5 10t11.5 20l495 654q8 11 19 14.5t27 3.5q44 0 44 -31q0 -5 -3 -11.5t-11 -17.5zM892 0q-171 0 -171 110v194q0 111 171 111h160q171 0 171 -111v-194q0 -110 -171 -110h-160zM1050 75q44 0 64 10.5t20 24.5v194q0 15 -20 25t-64 10h-156q-44 0 -64 -10t-20 -25
v-194q0 -14 20 -24.5t64 -10.5h156z" />
    <glyph glyph-name="ampersand" unicode="&#x26;" horiz-adv-x="1032" 
d="M836 30q-32 -16 -69.5 -23t-73.5 -7h-373q-283 0 -283 174v37q0 22 4 43t15 39.5t30 33t49 23.5l110 32l-59 36q-36 22 -52 47.5t-16 56.5v52q0 71 57 111t175 40h168q67 0 114.5 -10.5t77 -30t43 -47.5t13.5 -64v-31q0 -54 -27 -84.5t-83 -48.5l-162 -52l312 -178v156
q0 29 16 38t48 9t47.5 -9t15.5 -38v-161q0 -17 -3.5 -32t-8.5 -29l62 -35q14 -8 21.5 -18t7.5 -24q0 -22 -17 -31t-52 -9q-33 0 -51.5 6t-26.5 11zM662 101q27 0 50 3l-353 210l-151 -48q-23 -8 -33.5 -23t-10.5 -32v-37q0 -30 38 -51.5t122 -21.5h338zM245 524
q0 -15 11 -26t37 -26l87 -50l219 65q20 6 30 18.5t10 37.5v30q0 25 -28 38t-95 13h-153q-53 0 -85.5 -12.5t-32.5 -55.5v-32z" />
    <glyph glyph-name="quotesingle" unicode="'" horiz-adv-x="195" 
d="M159 516q0 -27 -15.5 -36t-46.5 -9q-30 0 -45.5 9t-15.5 36v180q0 27 15.5 36t45.5 9q31 0 46.5 -9t15.5 -36v-180z" />
    <glyph glyph-name="parenleft" unicode="(" horiz-adv-x="355" 
d="M196 1q0 -33 9 -54t24.5 -34t36 -21.5t43.5 -15.5q14 -5 23.5 -12t9.5 -29q0 -25 -14 -35t-45 -10q-42 0 -79 16t-64 44.5t-43 67t-16 83.5v690q0 45 16 83.5t43 67t64 44.5t79 16q31 0 45 -10t14 -35q0 -22 -9.5 -29t-23.5 -12q-23 -8 -43.5 -16t-36 -21t-24.5 -34
t-9 -54v-690v0z" />
    <glyph glyph-name="parenright" unicode=")" horiz-adv-x="355" 
d="M159 691q0 33 -9 54t-24.5 34t-36 21t-43.5 16q-14 5 -23.5 12t-9.5 29q0 25 14 35t45 10q42 0 79 -16t64 -44.5t43 -67t16 -83.5v-690q0 -45 -16 -83.5t-43 -67t-64 -44.5t-79 -16q-31 0 -45 10t-14 35q0 22 9.5 29t23.5 12q23 7 43.5 15.5t36 21.5t24.5 34t9 54v690z
" />
    <glyph glyph-name="asterisk" unicode="*" horiz-adv-x="586" 
d="M360 423q0 -23 -14 -30t-53 -7t-53 7t-14 30q0 5 0.5 10.5t2.5 15t5 23.5t9 35l-105 -58q-8 -5 -13 -6t-11 -1q-11 0 -22.5 8t-21.5 20t-16.5 26t-6.5 25q0 14 9.5 24t27.5 13l79 14l-79 15q-18 3 -27.5 13t-9.5 24q0 11 6.5 25t16.5 26t21.5 20t22.5 8q6 0 11 -1t13 -6
l105 -58q-6 21 -9 35t-5 23.5t-2.5 15t-0.5 10.5q0 23 14 30t53 7t53 -7t14 -30q0 -5 -0.5 -10.5t-2.5 -15t-5 -23.5t-9 -35l105 58q8 5 13 6t11 1q10 0 22 -8t22 -20t16.5 -26t6.5 -25q0 -14 -9.5 -24t-27.5 -13l-79 -15l79 -14q18 -3 27.5 -13t9.5 -24q0 -11 -6.5 -25
t-16.5 -26t-22 -20t-22 -8q-6 0 -11 1t-13 6l-105 58q6 -21 9 -35t5 -23.5t2.5 -15t0.5 -10.5z" />
    <glyph glyph-name="plus" unicode="+" horiz-adv-x="609" 
d="M362 304v-166q0 -26 -14.5 -34t-43.5 -8t-43 8t-14 34v166h-167q-26 0 -34 14.5t-8 43.5t8 43t34 14h167v168q0 26 14 34t43 8t43.5 -8t14.5 -34v-168h167q26 0 34 -14t8 -43t-8 -43.5t-34 -14.5h-167z" />
    <glyph glyph-name="comma" unicode="," horiz-adv-x="252" 
d="M176 -54q-4 -23 -19 -31.5t-50 -8.5q-34 0 -49.5 8t-15.5 28q0 6 1 14.5t3 17.5l26 161q4 23 19 31.5t50 8.5t49.5 -8t14.5 -31q0 -5 -0.5 -11.5t-1.5 -11.5z" />
    <glyph glyph-name="hyphen" unicode="-" horiz-adv-x="472" 
d="M424 408q23 0 29.5 -13t6.5 -38t-6.5 -37.5t-29.5 -12.5h-376q-23 0 -29.5 12.5t-6.5 37.5t6.5 38t29.5 13h376z" />
    <glyph glyph-name="period" unicode="." horiz-adv-x="252" 
d="M47 58q0 32 18.5 47t60.5 15t60.5 -15t18.5 -47t-18.5 -47t-60.5 -15t-60.5 15t-18.5 47z" />
    <glyph glyph-name="slash" unicode="/" horiz-adv-x="833" 
d="M123 -139q-11 -14 -25.5 -19.5t-36.5 -5.5q-61 0 -61 42q0 7 4 16.5t15 24.5l691 918q11 14 25.5 19.5t36.5 5.5q61 0 61 -42q0 -7 -4 -16.5t-15 -24.5z" />
    <glyph glyph-name="zero" unicode="0" horiz-adv-x="959" 
d="M334 0q-296 0 -296 186v353q0 186 296 186h291q296 0 296 -186v-353q0 -186 -296 -186h-291zM621 108q88 0 128 23t40 55v353q0 33 -40 55.5t-128 22.5h-283q-88 0 -128 -22.5t-40 -55.5v-353q0 -32 40 -55t128 -23h283z" />
    <glyph glyph-name="one" unicode="1" horiz-adv-x="227" 
d="M180 43q0 -29 -17 -38t-50 -9q-32 0 -49 9t-17 38v639q0 29 17 38t49 9q33 0 50 -9t17 -38v-639z" />
    <glyph glyph-name="two" unicode="2" horiz-adv-x="1018" 
d="M335 304q-88 0 -124.5 -23t-36.5 -55v-118h762q24 0 31.5 -13.5t7.5 -40.5t-7.5 -40.5t-31.5 -13.5h-847q-47 0 -47 49v177q0 186 296 186h344q88 0 124.5 23t36.5 55v49q0 33 -36.5 55.5t-124.5 22.5h-155q-24 0 -31.5 13.5t-7.5 40.5t7.5 40.5t31.5 13.5h152
q296 0 296 -186v-49q0 -186 -296 -186h-344z" />
    <glyph glyph-name="three" unicode="3" horiz-adv-x="999" 
d="M839 203q0 29 -6 49.5t-24 33t-50.5 18.5t-84.5 6h-594q-24 0 -31.5 13.5t-7.5 40.5t7.5 40.5t31.5 13.5h601q45 0 75 4t48.5 14.5t26 30t7.5 51.5q0 26 -6 45t-22.5 31t-46.5 17.5t-77 5.5h-151q-24 0 -31.5 13.5t-7.5 40.5t7.5 40.5t31.5 13.5h137q65 0 119 -9
t93 -32.5t60.5 -63.5t21.5 -103q0 -53 -19.5 -92t-72.5 -65q46 -17 73.5 -51.5t27.5 -101.5q0 -64 -25.5 -104.5t-66.5 -63t-94.5 -31t-108.5 -8.5h-601q-24 0 -31.5 13.5t-7.5 40.5t7.5 40.5t31.5 13.5h609q49 0 79 5.5t46 17t21 29.5t5 43z" />
    <glyph glyph-name="four" unicode="4" horiz-adv-x="1077" 
d="M175 300h722v382q0 29 17 38t50 9q32 0 49 -9t17 -38v-639q0 -29 -17 -38t-49 -9q-33 0 -50 9t-17 38v149h-806q-21 0 -35 9.5t-14 31.5v449q0 29 17 38t49 9q33 0 50 -9t17 -38v-382z" />
    <glyph glyph-name="five" unicode="5" horiz-adv-x="1021" 
d="M698 478q296 0 296 -186v-106q0 -186 -296 -186h-616q-24 0 -31.5 13.5t-7.5 40.5t7.5 40.5t31.5 13.5h619q88 0 124.5 22.5t36.5 55.5v106q0 32 -36.5 55t-124.5 23h-609q-21 0 -33.5 11.5t-12.5 31.5v263q0 49 47 49h441q24 0 31.5 -13.5t7.5 -40.5t-7.5 -40.5
t-31.5 -13.5h-356v-139h520z" />
    <glyph glyph-name="six" unicode="6" horiz-adv-x="1035" 
d="M334 0q-296 0 -296 186v353q0 186 296 186h180q24 0 31.5 -13.5t7.5 -40.5t-7.5 -40.5t-31.5 -13.5h-176q-88 0 -128 -22.5t-40 -55.5v-59h540q296 0 296 -186v-108q0 -186 -296 -186h-376zM706 108q88 0 128 23t40 55v108q0 33 -40 55.5t-128 22.5h-536v-186
q0 -32 40 -55t128 -23h368z" />
    <glyph glyph-name="seven" unicode="7" horiz-adv-x="967" 
d="M839 725q54 0 82 -14t28 -55q0 -13 -4 -23.5t-16 -24.5l-503 -585q-14 -16 -29.5 -21.5t-38.5 -5.5q-33 0 -48 10t-15 31q0 8 4 19.5t20 29.5l459 531h-721q-24 0 -31.5 13.5t-7.5 40.5t7.5 40.5t31.5 13.5h782z" />
    <glyph glyph-name="eight" unicode="8" horiz-adv-x="953" 
d="M319 0q-56 0 -109 8.5t-94 31t-66.5 63t-25.5 104.5q0 67 27.5 101.5t73.5 51.5q-53 26 -72.5 65t-19.5 92q0 63 21.5 103t60.5 63.5t93 32.5t119 9h299q65 0 119 -9t93 -32.5t60.5 -63.5t21.5 -103q0 -53 -19.5 -92t-72.5 -65q46 -17 73.5 -51.5t27.5 -101.5
q0 -64 -25.5 -104.5t-66.5 -63t-94.5 -31t-108.5 -8.5h-315zM160 203q0 -25 5 -43t21 -29.5t45.5 -17t79.5 -5.5h331q49 0 79 5.5t46 17t21 29.5t5 43q0 29 -6 49.5t-24 33t-50.5 18.5t-84.5 6h-303q-53 0 -85 -6t-50 -18.5t-24 -33t-6 -49.5zM313 617q-47 0 -77 -5.5
t-46.5 -17.5t-22.5 -31t-6 -45q0 -32 7.5 -51.5t26 -30t48.5 -14.5t75 -4h317q45 0 75 4t48.5 14.5t26 30t7.5 51.5q0 26 -6 45t-22.5 31t-46.5 17.5t-77 5.5h-327z" />
    <glyph glyph-name="nine" unicode="9" horiz-adv-x="976" 
d="M642 725q296 0 296 -186v-353q0 -186 -296 -186h-142q-24 0 -31.5 13.5t-7.5 40.5t7.5 40.5t31.5 13.5h138q88 0 128 22.5t40 55.5v59h-481q-296 0 -296 186v108q0 186 296 186h317zM329 617q-88 0 -128 -23t-40 -55v-108q0 -33 40 -55.5t128 -22.5h477v186q0 32 -40 55
t-128 23h-309z" />
    <glyph glyph-name="colon" unicode=":" horiz-adv-x="282" 
d="M63 58q0 32 18.5 47t60.5 15t60.5 -15t18.5 -47t-18.5 -47t-60.5 -15t-60.5 15t-18.5 47zM63 345q0 32 18.5 47t60.5 15t60.5 -15t18.5 -47t-18.5 -47t-60.5 -15t-60.5 15t-18.5 47z" />
    <glyph glyph-name="semicolon" unicode=";" horiz-adv-x="282" 
d="M63 345q0 32 18.5 47t60.5 15t60.5 -15t18.5 -47t-18.5 -47t-60.5 -15t-60.5 15t-18.5 47zM172 -54q-4 -23 -19 -31.5t-50 -8.5q-34 0 -49.5 8t-15.5 28q0 6 1 14.5t3 17.5l26 161q4 23 19 31.5t50 8.5t49.5 -8t14.5 -31q0 -5 -0.5 -11.5t-1.5 -11.5z" />
    <glyph glyph-name="less" unicode="&#x3c;" horiz-adv-x="609" 
d="M37 365q0 26 7.5 37.5t20.5 16.5l367 159q29 13 74 13q32 0 47.5 -9.5t15.5 -33.5q0 -16 -6.5 -26t-23.5 -17l-348 -140l348 -140q17 -7 23.5 -17t6.5 -26q0 -24 -15.5 -33.5t-47.5 -9.5q-45 0 -74 13l-367 159q-13 5 -20.5 16t-7.5 38z" />
    <glyph glyph-name="equal" unicode="=" horiz-adv-x="609" 
d="M80 164q-26 0 -34 14.5t-8 43.5t8 43t34 14h449q26 0 34 -14t8 -43t-8 -43.5t-34 -14.5h-449zM80 444q-26 0 -34 14.5t-8 43.5t8 43t34 14h449q26 0 34 -14t8 -43t-8 -43.5t-34 -14.5h-449z" />
    <glyph glyph-name="greater" unicode="&#x3e;" horiz-adv-x="609" 
d="M569 365q0 -27 -7.5 -38t-20.5 -16l-367 -159q-29 -13 -74 -13q-32 0 -47.5 9.5t-15.5 33.5q0 16 6.5 26t23.5 17l348 140l-348 140q-17 7 -23.5 17t-6.5 26q0 24 15.5 33.5t47.5 9.5q45 0 74 -13l367 -159q13 -5 20.5 -16.5t7.5 -37.5z" />
    <glyph glyph-name="question" unicode="?" horiz-adv-x="671" 
d="M209 288q-25 0 -30.5 -9t-5.5 -31v-43q0 -28 -16.5 -37t-48.5 -9t-48.5 9t-16.5 37v56q0 37 14.5 62.5t38 41t53.5 22t61 6.5h139q88 0 126.5 23t38.5 55v68q0 33 -38.5 55.5t-126.5 22.5h-42q-24 0 -31.5 13.5t-7.5 40.5t7.5 40.5t31.5 13.5h39q296 0 296 -186v-68
q0 -94 -73.5 -138.5t-222.5 -44.5h-137zM29 58q0 32 18.5 47t60.5 15t60.5 -15t18.5 -47t-18.5 -47t-60.5 -15t-60.5 15t-18.5 47z" />
    <glyph glyph-name="at" unicode="@" horiz-adv-x="796" 
d="M444 40q-94 0 -148.5 33.5t-54.5 100.5v91q0 134 231 134h182v77q0 24 -35 41.5t-107 17.5h-228q-72 0 -104.5 -16.5t-32.5 -42.5v-499q0 -25 32.5 -42t104.5 -17h429q19 0 24.5 -10.5t5.5 -30.5t-5.5 -30.5t-24.5 -10.5h-432q-243 0 -243 141v499q0 141 243 141h234
q121 0 182 -36.5t61 -104.5v-302q0 -67 -55 -100.5t-155 -33.5h-104zM476 321q-69 0 -100 -16.5t-31 -39.5v-91q0 -23 27 -39.5t72 -16.5h104q51 0 78.5 16.5t27.5 39.5v147h-178z" />
    <glyph glyph-name="A" unicode="A" horiz-adv-x="1041" 
d="M508 728q29 0 47.5 -9t30.5 -26l436 -622q7 -11 7 -23q0 -11 -6.5 -21t-17 -17t-23.5 -11t-26 -4q-14 0 -25 4.5t-19 15.5l-118 172h-556l-111 -172q-7 -11 -18.5 -15.5t-24.5 -4.5q-12 0 -25 4t-23.5 11.5t-17 17t-6.5 21.5q0 10 7 22l410 622q11 17 30 26t49 9z
M307 295h413l-212 311z" />
    <glyph glyph-name="B" unicode="B" horiz-adv-x="977" 
d="M953 207q0 -64 -25.5 -104.5t-66.5 -63t-94.5 -31t-108.5 -8.5h-565q-46 0 -46 47v632q0 46 46 46h557q65 0 119 -9t93 -32.5t60.5 -63.5t21.5 -103q0 -53 -19.5 -92t-72.5 -65q46 -17 73.5 -51.5t27.5 -101.5zM183 418h476q45 0 75 4t48.5 14.5t26 30t7.5 51.5
q0 26 -6 45t-22.5 31t-46.5 17.5t-77 5.5h-481v-199zM817 203q0 29 -6 49t-24 33t-50.5 18.5t-84.5 5.5h-472v-201h486q49 0 79 5.5t46 17t21 29.5t5 43z" />
    <glyph glyph-name="C" unicode="C" horiz-adv-x="896" 
d="M334 0q-296 0 -296 186v353q0 186 296 186h490q24 0 31.5 -13.5t7.5 -40.5t-7.5 -40.5t-31.5 -13.5h-486q-88 0 -128 -22.5t-40 -55.5v-353q0 -32 40 -55t128 -23h487q24 0 31 -13.5t7 -40.5q0 -26 -7 -40t-31 -14h-491z" />
    <glyph glyph-name="D" unicode="D" horiz-adv-x="994" 
d="M956 186q0 -186 -296 -186h-567q-46 0 -46 47v632q0 46 46 46h567q296 0 296 -186v-353zM180 108h476q88 0 128.5 23t40.5 55v353q0 33 -40.5 55.5t-128.5 22.5h-476v-509z" />
    <glyph glyph-name="E" unicode="E" horiz-adv-x="892" 
d="M170 303v-117q0 -32 40 -55t128 -23h478q24 0 31.5 -13.5t7.5 -40.5q0 -26 -7.5 -40t-31.5 -14h-482q-296 0 -296 186v353q0 186 296 186h149q23 0 30.5 -13.5t7.5 -40.5t-7.5 -40.5t-30.5 -13.5h-145q-88 0 -128 -22.5t-40 -55.5v-128h649q24 0 31.5 -13.5t7.5 -40.5
t-7.5 -40.5t-31.5 -13.5h-649z" />
    <glyph glyph-name="F" unicode="F" horiz-adv-x="875" 
d="M448 725q24 0 31 -13.5t7 -40.5t-7 -40.5t-31 -13.5h-105q-88 0 -127.5 -22.5t-39.5 -55.5v-128h648q24 0 31.5 -13.5t7.5 -40.5t-7.5 -40.5t-31.5 -13.5h-648v-260q0 -29 -17 -38t-50 -9q-32 0 -49 9t-17 38v496q0 186 296 186h109z" />
    <glyph glyph-name="G" unicode="G" horiz-adv-x="970" 
d="M934 186q0 -96 -75.5 -141t-221.5 -45h-303q-296 0 -296 186v353q0 186 296 186h141q24 0 31.5 -13.5t7.5 -40.5t-7.5 -40.5t-31.5 -13.5h-137q-88 0 -128 -22.5t-40 -55.5v-353q0 -32 40 -55t128 -23h295q88 0 127.5 23t39.5 55v178q0 29 16.5 38t49.5 9t50.5 -9
t17.5 -38v-178z" />
    <glyph glyph-name="H" unicode="H" horiz-adv-x="1004" 
d="M180 411h644v271q0 29 17 38t50 9q32 0 49 -9t17 -38v-639q0 -29 -17 -38t-49 -9q-33 0 -50 9t-17 38v260h-644v-260q0 -29 -17 -38t-50 -9q-32 0 -49 9t-17 38v639q0 29 17 38t49 9q33 0 50 -9t17 -38v-271z" />
    <glyph glyph-name="I" unicode="I" horiz-adv-x="227" 
d="M180 43q0 -29 -17 -38t-50 -9q-32 0 -49 9t-17 38v639q0 29 17 38t49 9q33 0 50 -9t17 -38v-639z" />
    <glyph glyph-name="J" unicode="J" horiz-adv-x="461" 
d="M50 0q-24 0 -31 14t-7 41q0 26 7 39.5t31 13.5h68q88 0 127.5 23t39.5 55v496q0 29 17 38t50 9q32 0 49 -9t17 -38v-496q0 -186 -297 -186h-71z" />
    <glyph glyph-name="K" unicode="K" horiz-adv-x="879" 
d="M180 431l527 284q14 8 30.5 11t50.5 3q22 0 38 -11.5t16 -34.5q0 -30 -32 -46l-534 -269l552 -280q32 -16 32 -46q0 -23 -16 -34.5t-38 -11.5q-34 0 -50.5 3t-30.5 11l-545 289v-256q0 -29 -17 -38t-50 -9q-32 0 -49 9t-17 38v639q0 29 17 38t49 9q33 0 50 -9t17 -38
v-251z" />
    <glyph glyph-name="L" unicode="L" horiz-adv-x="883" 
d="M339 0q-296 0 -296 186v496q0 29 17 38t49 9q33 0 50 -9t17 -38v-496q0 -32 39.5 -55t127.5 -23h490q24 0 31 -13.5t7 -39.5q0 -27 -7 -41t-31 -14h-494z" />
    <glyph glyph-name="M" unicode="M" horiz-adv-x="1323" 
d="M1123 688q16 19 35.5 27t43.5 8q74 0 74 -68v-612q0 -29 -17 -38t-50 -9t-50 9t-17 38v474l-399 -483q-17 -20 -35 -29t-44 -9q-29 0 -48.5 9t-35.5 29l-400 483v-474q0 -29 -17 -38t-50 -9q-32 0 -49 9t-17 38v612q0 68 73 68q49 0 79 -35l460 -555z" />
    <glyph glyph-name="N" unicode="N" horiz-adv-x="997" 
d="M881 -4q-14 0 -23 1t-17 5t-17 10.5t-22 17.5l-622 524v-511q0 -29 -17 -38t-50 -9q-32 0 -49 9t-17 38v639q0 28 16 37.5t47 9.5q33 0 52 -8.5t42 -28.5l613 -522v512q0 29 17 38t49 9q33 0 50 -9t17 -38v-639q0 -29 -17 -38t-52 -9z" />
    <glyph glyph-name="O" unicode="O" horiz-adv-x="959" 
d="M334 0q-296 0 -296 186v353q0 186 296 186h291q296 0 296 -186v-353q0 -186 -296 -186h-291zM621 108q88 0 128 23t40 55v353q0 33 -40 55.5t-128 22.5h-283q-88 0 -128 -22.5t-40 -55.5v-353q0 -32 40 -55t128 -23h283z" />
    <glyph glyph-name="P" unicode="P" horiz-adv-x="984" 
d="M47 679q0 46 47 46h567q68 0 122.5 -11.5t92.5 -32.5t58.5 -51t20.5 -67v-145q0 -37 -20.5 -67t-58.5 -51t-92.5 -32.5t-122.5 -11.5h-481v-213q0 -29 -17 -38t-50 -9q-32 0 -49 9t-17 38v636zM180 617v-253h469q51 0 84.5 5t53.5 13.5t28 20t8 25.5v125q0 13 -8 25
t-28 20.5t-53.5 13.5t-84.5 5h-469z" />
    <glyph glyph-name="Q" unicode="Q" horiz-adv-x="979" 
d="M941 189q0 -59 -31.5 -98t-90.5 -61l64 -34q32 -17 32 -47q0 -23 -16 -34t-52 -11q-40 0 -67 14l-151 85h-295q-296 0 -296 186v350q0 186 296 186h311q296 0 296 -186v-350zM641 108q49 0 81 6t51.5 16.5t27.5 25t8 30.5v353q0 33 -40 55.5t-128 22.5h-303
q-88 0 -128 -22.5t-40 -55.5v-353q0 -32 40 -55t128 -23h303z" />
    <glyph glyph-name="R" unicode="R" horiz-adv-x="985" 
d="M47 679q0 46 47 46h562q68 0 122.5 -11.5t92.5 -32.5t58.5 -51t20.5 -67v-126q0 -37 -20.5 -67t-58.5 -51t-92.5 -32.5t-122.5 -11.5h-40h-76.5t-57.5 0.5t-45 1.5t-39 2v-2q16 -6 34.5 -12.5t45.5 -16.5t65.5 -25t95.5 -38l241 -97q32 -13 32 -45q0 -27 -17.5 -37
t-50.5 -10q-7 0 -17.5 0.5t-21.5 2t-21.5 4t-18.5 7.5l-585 253v-220q0 -29 -17 -38t-50 -9q-32 0 -49 9t-17 38v636zM180 617v-236h464q51 0 84.5 5t53.5 13.5t28 20t8 25.5v108q0 13 -8 25t-28 20.5t-53.5 13.5t-84.5 5h-464z" />
    <glyph glyph-name="S" unicode="S" horiz-adv-x="887" 
d="M330 314q-296 0 -296 186v39q0 186 296 186h100q24 0 31.5 -13.5t7.5 -40.5t-7.5 -40.5t-31.5 -13.5h-103q-88 0 -124.5 -22.5t-36.5 -55.5v-39q0 -32 36.5 -55t124.5 -23h236q296 0 296 -186v-50q0 -186 -296 -186h-490q-24 0 -31.5 13.5t-7.5 40.5t7.5 40.5t31.5 13.5
h493q88 0 124.5 22.5t36.5 55.5v50q0 32 -36.5 55t-124.5 23h-236z" />
    <glyph glyph-name="T" unicode="T" horiz-adv-x="838" 
d="M485 617v-574q0 -29 -17 -38t-50 -9q-32 0 -49 9t-17 38v574h-301q-24 0 -31.5 13.5t-7.5 40.5t7.5 40.5t31.5 13.5h736q24 0 31.5 -13.5t7.5 -40.5t-7.5 -40.5t-31.5 -13.5h-302z" />
    <glyph glyph-name="U" unicode="U" horiz-adv-x="986" 
d="M339 0q-296 0 -296 186v496q0 29 17 38t49 9q33 0 50 -9t17 -38v-496q0 -32 39.5 -55t127.5 -23h300q88 0 127.5 23t39.5 55v496q0 29 17 38t50 9q32 0 49 -9t17 -38v-496q0 -186 -296 -186h-308z" />
    <glyph glyph-name="V" unicode="V" horiz-adv-x="1072" 
d="M538 -4q-29 0 -47.5 9t-30.5 26l-440 622q-8 13 -8 23q0 11 7 20.5t18.5 17t25 11.5t26.5 4t26.5 -5t21.5 -16l404 -581l400 581q13 21 44 21q13 0 26 -4t24 -11.5t18 -17t7 -21.5t-8 -22l-435 -622q-12 -17 -31 -26t-48 -9z" />
    <glyph glyph-name="W" unicode="W" horiz-adv-x="1391" 
d="M455 39q-19 -43 -77 -43q-29 0 -50 11t-32 35l-278 617q-6 12 -6 23q0 22 20.5 34.5t52.5 12.5q23 0 36.5 -7.5t20.5 -22.5l234 -549l243 529q14 29 30 39.5t46 10.5q32 0 45.5 -10.5t26.5 -39.5l242 -529l240 549q13 30 57 30q32 0 52.5 -12.5t20.5 -34.5q0 -11 -6 -23
l-284 -617q-21 -46 -82 -46q-27 0 -47.5 10t-31.5 33l-236 514z" />
    <glyph glyph-name="X" unicode="X" horiz-adv-x="949" 
d="M479 436l316 271q13 11 28 14.5t39 3.5q12 0 23.5 -1t20.5 -5.5t14.5 -12.5t5.5 -22t-6.5 -23t-25.5 -26l-323 -276l326 -273q20 -17 26.5 -26t6.5 -23q0 -27 -18.5 -34t-47.5 -7q-22 0 -35 3.5t-27 14.5l-330 276l-322 -276q-14 -11 -28.5 -14.5t-36.5 -3.5q-12 0 -24 1
t-21.5 5.5t-15 12.5t-5.5 22t6.5 23t25.5 26l329 281l-318 268q-20 17 -26.5 26t-6.5 23q0 26 18 33.5t47 7.5q23 0 37 -3.5t26 -14.5z" />
    <glyph glyph-name="Y" unicode="Y" horiz-adv-x="919" 
d="M32 649q-21 19 -21 40q0 16 17 28t55 12q22 0 33.5 -4.5t22.5 -14.5l321 -312l320 312q10 10 22 14.5t34 4.5q38 0 55 -11.5t17 -28.5q0 -21 -21 -40l-361 -349v-257q0 -29 -17 -38t-50 -9q-32 0 -49 9t-17 38v257z" />
    <glyph glyph-name="Z" unicode="Z" horiz-adv-x="888" 
d="M128 0q-54 0 -82 14t-28 55q0 17 5 27.5t16 19.5l674 591q12 11 29 14.5t40 3.5q11 0 22 -1t20 -5.5t14.5 -12.5t5.5 -22q0 -15 -7.5 -24.5t-24.5 -24.5l-612 -527h603q24 0 31.5 -13.5t7.5 -40.5t-7.5 -40.5t-31.5 -13.5h-675z" />
    <glyph glyph-name="bracketleft" unicode="[" horiz-adv-x="355" 
d="M146 -210q-49 0 -49 52v1008q0 52 49 52h155q21 0 27 -11.5t6 -34.5t-6 -34t-27 -11h-89v-930h89q21 0 27 -11t6 -34t-6 -34.5t-27 -11.5h-155z" />
    <glyph glyph-name="backslash" unicode="\" horiz-adv-x="833" 
d="M19 779q-11 15 -15 24.5t-4 16.5q0 42 61 42q22 0 36.5 -5.5t25.5 -19.5l691 -918q11 -15 15 -24.5t4 -16.5q0 -42 -61 -42q-22 0 -36.5 5.5t-25.5 19.5z" />
    <glyph glyph-name="bracketright" unicode="]" horiz-adv-x="355" 
d="M54 -210q-21 0 -27 11.5t-6 34.5t6 34t27 11h89v930h-89q-21 0 -27 11t-6 34t6 34.5t27 11.5h155q49 0 49 -52v-1008q0 -52 -49 -52h-155z" />
    <glyph glyph-name="asciicircum" unicode="^" horiz-adv-x="609" 
d="M162 274q-10 -23 -54 -23q-31 0 -50 9.5t-19 26.5q0 8 6 19l184 387q9 19 28.5 27.5t46.5 8.5t46.5 -8.5t28.5 -27.5l184 -387q6 -11 6 -19q0 -17 -19 -26.5t-50 -9.5q-44 0 -54 23l-142 328z" />
    <glyph glyph-name="underscore" unicode="_" horiz-adv-x="891" 
d="M39 -184q-24 0 -31.5 13.5t-7.5 40.5t7.5 40.5t31.5 13.5h813q24 0 31.5 -13.5t7.5 -40.5t-7.5 -40.5t-31.5 -13.5h-813z" />
    <glyph glyph-name="grave" unicode="`" horiz-adv-x="434" 
d="M68 745q-30 16 -30 42q0 22 15 32.5t35 10.5q32 0 46.5 -3t28.5 -10l203 -110q30 -16 30 -43q0 -21 -15 -31.5t-35 -10.5q-32 0 -46.5 3t-28.5 10z" />
    <glyph glyph-name="a" unicode="a" horiz-adv-x="908" 
d="M315 0q-283 0 -283 174v53q0 174 283 174h428v1q0 29 -37.5 45.5t-122.5 16.5h-94q-23 0 -30 12.5t-7 37.5q0 26 7 38.5t30 12.5h98q283 0 283 -174v-217q0 -174 -283 -174h-272zM583 101q84 0 122 21.5t38 51.5v130h-424q-84 0 -122 -21t-38 -52v-57q0 -30 38 -51.5
t122 -21.5h264z" />
    <glyph glyph-name="b" unicode="b" horiz-adv-x="882" 
d="M170 565h391q283 0 283 -174v-217q0 -174 -283 -174h-235q-283 0 -283 174v508q0 29 15.5 38t47.5 9t48 -9t16 -38v-117zM170 464v-290q0 -30 38 -51.5t122 -21.5h227q84 0 122 21.5t38 51.5v217q0 31 -38 52t-122 21h-387z" />
    <glyph glyph-name="c" unicode="c" horiz-adv-x="893" 
d="M321 0q-283 0 -283 174v217q0 174 283 174h500q23 0 30 -12.5t7 -38.5q0 -25 -7 -37.5t-30 -12.5h-496q-84 0 -122 -21t-38 -52v-217q0 -30 38 -51.5t122 -21.5h499q23 0 29.5 -12.5t6.5 -37.5t-6.5 -38t-29.5 -13h-503z" />
    <glyph glyph-name="d" unicode="d" horiz-adv-x="887" 
d="M717 682q0 29 16 38t48 9t47.5 -9t15.5 -38v-508q0 -174 -283 -174h-240q-283 0 -283 174v217q0 174 283 174h396v117zM325 464q-84 0 -122 -21t-38 -52v-217q0 -30 38 -51.5t122 -21.5h232q84 0 122 21.5t38 51.5v290h-392z" />
    <glyph glyph-name="e" unicode="e" 
d="M165 225v-51q0 -30 38 -51.5t122 -21.5h115q23 0 29.5 -12.5t6.5 -37.5t-6.5 -38t-29.5 -13h-119q-283 0 -283 174v217q0 174 283 174h231q150 0 216.5 -43t66.5 -131v-115q0 -29 -11 -40t-49 -11h-610zM165 324h543v67q0 35 -37.5 54t-122.5 19h-223q-84 0 -122 -21
t-38 -52v-67z" />
    <glyph glyph-name="f" unicode="f" horiz-adv-x="440" 
d="M374 725q23 0 29.5 -13t6.5 -38t-6.5 -37.5t-29.5 -12.5h-72q-68 0 -97 -15t-34 -44h203q23 0 29.5 -13t6.5 -38t-6.5 -37.5t-29.5 -12.5h-204v-421q0 -29 -16 -38t-48 -9t-47.5 9t-15.5 38v509q0 87 66.5 130t192.5 43h72z" />
    <glyph glyph-name="g" unicode="g" horiz-adv-x="876" 
d="M436 -164q-23 0 -29.5 13t-6.5 38t6.5 37.5t29.5 12.5h138q74 0 103 18.5t29 53.5v5h-385q-283 0 -283 174v203q0 174 283 174h229q283 0 283 -174v-382q0 -87 -66.5 -130t-192.5 -43h-138zM706 113v278q0 30 -38 51.5t-122 21.5h-221q-84 0 -122 -21.5t-38 -51.5v-205
q0 -31 38 -52t122 -21h381z" />
    <glyph glyph-name="h" unicode="h" horiz-adv-x="884" 
d="M110 -4q-32 0 -47.5 9t-15.5 38v639q0 29 15.5 38t47.5 9t48 -9t16 -38v-117h384q283 0 283 -174v-348q0 -29 -16 -38t-48 -9t-47.5 9t-15.5 38v348q0 31 -38 52t-122 21h-380v-421q0 -29 -16 -38t-48 -9z" />
    <glyph glyph-name="i" unicode="i" horiz-adv-x="221" 
d="M174 43q0 -29 -16 -38t-48 -9t-47.5 9t-15.5 38v472q0 29 15.5 38t47.5 9t48 -9t16 -38v-472zM31 667q0 32 18.5 47t60.5 15t60.5 -15t18.5 -47t-18.5 -47t-60.5 -15t-60.5 15t-18.5 47z" />
    <glyph glyph-name="j" unicode="j" horiz-adv-x="280" 
d="M90 667q0 32 18.5 47t60.5 15t60.5 -15t18.5 -47t-18.5 -47t-60.5 -15t-60.5 15t-18.5 47zM-108 -164q-23 0 -29.5 13t-6.5 38t6.5 37.5t29.5 12.5h82q74 0 103 18.5t29 53.5v506q0 29 16 38t48 9t47.5 -9t15.5 -38v-506q0 -87 -66.5 -130t-192.5 -43h-82z" />
    <glyph glyph-name="k" unicode="k" horiz-adv-x="737" 
d="M174 342l410 216q13 7 29.5 9t47.5 2q20 0 34.5 -9t14.5 -28q0 -14 -8 -22t-20 -14l-402 -211l409 -207q29 -15 29 -42q0 -22 -17.5 -31t-52.5 -9q-32 0 -50.5 5t-26.5 10l-397 210v-178q0 -29 -16 -38t-48 -9t-47.5 9t-15.5 38v639q0 29 15.5 38t47.5 9t48 -9t16 -38
v-340z" />
    <glyph glyph-name="l" unicode="l" horiz-adv-x="221" 
d="M174 43q0 -29 -16 -38t-48 -9t-47.5 9t-15.5 38v639q0 29 15.5 38t47.5 9t48 -9t16 -38v-639z" />
    <glyph glyph-name="m" unicode="m" horiz-adv-x="1173" 
d="M1067 -4q-32 0 -48 9t-16 38v348q0 31 -34 52t-118 21h-56q-42 0 -69.5 -5.5t-44.5 -15.5t-24 -23.5t-7 -28.5v-348q0 -29 -16 -38t-48 -9q-34 0 -48.5 10t-14.5 37v348q0 15 -7 28.5t-24 23.5t-44.5 15.5t-69.5 5.5h-56q-84 0 -118 -21t-34 -52v-348q0 -29 -16 -38
t-48 -9t-47.5 9t-15.5 38v348q0 88 67.5 131t189.5 43h99q126 0 187 -50q62 50 188 50h99q122 0 189.5 -43t67.5 -131v-348q0 -29 -15.5 -38t-47.5 -9z" />
    <glyph glyph-name="n" unicode="n" horiz-adv-x="870" 
d="M106 -4q-32 0 -47.5 9t-15.5 38v348q0 174 283 174h218q283 0 283 -174v-348q0 -29 -16 -38t-48 -9t-47.5 9t-15.5 38v348q0 31 -38 52t-122 21h-210q-84 0 -122 -21t-38 -52v-348q0 -29 -16 -38t-48 -9z" />
    <glyph glyph-name="o" unicode="o" horiz-adv-x="860" 
d="M38 391q0 174 283 174h218q283 0 283 -174v-217q0 -174 -283 -174h-218q-283 0 -283 174v217zM695 391q0 31 -38 52t-122 21h-210q-84 0 -122 -21t-38 -52v-217q0 -30 38 -51.5t122 -21.5h210q84 0 122 21.5t38 51.5v217z" />
    <glyph glyph-name="p" unicode="p" horiz-adv-x="887" 
d="M170 -121q0 -29 -16 -38t-48 -9t-47.5 9t-15.5 38v512q0 174 283 174h240q283 0 283 -174v-217q0 -174 -283 -174h-396v-121zM562 101q84 0 122 21t38 52v217q0 30 -38 51.5t-122 21.5h-232q-84 0 -122 -21.5t-38 -51.5v-290h392z" />
    <glyph glyph-name="q" unicode="q" horiz-adv-x="876" 
d="M706 0h-385q-283 0 -283 174v217q0 174 283 174h229q283 0 283 -174v-512q0 -29 -15.5 -38t-47.5 -9t-48 9t-16 38v121zM706 101v290q0 30 -38 51.5t-122 21.5h-221q-84 0 -122 -21.5t-38 -51.5v-217q0 -31 38 -52t122 -21h381z" />
    <glyph glyph-name="r" unicode="r" horiz-adv-x="438" 
d="M380 565q23 0 29.5 -13t6.5 -38t-6.5 -37.5t-29.5 -12.5h-78q-74 0 -103 -19t-29 -53v-349q0 -29 -16 -38t-48 -9t-47.5 9t-15.5 38v349q0 87 66.5 130t192.5 43h78z" />
    <glyph glyph-name="s" unicode="s" horiz-adv-x="789" 
d="M34 415q0 70 60 110t178 40h137q23 0 30 -12.5t7 -38.5q0 -25 -7 -37.5t-30 -12.5h-138q-57 0 -84 -13.5t-27 -36.5v-26q0 -23 28 -37t88 -14h221q140 0 202 -40t62 -112v-32q0 -36 -16 -64.5t-50 -48t-88 -30t-129 -10.5h-405q-23 0 -30 12.5t-7 38.5q0 25 7 37.5
t30 12.5h424q40 0 66.5 3.5t42 10t21.5 15.5t6 21v36q0 12 -6 21t-21 16t-40.5 10.5t-64.5 3.5h-224q-121 0 -182 39.5t-61 108.5v29z" />
    <glyph glyph-name="t" unicode="t" horiz-adv-x="491" 
d="M105 565v117q0 29 15.5 38t47.5 9t48 -9t16 -38v-117h211q23 0 29.5 -13t6.5 -38t-6.5 -37.5t-29.5 -12.5h-211v-421q0 -29 -16 -38t-48 -9t-47.5 9t-15.5 38v421h-57q-23 0 -29.5 12.5t-6.5 37.5t6.5 38t29.5 13h57z" />
    <glyph glyph-name="u" unicode="u" horiz-adv-x="891" 
d="M785 569q32 0 47.5 -9t15.5 -38v-348q0 -174 -283 -174h-239q-283 0 -283 174v348q0 29 16 38t48 9t47.5 -9t15.5 -38v-348q0 -31 38 -52t122 -21h231q84 0 122 21t38 52v348q0 29 16 38t48 9z" />
    <glyph glyph-name="v" unicode="v" horiz-adv-x="964" 
d="M484 -4q-26 0 -42.5 6.5t-27.5 20.5l-393 487q-9 10 -9 21q0 17 22 27.5t53 10.5q17 0 34.5 -4.5t28.5 -18.5l335 -420l336 421q10 13 26.5 17.5t33.5 4.5q28 0 49.5 -10t21.5 -27q0 -10 -9 -22l-389 -487q-11 -14 -27.5 -20.5t-42.5 -6.5z" />
    <glyph glyph-name="w" unicode="w" horiz-adv-x="1184" 
d="M393 30q-18 -34 -72 -34q-27 0 -46.5 8.5t-28.5 27.5l-230 482q-6 10 -6 19q0 17 19 26.5t50 9.5q44 0 54 -23l187 -420l210 404q12 23 25.5 31t39.5 8q15 0 24.5 -2.5t16 -7t11.5 -12t10 -17.5l202 -404l191 420q10 23 55 23q31 0 50 -9.5t19 -26.5q0 -9 -6 -19
l-236 -482q-9 -19 -28.5 -27.5t-45.5 -8.5q-25 0 -44.5 8t-28.5 26l-192 390z" />
    <glyph glyph-name="x" unicode="x" horiz-adv-x="851" 
d="M429 350l259 205q11 8 24 11t45 3q31 0 50.5 -5.5t19.5 -27.5q0 -10 -6 -17t-23 -21l-279 -217l282 -214q17 -14 23 -21t6 -18q0 -21 -17.5 -26.5t-50.5 -5.5q-29 0 -43 3t-25 11l-270 209l-265 -209q-12 -9 -26 -11.5t-40 -2.5q-33 0 -52.5 5t-19.5 28q0 10 5.5 17
t22.5 21l285 221l-276 210q-17 14 -22.5 22t-5.5 17q0 20 17.5 26t52.5 6q27 0 40.5 -3t24.5 -11z" />
    <glyph glyph-name="y" unicode="y" horiz-adv-x="880" 
d="M706 115v407q0 29 15.5 38t47.5 9t48 -9t16 -38v-513q0 -87 -66.5 -130t-192.5 -43h-138q-23 0 -29.5 13t-6.5 38t6.5 37.5t29.5 12.5h138q74 0 103 18.5t29 53.5v5h-380q-283 0 -283 174v334q0 29 15.5 38t47.5 9t48 -9t16 -38v-335q0 -31 38 -51.5t122 -20.5h376z" />
    <glyph glyph-name="z" unicode="z" 
d="M232 101h554q23 0 29.5 -13t6.5 -38t-6.5 -37.5t-29.5 -12.5h-663q-54 0 -75.5 12.5t-21.5 39.5q0 14 5.5 24.5t19.5 21.5l616 457q11 8 28 11t45 3t48 -5t20 -27q0 -12 -7 -19.5t-23 -18.5z" />
    <glyph glyph-name="braceleft" unicode="{" horiz-adv-x="355" 
d="M274 -210q-78 0 -112.5 42t-34.5 114v290q0 18 -3.5 29t-10 17.5t-15.5 9.5t-20 6q-12 3 -17 11.5t-5 36.5t5 36.5t17 11.5q11 3 20 6t15.5 9.5t10 17.5t3.5 29v290q0 72 34.5 114t112.5 42q32 0 46 -9t14 -35q0 -17 -5 -26t-11.5 -13.5t-14 -6t-13.5 -1.5
q-26 -2 -37 -19.5t-11 -45.5v-292q0 -48 -14 -76.5t-43 -31.5q29 -3 43 -32t14 -76v-292q0 -28 11 -45.5t37 -19.5q6 0 13.5 -1.5t14 -6t11.5 -14t5 -25.5q0 -26 -14 -35t-46 -9z" />
    <glyph glyph-name="bar" unicode="|" horiz-adv-x="357" 
d="M236 -168q0 -26 -14.5 -34t-43.5 -8t-43 8t-14 34v1028q0 26 14 34t43 8t43.5 -8t14.5 -34v-1028z" />
    <glyph glyph-name="braceright" unicode="}" horiz-adv-x="355" 
d="M81 -210q-32 0 -46 9t-14 35q0 16 5 25.5t11.5 14t14 6t13.5 1.5q26 2 37 19.5t11 45.5v292q0 47 14 76t43 32q-29 3 -43 31.5t-14 76.5v292q0 28 -11 45.5t-37 19.5q-6 0 -13.5 1.5t-14 6t-11.5 13.5t-5 26q0 26 14 35t46 9q78 0 112.5 -42t34.5 -114v-290
q0 -18 3.5 -29t10 -17.5t15.5 -9.5t20 -6q12 -3 17 -11.5t5 -36.5t-5 -36.5t-17 -11.5q-11 -3 -20 -6t-15.5 -9.5t-10 -17.5t-3.5 -29v-290q0 -72 -34.5 -114t-112.5 -42z" />
    <glyph glyph-name="asciitilde" unicode="~" horiz-adv-x="609" 
d="M415 274q-37 0 -66.5 13t-53.5 29t-45 29t-41 13q-23 0 -41 -17t-32 -39q-8 -14 -17.5 -21t-35.5 -7q-22 0 -33.5 8t-11.5 36q0 31 13.5 56.5t35 43.5t49.5 27.5t57 9.5q36 0 64.5 -13t53 -29t46 -29t42.5 -13q23 0 41.5 16t32.5 40q8 14 17 21t35 7q23 0 34.5 -8
t11.5 -36q0 -31 -13.5 -56.5t-35 -43.5t-49.5 -27.5t-58 -9.5z" />
    <glyph glyph-name="nonbreakingspace" unicode="&#xa0;" horiz-adv-x="349" 
 />
    <glyph glyph-name="exclamdown" unicode="&#xa1;" horiz-adv-x="252" 
d="M47 527q0 32 18.5 47t60.5 15t60.5 -15t18.5 -47t-18.5 -47t-60.5 -15t-60.5 15t-18.5 47zM193 -97q0 -29 -17 -38t-50 -9q-32 0 -49 9t-17 38v476q0 29 17 38t49 9q33 0 50 -9t17 -38v-476z" />
    <glyph glyph-name="cent" unicode="&#xa2;" horiz-adv-x="820" 
d="M504 635h237q23 0 30 -12.5t7 -38.5q0 -25 -7 -37.5t-30 -12.5h-237v-363h240q23 0 29.5 -12.5t6.5 -37.5t-6.5 -38t-29.5 -13h-240v-32q0 -26 -14.5 -34t-43.5 -8t-43 8t-14 34v32h-68q-283 0 -283 174v217q0 174 283 174h68v48q0 26 14 34t43 8t43.5 -8t14.5 -34v-48z
M165 244q0 -30 38 -51.5t122 -21.5h64v363h-64q-84 0 -122 -21t-38 -52v-217z" />
    <glyph glyph-name="sterling" unicode="&#xa3;" horiz-adv-x="838" 
d="M709 417q23 0 29.5 -13t6.5 -38t-6.5 -37.5t-29.5 -12.5h-424v-208h472q24 0 31.5 -13.5t7.5 -40.5t-7.5 -40.5t-31.5 -13.5h-706q-24 0 -31.5 13.5t-7.5 40.5t7.5 40.5t31.5 13.5h101v208h-69q-23 0 -29.5 12.5t-6.5 37.5t6.5 38t29.5 13h69v122q0 186 297 186h71
q24 0 31 -14t7 -41q0 -26 -7 -39.5t-31 -13.5h-68q-88 0 -127.5 -23t-39.5 -55v-122h424z" />
    <glyph glyph-name="currency" unicode="&#xa4;" horiz-adv-x="609" 
d="M411 175q-23 -15 -50.5 -23.5t-56.5 -8.5q-30 0 -57 8.5t-49 23.5l-65 -66q-19 -19 -44 -19q-22 0 -39 15.5t-17 38.5q0 10 4 20.5t14 20.5l69 67q-15 23 -23.5 50t-8.5 56t8.5 56t23.5 50l-69 68q-18 18 -18 40t17.5 38t39.5 16q11 0 21.5 -4t21.5 -15l65 -66
q23 15 50 23.5t56 8.5t56 -9t50 -23l66 66q20 20 43 20q22 0 39 -16.5t17 -38.5t-18 -40l-70 -69q15 -23 23.5 -49.5t8.5 -55.5t-8.5 -55.5t-22.5 -49.5l69 -68q18 -18 18 -41q0 -22 -17 -38.5t-39 -16.5q-23 0 -43 20zM429 358q0 25 -9.5 48t-26.5 39.5t-40 26.5t-49 10
t-49 -10t-40 -26.5t-26.5 -39.5t-9.5 -48q0 -26 9.5 -49t26.5 -40t40 -26.5t49 -9.5t49 9.5t40 26.5t26.5 40t9.5 49z" />
    <glyph glyph-name="yen" unicode="&#xa5;" horiz-adv-x="847" 
d="M490 264v-55h258q26 0 34 -14t8 -43t-8 -43.5t-34 -14.5h-258v-51q0 -29 -17 -38t-50 -9q-32 0 -49 9t-17 38v51h-258q-26 0 -34 14.5t-8 43.5t8 43t34 14h258v55h-258q-26 0 -34 14.5t-8 43.5t8 43t34 14h248l-280 270q-21 19 -21 40q0 16 17 28t55 12q22 0 33.5 -4.5
t22.5 -14.5l250 -242l249 242q10 10 22 14.5t34 4.5q38 0 55 -11.5t17 -28.5q0 -21 -21 -40l-281 -270h249q26 0 34 -14t8 -43t-8 -43.5t-34 -14.5h-258z" />
    <glyph glyph-name="brokenbar" unicode="&#xa6;" horiz-adv-x="357" 
d="M236 452q0 -26 -14.5 -34t-43.5 -8t-43 8t-14 34v368q0 26 14 34t43 8t43.5 -8t14.5 -34v-368zM236 -128q0 -26 -14.5 -34t-43.5 -8t-43 8t-14 34v368q0 26 14 34t43 8t43.5 -8t14.5 -34v-368z" />
    <glyph glyph-name="section" unicode="&#xa7;" horiz-adv-x="759" 
d="M282 383q-112 0 -112 -64v-48q0 -72 131 -72h190q102 0 102 66v44q0 74 -114 74h-197zM708 265q0 -83 -81 -121q81 -43 81 -122q0 -187 -237 -187h-370q-50 0 -50 50q0 53 50 53h390q102 0 102 84q0 74 -112 74h-161q-262 0 -262 174v49q0 76 80 118q-80 41 -80 121
q0 167 250 167h25q53 0 53 -52q0 -50 -53 -50h-51q-112 0 -112 -65q0 -72 125 -72h170q243 0 243 -177v-44z" />
    <glyph glyph-name="dieresis" unicode="&#xa8;" horiz-adv-x="464" 
d="M268 697q0 32 18.5 47t60.5 15t60.5 -15t18.5 -47t-18.5 -47t-60.5 -15t-60.5 15t-18.5 47zM38 697q0 32 18.5 47t60.5 15t60.5 -15t18.5 -47t-18.5 -47t-60.5 -15t-60.5 15t-18.5 47z" />
    <glyph glyph-name="copyright" unicode="&#xa9;" 
d="M818 193q0 -91 -54 -142t-175 -51h-313q-121 0 -175 51t-54 142v339q0 91 54 142t175 51h313q121 0 175 -51t54 -142v-339zM110 200q0 -69 41.5 -102t125.5 -33h311q84 0 125.5 33t41.5 102v325q0 69 -41.5 102t-125.5 33h-311q-84 0 -125.5 -33t-41.5 -102v-325z
M349 177q-156 0 -156 98v186q0 98 156 98h259q13 0 16.5 -7t3.5 -21t-3.5 -21.5t-16.5 -7.5h-257q-46 0 -67 -12t-21 -29v-186q0 -17 21 -29t67 -12h257q13 0 16.5 -7.5t3.5 -21.5t-3.5 -21t-16.5 -7h-259z" />
    <glyph glyph-name="ordfeminine" unicode="&#xaa;" horiz-adv-x="529" 
d="M188 398q-163 0 -163 104v19q0 104 163 104h228q-2 13 -19 20.5t-61 7.5h-52q-18 0 -23 9.5t-5 26.5t5 26.5t23 9.5h54q164 0 164 -104v-119q0 -104 -164 -104h-150zM336 470q42 0 61 9t19 23v53h-226q-42 0 -61 -9t-19 -23v-21q0 -14 19 -23t61 -9h146z" />
    <glyph glyph-name="guillemotleft" unicode="&#xab;" horiz-adv-x="572" 
d="M28 0zM28 282q0 20 4.5 32t12.5 20l237 228q7 7 14 7q11 0 17.5 -16.5t6.5 -39.5q0 -13 -3 -26t-12 -21l-194 -185l198 -188q8 -7 11 -19.5t3 -24.5q0 -21 -6.5 -37t-16.5 -16q-8 0 -15 7l-240 227q-17 15 -17 52zM249 282q0 20 4.5 32t12.5 20l237 228q7 7 14 7
q11 0 17.5 -16.5t6.5 -39.5q0 -13 -3 -26t-12 -21l-194 -185l198 -188q8 -7 11 -19.5t3 -24.5q0 -21 -6.5 -37t-16.5 -16q-8 0 -15 7l-240 227q-17 15 -17 52z" />
    <glyph glyph-name="logicalnot" unicode="&#xac;" horiz-adv-x="609" 
d="M571 38q0 -26 -14.5 -34t-43.5 -8t-43 8t-14 34v266h-376q-26 0 -34 14.5t-8 43.5t8 43t34 14h454q20 0 28.5 -10t8.5 -29v-342z" />
    <glyph glyph-name="softhyphen" unicode="&#xad;" horiz-adv-x="472" 
d="M12 307zM424 408q23 0 29.5 -13t6.5 -38t-6.5 -37.5t-29.5 -12.5h-376q-23 0 -29.5 12.5t-6.5 37.5t6.5 38t29.5 13h376z" />
    <glyph glyph-name="registered" unicode="&#xae;" 
d="M818 193q0 -91 -54 -142t-175 -51h-313q-121 0 -175 51t-54 142v339q0 91 54 142t175 51h313q121 0 175 -51t54 -142v-339zM110 200q0 -69 41.5 -102t125.5 -33h311q84 0 125.5 33t41.5 102v325q0 69 -41.5 102t-125.5 33h-311q-84 0 -125.5 -33t-41.5 -102v-325z
M200 535q0 24 25 24h296q72 0 113.5 -23.5t41.5 -61.5v-67q0 -38 -41.5 -61.5t-113.5 -23.5h-127l245 -99q17 -5 17 -24q0 -24 -31 -24q-32 0 -46 7l-308 134v-116q0 -15 -9.5 -20t-26.5 -5t-26 5t-9 20v335zM271 502v-124h244q54 0 73 10t19 24v56q0 14 -19 24t-73 10h-244
z" />
    <glyph glyph-name="macron" unicode="&#xaf;" horiz-adv-x="521" 
d="M450 748q20 0 26.5 -11.5t6.5 -34.5t-6.5 -34.5t-26.5 -11.5h-379q-21 0 -27 11.5t-6 34.5t6 34.5t27 11.5h379z" />
    <glyph glyph-name="degree" unicode="&#xb0;" horiz-adv-x="462" 
d="M47 735q0 96 141 96h85q142 0 142 -96v-176q0 -97 -142 -97h-85q-141 0 -141 97v176zM332 721q0 14 -16 24t-51 10h-69q-35 0 -51 -10t-16 -24v-148q0 -14 16 -24.5t51 -10.5h69q35 0 51 10.5t16 24.5v148z" />
    <glyph glyph-name="plusminus" unicode="&#xb1;" horiz-adv-x="609" 
d="M38 0zM362 374v-166q0 -26 -14.5 -34t-43.5 -8t-43 8t-14 34v166h-167q-26 0 -34 14.5t-8 43.5t8 43t34 14h167v168q0 26 14 34t43 8t43.5 -8t14.5 -34v-168h167q26 0 34 -14t8 -43t-8 -43.5t-34 -14.5h-167zM80 0q-26 0 -34 14.5t-8 43.5t8 43t34 14h449q26 0 34 -14
t8 -43t-8 -43.5t-34 -14.5h-449z" />
    <glyph glyph-name="twosuperior" unicode="&#xb2;" horiz-adv-x="590" 
d="M30 310zM199 477q-44 0 -62 -10t-18 -25v-57h411q17 0 23 -8.5t6 -28.5q0 -19 -6 -28.5t-23 -9.5h-466q-34 0 -34 35v97q0 111 171 111h189q44 0 62.5 10t18.5 24v27q0 15 -18.5 25t-62.5 10h-85q-19 0 -24.5 9.5t-5.5 28.5t5.5 28.5t24.5 9.5h83q171 0 171 -111v-27
q0 -110 -171 -110h-189z" />
    <glyph glyph-name="threesuperior" unicode="&#xb3;" horiz-adv-x="579" 
d="M29 310zM468 430q0 13 -3 22.5t-12 15.5t-25 9t-42 3h-327q-19 0 -24 9.5t-5 28.5t5 28.5t24 9.5h331q45 0 61.5 9t16.5 38q0 24 -14.5 35t-61.5 11h-83q-17 0 -23 9.5t-6 28.5t6 28.5t23 9.5h76q37 0 68.5 -5.5t53.5 -19.5t34.5 -37.5t12.5 -60.5q0 -27 -8.5 -49
t-31.5 -37q21 -11 33 -30t12 -54q0 -38 -14.5 -61.5t-38.5 -37t-54.5 -18.5t-62.5 -5h-331q-17 0 -23 9.5t-6 28.5q0 20 6 28.5t23 8.5h335q25 0 39.5 2.5t22.5 8t10.5 14t2.5 20.5z" />
    <glyph glyph-name="acute" unicode="&#xb4;" horiz-adv-x="434" 
d="M163 635q-14 -7 -28.5 -10t-46.5 -3q-20 0 -35 10.5t-15 31.5q0 27 30 43l203 110q14 7 28.5 10t46.5 3q20 0 35 -10.5t15 -32.5q0 -26 -30 -42z" />
    <glyph glyph-name="paragraph" unicode="&#xb6;" horiz-adv-x="743" 
d="M128 562q0 -81 98 -81h361v157h-367q-92 0 -92 -76zM641 -165q-27 0 -40.5 8t-13.5 31v520h-157v-520q0 -23 -13.5 -30t-41.5 -7q-27 0 -40.5 7t-13.5 30v520h-81q-217 0 -217 168q0 163 211 163h426q36 0 36 -36v-815q0 -23 -13.5 -31t-41.5 -8z" />
    <glyph glyph-name="periodcentered" unicode="&#xb7;" horiz-adv-x="252" 
d="M47 296zM47 358q0 32 18.5 47t60.5 15t60.5 -15t18.5 -47t-18.5 -47t-60.5 -15t-60.5 15t-18.5 47z" />
    <glyph glyph-name="cedilla" unicode="&#xb8;" horiz-adv-x="228" 
d="M172 -170q-4 -23 -19 -31.5t-49 -8.5q-35 0 -50.5 8t-15.5 28q0 6 1 14.5t3 17.5l15 88q4 23 19 31.5t50 8.5t49.5 -8t14.5 -31q0 -5 -0.5 -11.5t-1.5 -11.5z" />
    <glyph glyph-name="onesuperior" unicode="&#xb9;" horiz-adv-x="155" 
d="M33 308zM122 342q0 -20 -11.5 -27t-33.5 -7t-33 7t-11 27v351q0 20 11 27t33 7t33.5 -7t11.5 -27v-351z" />
    <glyph glyph-name="ordmasculine" unicode="&#xba;" horiz-adv-x="503" 
d="M28 621q0 104 164 104h119q164 0 164 -104v-119q0 -104 -164 -104h-119q-164 0 -164 104v119zM389 621q0 14 -19 23t-61 9h-115q-42 0 -61 -9t-19 -23v-119q0 -14 19 -23t61 -9h115q42 0 61 9t19 23v119z" />
    <glyph glyph-name="guillemotright" unicode="&#xbb;" horiz-adv-x="572" 
d="M28 0zM323 282q0 -37 -17 -52l-240 -227q-7 -7 -15 -7q-10 0 -16.5 16t-6.5 37q0 12 3 24.5t11 19.5l198 188l-194 185q-9 8 -12 21t-3 26q0 23 6.5 39.5t17.5 16.5q7 0 14 -7l237 -228q8 -8 12.5 -20t4.5 -32zM544 282q0 -37 -17 -52l-240 -227q-7 -7 -15 -7
q-10 0 -16.5 16t-6.5 37q0 12 3 24.5t11 19.5l198 188l-194 185q-9 8 -12 21t-3 26q0 23 6.5 39.5t17.5 16.5q7 0 14 -7l237 -228q8 -8 12.5 -20t4.5 -32z" />
    <glyph glyph-name="onequarter" unicode="&#xbc;" horiz-adv-x="1067" 
d="M38 0zM201 342q0 -20 -11.5 -27t-33.5 -7t-33 7t-11 27v351q0 20 11 27t33 7t33.5 -7t11.5 -27v-351zM128 15q-15 -19 -46 -19q-44 0 -44 31q0 3 2.5 10t11.5 20l495 654q8 11 19 14.5t27 3.5q44 0 44 -31q0 -5 -3 -11.5t-11 -17.5zM559 181h381v202q0 20 11.5 27t33.5 7
t33 -7t11 -27v-351q0 -20 -11 -27t-33 -7t-33.5 7t-11.5 27v74h-435q-14 0 -24.5 6.5t-10.5 23.5v247q0 20 11.5 27t33.5 7t33 -7t11 -27v-202z" />
    <glyph glyph-name="onehalf" unicode="&#xbd;" horiz-adv-x="907" 
d="M38 0zM201 342q0 -20 -11.5 -27t-33.5 -7t-33 7t-11 27v351q0 20 11 27t33 7t33.5 -7t11.5 -27v-351zM128 15q-15 -19 -46 -19q-44 0 -44 31q0 3 2.5 10t11.5 20l495 654q8 11 19 14.5t27 3.5q44 0 44 -31q0 -5 -3 -11.5t-11 -17.5zM509 167q-44 0 -62 -10t-18 -25v-57
h411q17 0 23 -8.5t6 -28.5q0 -19 -6 -28.5t-23 -9.5h-466q-34 0 -34 35v97q0 111 171 111h189q44 0 62.5 10t18.5 24v27q0 15 -18.5 25t-62.5 10h-85q-19 0 -24.5 9.5t-5.5 28.5t5.5 28.5t24.5 9.5h83q171 0 171 -111v-27q0 -110 -171 -110h-189z" />
    <glyph glyph-name="threequarters" unicode="&#xbe;" horiz-adv-x="1401" 
d="M38 0zM477 430q0 13 -3 22.5t-12 15.5t-25 9t-42 3h-327q-19 0 -24 9.5t-5 28.5t5 28.5t24 9.5h331q45 0 61.5 9t16.5 38q0 24 -14.5 35t-61.5 11h-83q-17 0 -23 9.5t-6 28.5t6 28.5t23 9.5h76q37 0 68.5 -5.5t53.5 -19.5t34.5 -37.5t12.5 -60.5q0 -27 -8.5 -49
t-31.5 -37q21 -11 33 -30t12 -54q0 -38 -14.5 -61.5t-38.5 -37t-54.5 -18.5t-62.5 -5h-331q-17 0 -23 9.5t-6 28.5q0 20 6 28.5t23 8.5h335q25 0 39.5 2.5t22.5 8t10.5 14t2.5 20.5zM462 15q-15 -19 -46 -19q-44 0 -44 31q0 3 2.5 10t11.5 20l495 654q8 11 19 14.5t27 3.5
q44 0 44 -31q0 -5 -3 -11.5t-11 -17.5zM893 181h381v202q0 20 11.5 27t33.5 7t33 -7t11 -27v-351q0 -20 -11 -27t-33 -7t-33.5 7t-11.5 27v74h-435q-14 0 -24.5 6.5t-10.5 23.5v247q0 20 11.5 27t33.5 7t33 -7t11 -27v-202z" />
    <glyph glyph-name="questiondown" unicode="&#xbf;" horiz-adv-x="671" 
d="M462 297q25 0 30.5 9t5.5 31v43q0 28 16.5 37t48.5 9t48.5 -9t16.5 -37v-56q0 -37 -14.5 -62.5t-38 -41t-53.5 -22t-61 -6.5h-139q-88 0 -126.5 -23t-38.5 -55v-68q0 -33 38.5 -55.5t126.5 -22.5h42q24 0 31.5 -13.5t7.5 -40.5t-7.5 -40.5t-31.5 -13.5h-39
q-296 0 -296 186v68q0 94 73.5 138.5t222.5 44.5h137zM642 527q0 -32 -18.5 -47t-60.5 -15t-60.5 15t-18.5 47t18.5 47t60.5 15t60.5 -15t18.5 -47z" />
    <glyph glyph-name="Agrave" unicode="&#xc0;" horiz-adv-x="1041" 
d="M12 0zM508 728q29 0 47.5 -9t30.5 -26l436 -622q7 -11 7 -23q0 -11 -6.5 -21t-17 -17t-23.5 -11t-26 -4q-14 0 -25 4.5t-19 15.5l-118 172h-556l-111 -172q-7 -11 -18.5 -15.5t-24.5 -4.5q-12 0 -25 4t-23.5 11.5t-17 17t-6.5 21.5q0 10 7 22l410 622q11 17 30 26t49 9z
M307 295h413l-212 311zM321 905q-30 16 -30 42q0 22 15 32.5t35 10.5q32 0 46.5 -3t28.5 -10l203 -110q30 -16 30 -43q0 -21 -15 -31.5t-35 -10.5q-32 0 -46.5 3t-28.5 10z" />
    <glyph glyph-name="Aacute" unicode="&#xc1;" horiz-adv-x="1041" 
d="M12 0zM508 728q29 0 47.5 -9t30.5 -26l436 -622q7 -11 7 -23q0 -11 -6.5 -21t-17 -17t-23.5 -11t-26 -4q-14 0 -25 4.5t-19 15.5l-118 172h-556l-111 -172q-7 -11 -18.5 -15.5t-24.5 -4.5q-12 0 -25 4t-23.5 11.5t-17 17t-6.5 21.5q0 10 7 22l410 622q11 17 30 26t49 9z
M307 295h413l-212 311zM516 795q-14 -7 -28.5 -10t-46.5 -3q-20 0 -35 10.5t-15 31.5q0 27 30 43l203 110q14 7 28.5 10t46.5 3q20 0 35 -10.5t15 -32.5q0 -26 -30 -42z" />
    <glyph glyph-name="Acircumflex" unicode="&#xc2;" horiz-adv-x="1041" 
d="M12 0zM508 728q29 0 47.5 -9t30.5 -26l436 -622q7 -11 7 -23q0 -11 -6.5 -21t-17 -17t-23.5 -11t-26 -4q-14 0 -25 4.5t-19 15.5l-118 172h-556l-111 -172q-7 -11 -18.5 -15.5t-24.5 -4.5q-12 0 -25 4t-23.5 11.5t-17 17t-6.5 21.5q0 10 7 22l410 622q11 17 30 26t49 9z
M307 295h413l-212 311zM457 802q-9 -11 -24.5 -15.5t-30.5 -4.5q-26 0 -45 9.5t-19 25.5q0 10 8 19l110 130q10 12 25 18t39 6t39 -6t25 -18l110 -130q8 -9 8 -19q0 -16 -19 -25.5t-45 -9.5q-15 0 -30.5 4.5t-24.5 15.5l-63 77z" />
    <glyph glyph-name="Atilde" unicode="&#xc3;" horiz-adv-x="1041" 
d="M12 0zM508 728q29 0 47.5 -9t30.5 -26l436 -622q7 -11 7 -23q0 -11 -6.5 -21t-17 -17t-23.5 -11t-26 -4q-14 0 -25 4.5t-19 15.5l-118 172h-556l-111 -172q-7 -11 -18.5 -15.5t-24.5 -4.5q-12 0 -25 4t-23.5 11.5t-17 17t-6.5 21.5q0 10 7 22l410 622q11 17 30 26t49 9z
M307 295h413l-212 311zM710 908q20 0 26.5 -11.5t6.5 -34.5t-6.5 -34.5t-26.5 -11.5h-379q-21 0 -27 11.5t-6 34.5t6 34.5t27 11.5h379z" />
    <glyph glyph-name="Adieresis" unicode="&#xc4;" horiz-adv-x="1041" 
d="M12 0zM508 728q29 0 47.5 -9t30.5 -26l436 -622q7 -11 7 -23q0 -11 -6.5 -21t-17 -17t-23.5 -11t-26 -4q-14 0 -25 4.5t-19 15.5l-118 172h-556l-111 -172q-7 -11 -18.5 -15.5t-24.5 -4.5q-12 0 -25 4t-23.5 11.5t-17 17t-6.5 21.5q0 10 7 22l410 622q11 17 30 26t49 9z
M307 295h413l-212 311zM556 857q0 32 18.5 47t60.5 15t60.5 -15t18.5 -47t-18.5 -47t-60.5 -15t-60.5 15t-18.5 47zM326 857q0 32 18.5 47t60.5 15t60.5 -15t18.5 -47t-18.5 -47t-60.5 -15t-60.5 15t-18.5 47z" />
    <glyph glyph-name="Aring" unicode="&#xc5;" horiz-adv-x="1041" 
d="M12 0zM508 728q29 0 47.5 -9t30.5 -26l436 -622q7 -11 7 -23q0 -11 -6.5 -21t-17 -17t-23.5 -11t-26 -4q-14 0 -25 4.5t-19 15.5l-118 172h-556l-111 -172q-7 -11 -18.5 -15.5t-24.5 -4.5q-12 0 -25 4t-23.5 11.5t-17 17t-6.5 21.5q0 10 7 22l410 622q11 17 30 26t49 9z
M307 295h413l-212 311zM654 852q0 -32 -6.5 -51.5t-20.5 -31t-36.5 -15.5t-54.5 -4h-32q-32 0 -54.5 4t-36.5 15.5t-20.5 31t-6.5 51.5v36q0 31 6.5 51t20.5 31.5t36.5 15.5t54.5 4h32q32 0 54.5 -4t36.5 -15.5t20.5 -31.5t6.5 -51v-36zM530 807q38 0 48 8t10 37v36
q0 29 -10 37t-48 8h-20q-38 0 -48 -8t-10 -37v-36q0 -29 10 -37t48 -8h20z" />
    <glyph glyph-name="AE" unicode="&#xc6;" horiz-adv-x="1445" 
d="M947 0q-296 0 -296 186v1h-413l-111 -172q-7 -11 -18.5 -15.5t-24.5 -4.5q-12 0 -25 4t-23.5 11.5t-17 17t-6.5 21.5q0 10 7 22l408 619q11 17 30 26t49 9h550q23 0 30.5 -13.5t7.5 -40.5t-7.5 -40.5t-30.5 -13.5h-273v-206h589q24 0 31.5 -13.5t7.5 -40.5t-7.5 -40.5
t-31.5 -13.5h-589v-117q0 -32 40 -55t128 -23h418q24 0 31.5 -13.5t7.5 -40.5q0 -26 -7.5 -40t-31.5 -14h-422zM307 295h344v322h-136z" />
    <glyph glyph-name="Ccedilla" unicode="&#xc7;" horiz-adv-x="896" 
d="M38 0zM334 0q-296 0 -296 186v353q0 186 296 186h490q24 0 31.5 -13.5t7.5 -40.5t-7.5 -40.5t-31.5 -13.5h-486q-88 0 -128 -22.5t-40 -55.5v-353q0 -32 40 -55t128 -23h487q24 0 31 -13.5t7 -40.5q0 -26 -7 -40t-31 -14h-491zM506 -170q-4 -23 -19 -31.5t-49 -8.5
q-35 0 -50.5 8t-15.5 28q0 6 1 14.5t3 17.5l15 88q4 23 19 31.5t50 8.5t49.5 -8t14.5 -31q0 -5 -0.5 -11.5t-1.5 -11.5z" />
    <glyph glyph-name="Egrave" unicode="&#xc8;" horiz-adv-x="892" 
d="M38 0zM170 303v-117q0 -32 40 -55t128 -23h478q24 0 31.5 -13.5t7.5 -40.5q0 -26 -7.5 -40t-31.5 -14h-482q-296 0 -296 186v353q0 186 296 186h149q23 0 30.5 -13.5t7.5 -40.5t-7.5 -40.5t-30.5 -13.5h-145q-88 0 -128 -22.5t-40 -55.5v-128h649q24 0 31.5 -13.5
t7.5 -40.5t-7.5 -40.5t-31.5 -13.5h-649zM217 905q-30 16 -30 42q0 22 15 32.5t35 10.5q32 0 46.5 -3t28.5 -10l203 -110q30 -16 30 -43q0 -21 -15 -31.5t-35 -10.5q-32 0 -46.5 3t-28.5 10z" />
    <glyph glyph-name="Eacute" unicode="&#xc9;" horiz-adv-x="892" 
d="M38 0zM170 303v-117q0 -32 40 -55t128 -23h478q24 0 31.5 -13.5t7.5 -40.5q0 -26 -7.5 -40t-31.5 -14h-482q-296 0 -296 186v353q0 186 296 186h149q23 0 30.5 -13.5t7.5 -40.5t-7.5 -40.5t-30.5 -13.5h-145q-88 0 -128 -22.5t-40 -55.5v-128h649q24 0 31.5 -13.5
t7.5 -40.5t-7.5 -40.5t-31.5 -13.5h-649zM412 795q-14 -7 -28.5 -10t-46.5 -3q-20 0 -35 10.5t-15 31.5q0 27 30 43l203 110q14 7 28.5 10t46.5 3q20 0 35 -10.5t15 -32.5q0 -26 -30 -42z" />
    <glyph glyph-name="Ecircumflex" unicode="&#xca;" horiz-adv-x="892" 
d="M38 0zM170 303v-117q0 -32 40 -55t128 -23h478q24 0 31.5 -13.5t7.5 -40.5q0 -26 -7.5 -40t-31.5 -14h-482q-296 0 -296 186v353q0 186 296 186h149q23 0 30.5 -13.5t7.5 -40.5t-7.5 -40.5t-30.5 -13.5h-145q-88 0 -128 -22.5t-40 -55.5v-128h649q24 0 31.5 -13.5
t7.5 -40.5t-7.5 -40.5t-31.5 -13.5h-649zM353 802q-9 -11 -24.5 -15.5t-30.5 -4.5q-26 0 -45 9.5t-19 25.5q0 10 8 19l110 130q10 12 25 18t39 6t39 -6t25 -18l110 -130q8 -9 8 -19q0 -16 -19 -25.5t-45 -9.5q-15 0 -30.5 4.5t-24.5 15.5l-63 77z" />
    <glyph glyph-name="Edieresis" unicode="&#xcb;" horiz-adv-x="892" 
d="M38 0zM170 303v-117q0 -32 40 -55t128 -23h478q24 0 31.5 -13.5t7.5 -40.5q0 -26 -7.5 -40t-31.5 -14h-482q-296 0 -296 186v353q0 186 296 186h149q23 0 30.5 -13.5t7.5 -40.5t-7.5 -40.5t-30.5 -13.5h-145q-88 0 -128 -22.5t-40 -55.5v-128h649q24 0 31.5 -13.5
t7.5 -40.5t-7.5 -40.5t-31.5 -13.5h-649zM452 857q0 32 18.5 47t60.5 15t60.5 -15t18.5 -47t-18.5 -47t-60.5 -15t-60.5 15t-18.5 47zM222 857q0 32 18.5 47t60.5 15t60.5 -15t18.5 -47t-18.5 -47t-60.5 -15t-60.5 15t-18.5 47z" />
    <glyph glyph-name="Igrave" unicode="&#xcc;" horiz-adv-x="283" 
d="M0 0zM236 43q0 -29 -17 -38t-50 -9q-32 0 -49 9t-17 38v639q0 29 17 38t49 9q33 0 50 -9t17 -38v-639zM-29 905q-30 16 -30 42q0 22 15 32.5t35 10.5q32 0 46.5 -3t28.5 -10l203 -110q30 -16 30 -43q0 -21 -15 -31.5t-35 -10.5q-32 0 -46.5 3t-28.5 10z" />
    <glyph glyph-name="Iacute" unicode="&#xcd;" horiz-adv-x="285" 
d="M0 0zM180 43q0 -29 -17 -38t-50 -9q-32 0 -49 9t-17 38v639q0 29 17 38t49 9q33 0 50 -9t17 -38v-639zM110 795q-14 -7 -28.5 -10t-46.5 -3q-20 0 -35 10.5t-15 31.5q0 27 30 43l203 110q14 7 28.5 10t46.5 3q20 0 35 -10.5t15 -32.5q0 -26 -30 -42z" />
    <glyph glyph-name="Icircumflex" unicode="&#xce;" horiz-adv-x="280" 
d="M0 0zM206 43q0 -29 -17 -38t-50 -9q-32 0 -49 9t-17 38v639q0 29 17 38t49 9q33 0 50 -9t17 -38v-639zM77 802q-9 -11 -24.5 -15.5t-30.5 -4.5q-26 0 -45 9.5t-19 25.5q0 10 8 19l110 130q10 12 25 18t39 6t39 -6t25 -18l110 -130q8 -9 8 -19q0 -16 -19 -25.5t-45 -9.5
q-15 0 -30.5 4.5t-24.5 15.5l-63 77z" />
    <glyph glyph-name="Idieresis" unicode="&#xcf;" horiz-adv-x="277" 
d="M0 0zM205 43q0 -29 -17 -38t-50 -9q-32 0 -49 9t-17 38v639q0 29 17 38t49 9q33 0 50 -9t17 -38v-639zM175 857q0 32 18.5 47t60.5 15t60.5 -15t18.5 -47t-18.5 -47t-60.5 -15t-60.5 15t-18.5 47zM-55 857q0 32 18.5 47t60.5 15t60.5 -15t18.5 -47t-18.5 -47t-60.5 -15
t-60.5 15t-18.5 47z" />
    <glyph glyph-name="Eth" unicode="&#xd0;" horiz-adv-x="1035" 
d="M997 186q0 -186 -296 -186h-567q-46 0 -46 47v256h-39q-24 0 -31.5 13.5t-7.5 40.5t7.5 40.5t31.5 13.5h39v268q0 46 46 46h567q296 0 296 -186v-353zM221 303v-195h476q88 0 128.5 23t40.5 55v353q0 33 -40.5 55.5t-128.5 22.5h-476v-206h409q24 0 31.5 -13.5t7.5 -40.5
t-7.5 -40.5t-31.5 -13.5h-409z" />
    <glyph glyph-name="Ntilde" unicode="&#xd1;" horiz-adv-x="997" 
d="M47 0zM881 -4q-14 0 -23 1t-17 5t-17 10.5t-22 17.5l-622 524v-511q0 -29 -17 -38t-50 -9q-32 0 -49 9t-17 38v639q0 28 16 37.5t47 9.5q33 0 52 -8.5t42 -28.5l613 -522v512q0 29 17 38t49 9q33 0 50 -9t17 -38v-639q0 -29 -17 -38t-52 -9zM688 908q20 0 26.5 -11.5
t6.5 -34.5t-6.5 -34.5t-26.5 -11.5h-379q-21 0 -27 11.5t-6 34.5t6 34.5t27 11.5h379z" />
    <glyph glyph-name="Ograve" unicode="&#xd2;" horiz-adv-x="959" 
d="M38 0zM334 0q-296 0 -296 186v353q0 186 296 186h291q296 0 296 -186v-353q0 -186 -296 -186h-291zM621 108q88 0 128 23t40 55v353q0 33 -40 55.5t-128 22.5h-283q-88 0 -128 -22.5t-40 -55.5v-353q0 -32 40 -55t128 -23h283zM280 905q-30 16 -30 42q0 22 15 32.5
t35 10.5q32 0 46.5 -3t28.5 -10l203 -110q30 -16 30 -43q0 -21 -15 -31.5t-35 -10.5q-32 0 -46.5 3t-28.5 10z" />
    <glyph glyph-name="Oacute" unicode="&#xd3;" horiz-adv-x="959" 
d="M38 0zM334 0q-296 0 -296 186v353q0 186 296 186h291q296 0 296 -186v-353q0 -186 -296 -186h-291zM621 108q88 0 128 23t40 55v353q0 33 -40 55.5t-128 22.5h-283q-88 0 -128 -22.5t-40 -55.5v-353q0 -32 40 -55t128 -23h283zM475 795q-14 -7 -28.5 -10t-46.5 -3
q-20 0 -35 10.5t-15 31.5q0 27 30 43l203 110q14 7 28.5 10t46.5 3q20 0 35 -10.5t15 -32.5q0 -26 -30 -42z" />
    <glyph glyph-name="Ocircumflex" unicode="&#xd4;" horiz-adv-x="959" 
d="M38 0zM334 0q-296 0 -296 186v353q0 186 296 186h291q296 0 296 -186v-353q0 -186 -296 -186h-291zM621 108q88 0 128 23t40 55v353q0 33 -40 55.5t-128 22.5h-283q-88 0 -128 -22.5t-40 -55.5v-353q0 -32 40 -55t128 -23h283zM416 802q-9 -11 -24.5 -15.5t-30.5 -4.5
q-26 0 -45 9.5t-19 25.5q0 10 8 19l110 130q10 12 25 18t39 6t39 -6t25 -18l110 -130q8 -9 8 -19q0 -16 -19 -25.5t-45 -9.5q-15 0 -30.5 4.5t-24.5 15.5l-63 77z" />
    <glyph glyph-name="Otilde" unicode="&#xd5;" horiz-adv-x="959" 
d="M38 0zM334 0q-296 0 -296 186v353q0 186 296 186h291q296 0 296 -186v-353q0 -186 -296 -186h-291zM621 108q88 0 128 23t40 55v353q0 33 -40 55.5t-128 22.5h-283q-88 0 -128 -22.5t-40 -55.5v-353q0 -32 40 -55t128 -23h283zM669 908q20 0 26.5 -11.5t6.5 -34.5
t-6.5 -34.5t-26.5 -11.5h-379q-21 0 -27 11.5t-6 34.5t6 34.5t27 11.5h379z" />
    <glyph glyph-name="Odieresis" unicode="&#xd6;" horiz-adv-x="959" 
d="M38 0zM334 0q-296 0 -296 186v353q0 186 296 186h291q296 0 296 -186v-353q0 -186 -296 -186h-291zM621 108q88 0 128 23t40 55v353q0 33 -40 55.5t-128 22.5h-283q-88 0 -128 -22.5t-40 -55.5v-353q0 -32 40 -55t128 -23h283zM515 857q0 32 18.5 47t60.5 15t60.5 -15
t18.5 -47t-18.5 -47t-60.5 -15t-60.5 15t-18.5 47zM285 857q0 32 18.5 47t60.5 15t60.5 -15t18.5 -47t-18.5 -47t-60.5 -15t-60.5 15t-18.5 47z" />
    <glyph glyph-name="multiply" unicode="&#xd7;" horiz-adv-x="609" 
d="M304 280l-117 -117q-6 -6 -13 -10.5t-15 -4.5q-9 0 -21 7.5t-22.5 18t-17.5 23t-7 21.5q0 12 14 26l118 117l-118 118q-15 15 -15 27q0 9 7.5 21t18 22.5t22.5 18t21 7.5q13 0 27 -14l118 -118l119 118q15 15 27 15q9 0 21 -7.5t22.5 -18t17.5 -22.5t7 -21q0 -13 -14 -27
l-119 -119l118 -118q6 -6 10.5 -13t4.5 -15q0 -9 -7.5 -21t-18.5 -22t-22.5 -17t-20.5 -7q-13 0 -27 14z" />
    <glyph glyph-name="Oslash" unicode="&#xd8;" horiz-adv-x="959" 
d="M801 700q120 -42 120 -161v-353q0 -186 -296 -186h-291h-29t-28 2l-49 -65q-10 -13 -22.5 -17t-29.5 -4q-55 0 -55 35q0 8 3 15.5t13 21.5l26 35q-125 42 -125 163v353q0 186 296 186h291q33 0 65 -3l47 63q9 12 22 17t32 5q53 0 53 -37q0 -13 -17 -36zM170 186
q0 -21 16 -38t50 -28l374 497h-272q-88 0 -128 -22.5t-40 -55.5v-353zM621 108q88 0 128 23t40 55v353q0 20 -14.5 36.5t-46.5 27.5l-372 -495h265z" />
    <glyph glyph-name="Ugrave" unicode="&#xd9;" horiz-adv-x="986" 
d="M43 0zM339 0q-296 0 -296 186v496q0 29 17 38t49 9q33 0 50 -9t17 -38v-496q0 -32 39.5 -55t127.5 -23h300q88 0 127.5 23t39.5 55v496q0 29 17 38t50 9q32 0 49 -9t17 -38v-496q0 -186 -296 -186h-308zM294 905q-30 16 -30 42q0 22 15 32.5t35 10.5q32 0 46.5 -3
t28.5 -10l203 -110q30 -16 30 -43q0 -21 -15 -31.5t-35 -10.5q-32 0 -46.5 3t-28.5 10z" />
    <glyph glyph-name="Uacute" unicode="&#xda;" horiz-adv-x="986" 
d="M43 0zM339 0q-296 0 -296 186v496q0 29 17 38t49 9q33 0 50 -9t17 -38v-496q0 -32 39.5 -55t127.5 -23h300q88 0 127.5 23t39.5 55v496q0 29 17 38t50 9q32 0 49 -9t17 -38v-496q0 -186 -296 -186h-308zM489 795q-14 -7 -28.5 -10t-46.5 -3q-20 0 -35 10.5t-15 31.5
q0 27 30 43l203 110q14 7 28.5 10t46.5 3q20 0 35 -10.5t15 -32.5q0 -26 -30 -42z" />
    <glyph glyph-name="Ucircumflex" unicode="&#xdb;" horiz-adv-x="986" 
d="M43 0zM339 0q-296 0 -296 186v496q0 29 17 38t49 9q33 0 50 -9t17 -38v-496q0 -32 39.5 -55t127.5 -23h300q88 0 127.5 23t39.5 55v496q0 29 17 38t50 9q32 0 49 -9t17 -38v-496q0 -186 -296 -186h-308zM430 802q-9 -11 -24.5 -15.5t-30.5 -4.5q-26 0 -45 9.5t-19 25.5
q0 10 8 19l110 130q10 12 25 18t39 6t39 -6t25 -18l110 -130q8 -9 8 -19q0 -16 -19 -25.5t-45 -9.5q-15 0 -30.5 4.5t-24.5 15.5l-63 77z" />
    <glyph glyph-name="Udieresis" unicode="&#xdc;" horiz-adv-x="986" 
d="M43 0zM339 0q-296 0 -296 186v496q0 29 17 38t49 9q33 0 50 -9t17 -38v-496q0 -32 39.5 -55t127.5 -23h300q88 0 127.5 23t39.5 55v496q0 29 17 38t50 9q32 0 49 -9t17 -38v-496q0 -186 -296 -186h-308zM529 857q0 32 18.5 47t60.5 15t60.5 -15t18.5 -47t-18.5 -47
t-60.5 -15t-60.5 15t-18.5 47zM299 857q0 32 18.5 47t60.5 15t60.5 -15t18.5 -47t-18.5 -47t-60.5 -15t-60.5 15t-18.5 47z" />
    <glyph glyph-name="Yacute" unicode="&#xdd;" horiz-adv-x="919" 
d="M11 0zM32 649q-21 19 -21 40q0 16 17 28t55 12q22 0 33.5 -4.5t22.5 -14.5l321 -312l320 312q10 10 22 14.5t34 4.5q38 0 55 -11.5t17 -28.5q0 -21 -21 -40l-361 -349v-257q0 -29 -17 -38t-50 -9q-32 0 -49 9t-17 38v257zM455 795q-14 -7 -28.5 -10t-46.5 -3
q-20 0 -35 10.5t-15 31.5q0 27 30 43l203 110q14 7 28.5 10t46.5 3q20 0 35 -10.5t15 -32.5q0 -26 -30 -42z" />
    <glyph glyph-name="Thorn" unicode="&#xde;" horiz-adv-x="984" 
d="M113 729q33 0 50 -9t17 -38v-103h481q68 0 122.5 -11.5t92.5 -32.5t58.5 -51t20.5 -67v-109q0 -37 -20.5 -67t-58.5 -51t-92.5 -32.5t-122.5 -11.5h-481v-103q0 -29 -17 -38t-50 -9q-32 0 -49 9t-17 38v639q0 29 17 38t49 9zM823 407q0 13 -8 25t-28 20.5t-53.5 13.5
t-84.5 5h-469v-217h469q51 0 84.5 5t53.5 13.5t28 20t8 25.5v89z" />
    <glyph glyph-name="germandbls" unicode="&#xdf;" horiz-adv-x="923" 
d="M330 556q0 35 -17 53.5t-62 18.5q-46 0 -63.5 -19t-17.5 -53v-513q0 -29 -16 -38t-48 -9t-47.5 9t-15.5 38v513q0 43 16.5 75.5t44.5 54t66 32.5t81 11t80 -11t65 -32.5t44 -54t16 -75.5v-101q0 -23 30.5 -37t104.5 -14h32q137 0 200.5 -40t63.5 -112v-99
q0 -36 -16 -64.5t-50 -48t-88 -30t-129 -10.5h-255q-23 0 -30 12.5t-7 38.5q0 25 7 37.5t30 12.5h274q76 0 106 13.5t30 36.5v103q0 23 -29 37t-103 14h-32q-138 0 -201.5 40t-63.5 112v99z" />
    <glyph glyph-name="agrave" unicode="&#xe0;" horiz-adv-x="908" 
d="M32 0zM315 0q-283 0 -283 174v53q0 174 283 174h428v1q0 29 -37.5 45.5t-122.5 16.5h-94q-23 0 -30 12.5t-7 37.5q0 26 7 38.5t30 12.5h98q283 0 283 -174v-217q0 -174 -283 -174h-272zM583 101q84 0 122 21.5t38 51.5v130h-424q-84 0 -122 -21t-38 -52v-57
q0 -30 38 -51.5t122 -21.5h264zM345 745q-30 16 -30 42q0 22 15 32.5t35 10.5q32 0 46.5 -3t28.5 -10l203 -110q30 -16 30 -43q0 -21 -15 -31.5t-35 -10.5q-32 0 -46.5 3t-28.5 10z" />
    <glyph glyph-name="aacute" unicode="&#xe1;" horiz-adv-x="908" 
d="M32 0zM315 0q-283 0 -283 174v53q0 174 283 174h428v1q0 29 -37.5 45.5t-122.5 16.5h-94q-23 0 -30 12.5t-7 37.5q0 26 7 38.5t30 12.5h98q283 0 283 -174v-217q0 -174 -283 -174h-272zM583 101q84 0 122 21.5t38 51.5v130h-424q-84 0 -122 -21t-38 -52v-57
q0 -30 38 -51.5t122 -21.5h264zM540 635q-14 -7 -28.5 -10t-46.5 -3q-20 0 -35 10.5t-15 31.5q0 27 30 43l203 110q14 7 28.5 10t46.5 3q20 0 35 -10.5t15 -32.5q0 -26 -30 -42z" />
    <glyph glyph-name="acircumflex" unicode="&#xe2;" horiz-adv-x="908" 
d="M32 0zM315 0q-283 0 -283 174v53q0 174 283 174h428v1q0 29 -37.5 45.5t-122.5 16.5h-94q-23 0 -30 12.5t-7 37.5q0 26 7 38.5t30 12.5h98q283 0 283 -174v-217q0 -174 -283 -174h-272zM583 101q84 0 122 21.5t38 51.5v130h-424q-84 0 -122 -21t-38 -52v-57
q0 -30 38 -51.5t122 -21.5h264zM481 642q-9 -11 -24.5 -15.5t-30.5 -4.5q-26 0 -45 9.5t-19 25.5q0 10 8 19l110 130q10 12 25 18t39 6t39 -6t25 -18l110 -130q8 -9 8 -19q0 -16 -19 -25.5t-45 -9.5q-15 0 -30.5 4.5t-24.5 15.5l-63 77z" />
    <glyph glyph-name="atilde" unicode="&#xe3;" horiz-adv-x="908" 
d="M32 0zM315 0q-283 0 -283 174v53q0 174 283 174h428v1q0 29 -37.5 45.5t-122.5 16.5h-94q-23 0 -30 12.5t-7 37.5q0 26 7 38.5t30 12.5h98q283 0 283 -174v-217q0 -174 -283 -174h-272zM583 101q84 0 122 21.5t38 51.5v130h-424q-84 0 -122 -21t-38 -52v-57
q0 -30 38 -51.5t122 -21.5h264zM733 748q20 0 26.5 -11.5t6.5 -34.5t-6.5 -34.5t-26.5 -11.5h-379q-21 0 -27 11.5t-6 34.5t6 34.5t27 11.5h379z" />
    <glyph glyph-name="adieresis" unicode="&#xe4;" horiz-adv-x="908" 
d="M32 0zM315 0q-283 0 -283 174v53q0 174 283 174h428v1q0 29 -37.5 45.5t-122.5 16.5h-94q-23 0 -30 12.5t-7 37.5q0 26 7 38.5t30 12.5h98q283 0 283 -174v-217q0 -174 -283 -174h-272zM583 101q84 0 122 21.5t38 51.5v130h-424q-84 0 -122 -21t-38 -52v-57
q0 -30 38 -51.5t122 -21.5h264zM580 697q0 32 18.5 47t60.5 15t60.5 -15t18.5 -47t-18.5 -47t-60.5 -15t-60.5 15t-18.5 47zM350 697q0 32 18.5 47t60.5 15t60.5 -15t18.5 -47t-18.5 -47t-60.5 -15t-60.5 15t-18.5 47z" />
    <glyph glyph-name="aring" unicode="&#xe5;" horiz-adv-x="908" 
d="M32 0zM315 0q-283 0 -283 174v53q0 174 283 174h428v1q0 29 -37.5 45.5t-122.5 16.5h-94q-23 0 -30 12.5t-7 37.5q0 26 7 38.5t30 12.5h98q283 0 283 -174v-217q0 -174 -283 -174h-272zM583 101q84 0 122 21.5t38 51.5v130h-424q-84 0 -122 -21t-38 -52v-57
q0 -30 38 -51.5t122 -21.5h264zM678 692q0 -32 -6.5 -51.5t-20.5 -31t-36.5 -15.5t-54.5 -4h-32q-32 0 -54.5 4t-36.5 15.5t-20.5 31t-6.5 51.5v36q0 31 6.5 51t20.5 31.5t36.5 15.5t54.5 4h32q32 0 54.5 -4t36.5 -15.5t20.5 -31.5t6.5 -51v-36zM554 647q38 0 48 8t10 37v36
q0 29 -10 37t-48 8h-20q-38 0 -48 -8t-10 -37v-36q0 -29 10 -37t48 -8h20z" />
    <glyph glyph-name="ae" unicode="&#xe6;" horiz-adv-x="1570" 
d="M870 225v-51q0 -30 38 -51.5t122 -21.5h115q23 0 29.5 -12.5t6.5 -37.5t-6.5 -38t-29.5 -13h-119q-150 0 -220 48q-71 -48 -219 -48h-272q-283 0 -283 174v53q0 174 283 174h428v1q0 29 -37.5 45.5t-122.5 16.5h-94q-23 0 -30 12.5t-7 37.5q0 26 7 38.5t30 12.5h98
q148 0 219 -48q70 48 220 48h231q150 0 216.5 -43t66.5 -131v-115q0 -29 -11 -40t-49 -11h-610zM583 101q84 0 122 21.5t38 51.5v130h-424q-84 0 -122 -21t-38 -52v-57q0 -30 38 -51.5t122 -21.5h264zM870 324h543v67q0 35 -37.5 54t-122.5 19h-223q-84 0 -122 -21t-38 -52
v-67z" />
    <glyph glyph-name="ccedilla" unicode="&#xe7;" horiz-adv-x="893" 
d="M38 0zM321 0q-283 0 -283 174v217q0 174 283 174h500q23 0 30 -12.5t7 -38.5q0 -25 -7 -37.5t-30 -12.5h-496q-84 0 -122 -21t-38 -52v-217q0 -30 38 -51.5t122 -21.5h499q23 0 29.5 -12.5t6.5 -37.5t-6.5 -38t-29.5 -13h-503zM504 -170q-4 -23 -19 -31.5t-49 -8.5
q-35 0 -50.5 8t-15.5 28q0 6 1 14.5t3 17.5l15 88q4 23 19 31.5t50 8.5t49.5 -8t14.5 -31q0 -5 -0.5 -11.5t-1.5 -11.5z" />
    <glyph glyph-name="egrave" unicode="&#xe8;" 
d="M38 0zM165 225v-51q0 -30 38 -51.5t122 -21.5h115q23 0 29.5 -12.5t6.5 -37.5t-6.5 -38t-29.5 -13h-119q-283 0 -283 174v217q0 174 283 174h231q150 0 216.5 -43t66.5 -131v-115q0 -29 -11 -40t-49 -11h-610zM165 324h543v67q0 35 -37.5 54t-122.5 19h-223
q-84 0 -122 -21t-38 -52v-67zM233 745q-30 16 -30 42q0 22 15 32.5t35 10.5q32 0 46.5 -3t28.5 -10l203 -110q30 -16 30 -43q0 -21 -15 -31.5t-35 -10.5q-32 0 -46.5 3t-28.5 10z" />
    <glyph glyph-name="eacute" unicode="&#xe9;" 
d="M38 0zM165 225v-51q0 -30 38 -51.5t122 -21.5h115q23 0 29.5 -12.5t6.5 -37.5t-6.5 -38t-29.5 -13h-119q-283 0 -283 174v217q0 174 283 174h231q150 0 216.5 -43t66.5 -131v-115q0 -29 -11 -40t-49 -11h-610zM165 324h543v67q0 35 -37.5 54t-122.5 19h-223
q-84 0 -122 -21t-38 -52v-67zM428 635q-14 -7 -28.5 -10t-46.5 -3q-20 0 -35 10.5t-15 31.5q0 27 30 43l203 110q14 7 28.5 10t46.5 3q20 0 35 -10.5t15 -32.5q0 -26 -30 -42z" />
    <glyph glyph-name="ecircumflex" unicode="&#xea;" 
d="M38 0zM165 225v-51q0 -30 38 -51.5t122 -21.5h115q23 0 29.5 -12.5t6.5 -37.5t-6.5 -38t-29.5 -13h-119q-283 0 -283 174v217q0 174 283 174h231q150 0 216.5 -43t66.5 -131v-115q0 -29 -11 -40t-49 -11h-610zM165 324h543v67q0 35 -37.5 54t-122.5 19h-223
q-84 0 -122 -21t-38 -52v-67zM369 642q-9 -11 -24.5 -15.5t-30.5 -4.5q-26 0 -45 9.5t-19 25.5q0 10 8 19l110 130q10 12 25 18t39 6t39 -6t25 -18l110 -130q8 -9 8 -19q0 -16 -19 -25.5t-45 -9.5q-15 0 -30.5 4.5t-24.5 15.5l-63 77z" />
    <glyph glyph-name="edieresis" unicode="&#xeb;" 
d="M38 0zM165 225v-51q0 -30 38 -51.5t122 -21.5h115q23 0 29.5 -12.5t6.5 -37.5t-6.5 -38t-29.5 -13h-119q-283 0 -283 174v217q0 174 283 174h231q150 0 216.5 -43t66.5 -131v-115q0 -29 -11 -40t-49 -11h-610zM165 324h543v67q0 35 -37.5 54t-122.5 19h-223
q-84 0 -122 -21t-38 -52v-67zM468 697q0 32 18.5 47t60.5 15t60.5 -15t18.5 -47t-18.5 -47t-60.5 -15t-60.5 15t-18.5 47zM238 697q0 32 18.5 47t60.5 15t60.5 -15t18.5 -47t-18.5 -47t-60.5 -15t-60.5 15t-18.5 47z" />
    <glyph glyph-name="igrave" unicode="&#xec;" horiz-adv-x="339" 
d="M0 0zM292 43q0 -29 -16 -38t-48 -9t-47.5 9t-15.5 38v479q0 29 15.5 38t47.5 9t48 -9t16 -38v-479zM30 745q-30 16 -30 42q0 22 15 32.5t35 10.5q32 0 46.5 -3t28.5 -10l203 -110q30 -16 30 -43q0 -21 -15 -31.5t-35 -10.5q-32 0 -46.5 3t-28.5 10z" />
    <glyph glyph-name="iacute" unicode="&#xed;" horiz-adv-x="340" 
d="M0 0zM174 43q0 -29 -16 -38t-48 -9t-47.5 9t-15.5 38v479q0 29 15.5 38t47.5 9t48 -9t16 -38v-479zM107 635q-14 -7 -28.5 -10t-46.5 -3q-20 0 -35 10.5t-15 31.5q0 27 30 43l203 110q14 7 28.5 10t46.5 3q20 0 35 -10.5t15 -32.5q0 -26 -30 -42z" />
    <glyph glyph-name="icircumflex" unicode="&#xee;" horiz-adv-x="364" 
d="M0 0zM245 43q0 -29 -16 -38t-48 -9t-47.5 9t-15.5 38v479q0 29 15.5 38t47.5 9t48 -9t16 -38v-479zM119 642q-9 -11 -24.5 -15.5t-30.5 -4.5q-26 0 -45 9.5t-19 25.5q0 10 8 19l110 130q10 12 25 18t39 6t39 -6t25 -18l110 -130q8 -9 8 -19q0 -16 -19 -25.5t-45 -9.5
q-15 0 -30.5 4.5t-24.5 15.5l-63 77z" />
    <glyph glyph-name="idieresis" unicode="&#xef;" horiz-adv-x="388" 
d="M0 0zM257 43q0 -29 -16 -38t-48 -9t-47.5 9t-15.5 38v479q0 29 15.5 38t47.5 9t48 -9t16 -38v-479zM230 697q0 32 18.5 47t60.5 15t60.5 -15t18.5 -47t-18.5 -47t-60.5 -15t-60.5 15t-18.5 47zM0 697q0 32 18.5 47t60.5 15t60.5 -15t18.5 -47t-18.5 -47t-60.5 -15
t-60.5 15t-18.5 47z" />
    <glyph glyph-name="eth" unicode="&#xf0;" horiz-adv-x="887" 
d="M690 725q80 0 117 -35t37 -98v-418q0 -174 -283 -174h-240q-283 0 -283 174v127q0 174 283 174h396v117q0 32 -27 32h-183q-23 0 -29.5 12.5t-6.5 37.5t6.5 38t29.5 13h183zM325 374q-84 0 -122 -21t-38 -52v-127q0 -30 38 -51.5t122 -21.5h232q84 0 122 21.5t38 51.5
v200h-392z" />
    <glyph glyph-name="ntilde" unicode="&#xf1;" horiz-adv-x="870" 
d="M43 0zM106 -4q-32 0 -47.5 9t-15.5 38v348q0 174 283 174h218q283 0 283 -174v-348q0 -29 -16 -38t-48 -9t-47.5 9t-15.5 38v348q0 31 -38 52t-122 21h-210q-84 0 -122 -21t-38 -52v-348q0 -29 -16 -38t-48 -9zM624 748q20 0 26.5 -11.5t6.5 -34.5t-6.5 -34.5
t-26.5 -11.5h-379q-21 0 -27 11.5t-6 34.5t6 34.5t27 11.5h379z" />
    <glyph glyph-name="ograve" unicode="&#xf2;" horiz-adv-x="860" 
d="M38 0zM38 391q0 174 283 174h218q283 0 283 -174v-217q0 -174 -283 -174h-218q-283 0 -283 174v217zM695 391q0 31 -38 52t-122 21h-210q-84 0 -122 -21t-38 -52v-217q0 -30 38 -51.5t122 -21.5h210q84 0 122 21.5t38 51.5v217zM231 745q-30 16 -30 42q0 22 15 32.5
t35 10.5q32 0 46.5 -3t28.5 -10l203 -110q30 -16 30 -43q0 -21 -15 -31.5t-35 -10.5q-32 0 -46.5 3t-28.5 10z" />
    <glyph glyph-name="oacute" unicode="&#xf3;" horiz-adv-x="860" 
d="M38 0zM38 391q0 174 283 174h218q283 0 283 -174v-217q0 -174 -283 -174h-218q-283 0 -283 174v217zM695 391q0 31 -38 52t-122 21h-210q-84 0 -122 -21t-38 -52v-217q0 -30 38 -51.5t122 -21.5h210q84 0 122 21.5t38 51.5v217zM426 635q-14 -7 -28.5 -10t-46.5 -3
q-20 0 -35 10.5t-15 31.5q0 27 30 43l203 110q14 7 28.5 10t46.5 3q20 0 35 -10.5t15 -32.5q0 -26 -30 -42z" />
    <glyph glyph-name="ocircumflex" unicode="&#xf4;" horiz-adv-x="860" 
d="M38 0zM38 391q0 174 283 174h218q283 0 283 -174v-217q0 -174 -283 -174h-218q-283 0 -283 174v217zM695 391q0 31 -38 52t-122 21h-210q-84 0 -122 -21t-38 -52v-217q0 -30 38 -51.5t122 -21.5h210q84 0 122 21.5t38 51.5v217zM367 642q-9 -11 -24.5 -15.5t-30.5 -4.5
q-26 0 -45 9.5t-19 25.5q0 10 8 19l110 130q10 12 25 18t39 6t39 -6t25 -18l110 -130q8 -9 8 -19q0 -16 -19 -25.5t-45 -9.5q-15 0 -30.5 4.5t-24.5 15.5l-63 77z" />
    <glyph glyph-name="otilde" unicode="&#xf5;" horiz-adv-x="860" 
d="M38 0zM38 391q0 174 283 174h218q283 0 283 -174v-217q0 -174 -283 -174h-218q-283 0 -283 174v217zM695 391q0 31 -38 52t-122 21h-210q-84 0 -122 -21t-38 -52v-217q0 -30 38 -51.5t122 -21.5h210q84 0 122 21.5t38 51.5v217zM619 748q20 0 26.5 -11.5t6.5 -34.5
t-6.5 -34.5t-26.5 -11.5h-379q-21 0 -27 11.5t-6 34.5t6 34.5t27 11.5h379z" />
    <glyph glyph-name="odieresis" unicode="&#xf6;" horiz-adv-x="860" 
d="M38 0zM38 391q0 174 283 174h218q283 0 283 -174v-217q0 -174 -283 -174h-218q-283 0 -283 174v217zM695 391q0 31 -38 52t-122 21h-210q-84 0 -122 -21t-38 -52v-217q0 -30 38 -51.5t122 -21.5h210q84 0 122 21.5t38 51.5v217zM466 697q0 32 18.5 47t60.5 15t60.5 -15
t18.5 -47t-18.5 -47t-60.5 -15t-60.5 15t-18.5 47zM236 697q0 32 18.5 47t60.5 15t60.5 -15t18.5 -47t-18.5 -47t-60.5 -15t-60.5 15t-18.5 47z" />
    <glyph glyph-name="divide" unicode="&#xf7;" horiz-adv-x="609" 
d="M38 100zM80 304q-26 0 -34 14.5t-8 43.5t8 43t34 14h449q26 0 34 -14t8 -43t-8 -43.5t-34 -14.5h-449zM225 561q0 32 18.5 47t60.5 15t60.5 -15t18.5 -47t-18.5 -47t-60.5 -15t-60.5 15t-18.5 47zM225 162q0 32 18.5 47t60.5 15t60.5 -15t18.5 -47t-18.5 -47t-60.5 -15
t-60.5 15t-18.5 47z" />
    <glyph glyph-name="oslash" unicode="&#xf8;" horiz-adv-x="860" 
d="M715 539q107 -41 107 -148v-217q0 -174 -283 -174h-218q-23 0 -44 1t-40 3l-47 -52q-9 -11 -21.5 -14t-27.5 -3q-52 0 -52 28q0 6 3 12t12 17l33 37q-99 42 -99 145v217q0 174 283 174h218q20 0 39 -1t36 -3l59 66q17 18 51 18q50 0 50 -28q0 -7 -3.5 -13t-12.5 -17z
M695 391q0 19 -14 34.5t-45 25.5l-313 -350h212q84 0 122 21.5t38 51.5v217zM165 174q0 -17 12.5 -32t38.5 -26l311 348h-202q-84 0 -122 -21t-38 -52v-217z" />
    <glyph glyph-name="ugrave" unicode="&#xf9;" horiz-adv-x="891" 
d="M43 0zM785 569q32 0 47.5 -9t15.5 -38v-348q0 -174 -283 -174h-239q-283 0 -283 174v348q0 29 16 38t48 9t47.5 -9t15.5 -38v-348q0 -31 38 -52t122 -21h231q84 0 122 21t38 52v348q0 29 16 38t48 9zM246 745q-30 16 -30 42q0 22 15 32.5t35 10.5q32 0 46.5 -3t28.5 -10
l203 -110q30 -16 30 -43q0 -21 -15 -31.5t-35 -10.5q-32 0 -46.5 3t-28.5 10z" />
    <glyph glyph-name="uacute" unicode="&#xfa;" horiz-adv-x="891" 
d="M43 0zM785 569q32 0 47.5 -9t15.5 -38v-348q0 -174 -283 -174h-239q-283 0 -283 174v348q0 29 16 38t48 9t47.5 -9t15.5 -38v-348q0 -31 38 -52t122 -21h231q84 0 122 21t38 52v348q0 29 16 38t48 9zM441 635q-14 -7 -28.5 -10t-46.5 -3q-20 0 -35 10.5t-15 31.5
q0 27 30 43l203 110q14 7 28.5 10t46.5 3q20 0 35 -10.5t15 -32.5q0 -26 -30 -42z" />
    <glyph glyph-name="ucircumflex" unicode="&#xfb;" horiz-adv-x="891" 
d="M43 0zM785 569q32 0 47.5 -9t15.5 -38v-348q0 -174 -283 -174h-239q-283 0 -283 174v348q0 29 16 38t48 9t47.5 -9t15.5 -38v-348q0 -31 38 -52t122 -21h231q84 0 122 21t38 52v348q0 29 16 38t48 9zM382 642q-9 -11 -24.5 -15.5t-30.5 -4.5q-26 0 -45 9.5t-19 25.5
q0 10 8 19l110 130q10 12 25 18t39 6t39 -6t25 -18l110 -130q8 -9 8 -19q0 -16 -19 -25.5t-45 -9.5q-15 0 -30.5 4.5t-24.5 15.5l-63 77z" />
    <glyph glyph-name="udieresis" unicode="&#xfc;" horiz-adv-x="891" 
d="M43 0zM785 569q32 0 47.5 -9t15.5 -38v-348q0 -174 -283 -174h-239q-283 0 -283 174v348q0 29 16 38t48 9t47.5 -9t15.5 -38v-348q0 -31 38 -52t122 -21h231q84 0 122 21t38 52v348q0 29 16 38t48 9zM481 697q0 32 18.5 47t60.5 15t60.5 -15t18.5 -47t-18.5 -47
t-60.5 -15t-60.5 15t-18.5 47zM251 697q0 32 18.5 47t60.5 15t60.5 -15t18.5 -47t-18.5 -47t-60.5 -15t-60.5 15t-18.5 47z" />
    <glyph glyph-name="yacute" unicode="&#xfd;" horiz-adv-x="880" 
d="M43 0zM706 115v407q0 29 15.5 38t47.5 9t48 -9t16 -38v-513q0 -87 -66.5 -130t-192.5 -43h-138q-23 0 -29.5 13t-6.5 38t6.5 37.5t29.5 12.5h138q74 0 103 18.5t29 53.5v5h-380q-283 0 -283 174v334q0 29 15.5 38t47.5 9t48 -9t16 -38v-335q0 -31 38 -51.5t122 -20.5h376
zM436 635q-14 -7 -28.5 -10t-46.5 -3q-20 0 -35 10.5t-15 31.5q0 27 30 43l203 110q14 7 28.5 10t46.5 3q20 0 35 -10.5t15 -32.5q0 -26 -30 -42z" />
    <glyph glyph-name="thorn" unicode="&#xfe;" horiz-adv-x="882" 
d="M174 0v-125q0 -29 -16 -38t-48 -9t-47.5 9t-15.5 38v807q0 29 15.5 38t47.5 9t48 -9t16 -38v-117h387q283 0 283 -174v-217q0 -174 -283 -174h-387zM174 464v-363h383q84 0 122 21.5t38 51.5v217q0 31 -38 52t-122 21h-383z" />
    <glyph glyph-name="ydieresis" unicode="&#xff;" horiz-adv-x="880" 
d="M43 0zM706 115v407q0 29 15.5 38t47.5 9t48 -9t16 -38v-513q0 -87 -66.5 -130t-192.5 -43h-138q-23 0 -29.5 13t-6.5 38t6.5 37.5t29.5 12.5h138q74 0 103 18.5t29 53.5v5h-380q-283 0 -283 174v334q0 29 15.5 38t47.5 9t48 -9t16 -38v-335q0 -31 38 -51.5t122 -20.5h376
zM476 697q0 32 18.5 47t60.5 15t60.5 -15t18.5 -47t-18.5 -47t-60.5 -15t-60.5 15t-18.5 47zM246 697q0 32 18.5 47t60.5 15t60.5 -15t18.5 -47t-18.5 -47t-60.5 -15t-60.5 15t-18.5 47z" />
    <glyph glyph-name="Amacron" unicode="&#x100;" horiz-adv-x="1041" 
d="M12 0zM508 728q29 0 47.5 -9t30.5 -26l436 -622q7 -11 7 -23q0 -11 -6.5 -21t-17 -17t-23.5 -11t-26 -4q-14 0 -25 4.5t-19 15.5l-118 172h-556l-111 -172q-7 -11 -18.5 -15.5t-24.5 -4.5q-12 0 -25 4t-23.5 11.5t-17 17t-6.5 21.5q0 10 7 22l410 622q11 17 30 26t49 9z
M307 295h413l-212 311zM710 908q20 0 26.5 -11.5t6.5 -34.5t-6.5 -34.5t-26.5 -11.5h-379q-21 0 -27 11.5t-6 34.5t6 34.5t27 11.5h379z" />
    <glyph glyph-name="amacron" unicode="&#x101;" horiz-adv-x="908" 
d="M32 0zM315 0q-283 0 -283 174v53q0 174 283 174h428v1q0 29 -37.5 45.5t-122.5 16.5h-94q-23 0 -30 12.5t-7 37.5q0 26 7 38.5t30 12.5h98q283 0 283 -174v-217q0 -174 -283 -174h-272zM583 101q84 0 122 21.5t38 51.5v130h-424q-84 0 -122 -21t-38 -52v-57
q0 -30 38 -51.5t122 -21.5h264zM723 748q20 0 26.5 -11.5t6.5 -34.5t-6.5 -34.5t-26.5 -11.5h-379q-21 0 -27 11.5t-6 34.5t6 34.5t27 11.5h379z" />
    <glyph glyph-name="Abreve" unicode="&#x102;" horiz-adv-x="1041" 
d="M12 0zM508 728q29 0 47.5 -9t30.5 -26l436 -622q7 -11 7 -23q0 -11 -6.5 -21t-17 -17t-23.5 -11t-26 -4q-14 0 -25 4.5t-19 15.5l-118 172h-556l-111 -172q-7 -11 -18.5 -15.5t-24.5 -4.5q-12 0 -25 4t-23.5 11.5t-17 17t-6.5 21.5q0 10 7 22l410 622q11 17 30 26t49 9z
M307 295h413l-212 311zM520 782q-43 0 -84 11t-73.5 32t-52 51t-19.5 68q0 26 13 36t50 10q22 0 37.5 -5t23.5 -22q7 -15 15.5 -30.5t20.5 -28.5t28.5 -21t40.5 -8t40.5 8t28.5 21t20.5 28.5t15.5 30.5q8 17 23.5 22t37.5 5q37 0 50 -10t13 -36q0 -38 -20 -68t-52 -51
t-73 -32t-84 -11z" />
    <glyph glyph-name="abreve" unicode="&#x103;" horiz-adv-x="908" 
d="M32 0zM315 0q-283 0 -283 174v53q0 174 283 174h428v1q0 29 -37.5 45.5t-122.5 16.5h-94q-23 0 -30 12.5t-7 37.5q0 26 7 38.5t30 12.5h98q283 0 283 -174v-217q0 -174 -283 -174h-272zM583 101q84 0 122 21.5t38 51.5v130h-424q-84 0 -122 -21t-38 -52v-57
q0 -30 38 -51.5t122 -21.5h264zM534 622q-43 0 -84 11t-73.5 32t-52 51t-19.5 68q0 26 13 36t50 10q22 0 37.5 -5t23.5 -22q7 -15 15.5 -30.5t20.5 -28.5t28.5 -21t40.5 -8t40.5 8t28.5 21t20.5 28.5t15.5 30.5q8 17 23.5 22t37.5 5q37 0 50 -10t13 -36q0 -38 -20 -68
t-52 -51t-73 -32t-84 -11z" />
    <glyph glyph-name="Aogonek" unicode="&#x104;" horiz-adv-x="1041" 
d="M981 -116q21 0 27.5 -11.5t6.5 -34.5t-6.5 -35.5t-27.5 -12.5h-150q-34 0 -56 7.5t-34.5 19t-17.5 25t-5 24.5v24q0 21 8.5 37t30.5 30t60.5 26t99.5 25l-123 179h-556l-111 -172q-7 -11 -18.5 -15.5t-24.5 -4.5q-12 0 -25 4t-23.5 11.5t-17 17t-6.5 21.5q0 10 7 22
l410 622q11 17 30 26t49 9q29 0 47.5 -9t30.5 -26l436 -622q7 -11 7 -23q0 -13 -7.5 -23.5t-19 -18t-24.5 -13t-24 -8.5q-62 -19 -90 -31t-28 -32v-15q0 -14 5.5 -18.5t21.5 -4.5h118zM307 295h413l-212 311z" />
    <glyph glyph-name="aogonek" unicode="&#x105;" horiz-adv-x="908" 
d="M666 -116q21 0 27.5 -11.5t6.5 -34.5t-6.5 -35.5t-27.5 -12.5h-150q-34 0 -56 7.5t-34.5 19t-17.5 25t-5 24.5v24q0 21 8 37t27.5 29t52 23.5t82.5 20.5h-258q-283 0 -283 174v53q0 174 283 174h428v1q0 29 -37.5 45.5t-122.5 16.5h-94q-23 0 -30 12.5t-7 37.5
q0 26 7 38.5t30 12.5h98q283 0 283 -174v-217q0 -39 -14.5 -66.5t-44 -48.5t-72.5 -38.5t-100 -35.5q-62 -20 -90 -32t-28 -31v-15q0 -14 5.5 -18.5t21.5 -4.5h118zM583 101q84 0 122 21.5t38 51.5v130h-424q-84 0 -122 -21t-38 -52v-57q0 -30 38 -51.5t122 -21.5h264z" />
    <glyph glyph-name="Cacute" unicode="&#x106;" horiz-adv-x="896" 
d="M38 0zM334 0q-296 0 -296 186v353q0 186 296 186h490q24 0 31.5 -13.5t7.5 -40.5t-7.5 -40.5t-31.5 -13.5h-486q-88 0 -128 -22.5t-40 -55.5v-353q0 -32 40 -55t128 -23h487q24 0 31 -13.5t7 -40.5q0 -26 -7 -40t-31 -14h-491zM444 795q-14 -7 -28.5 -10t-46.5 -3
q-20 0 -35 10.5t-15 31.5q0 27 30 43l203 110q14 7 28.5 10t46.5 3q20 0 35 -10.5t15 -32.5q0 -26 -30 -42z" />
    <glyph glyph-name="cacute" unicode="&#x107;" horiz-adv-x="893" 
d="M38 0zM321 0q-283 0 -283 174v217q0 174 283 174h500q23 0 30 -12.5t7 -38.5q0 -25 -7 -37.5t-30 -12.5h-496q-84 0 -122 -21t-38 -52v-217q0 -30 38 -51.5t122 -21.5h499q23 0 29.5 -12.5t6.5 -37.5t-6.5 -38t-29.5 -13h-503zM442 635q-14 -7 -28.5 -10t-46.5 -3
q-20 0 -35 10.5t-15 31.5q0 27 30 43l203 110q14 7 28.5 10t46.5 3q20 0 35 -10.5t15 -32.5q0 -26 -30 -42z" />
    <glyph glyph-name="Cdotaccent" unicode="&#x10a;" horiz-adv-x="896" 
d="M38 0zM334 0q-296 0 -296 186v353q0 186 296 186h490q24 0 31.5 -13.5t7.5 -40.5t-7.5 -40.5t-31.5 -13.5h-486q-88 0 -128 -22.5t-40 -55.5v-353q0 -32 40 -55t128 -23h487q24 0 31 -13.5t7 -40.5q0 -26 -7 -40t-31 -14h-491zM369 857q0 32 18.5 47t60.5 15t60.5 -15
t18.5 -47t-18.5 -47t-60.5 -15t-60.5 15t-18.5 47z" />
    <glyph glyph-name="cdotaccent" unicode="&#x10b;" horiz-adv-x="893" 
d="M38 0zM321 0q-283 0 -283 174v217q0 174 283 174h500q23 0 30 -12.5t7 -38.5q0 -25 -7 -37.5t-30 -12.5h-496q-84 0 -122 -21t-38 -52v-217q0 -30 38 -51.5t122 -21.5h499q23 0 29.5 -12.5t6.5 -37.5t-6.5 -38t-29.5 -13h-503zM367 697q0 32 18.5 47t60.5 15t60.5 -15
t18.5 -47t-18.5 -47t-60.5 -15t-60.5 15t-18.5 47z" />
    <glyph glyph-name="Ccaron" unicode="&#x10c;" horiz-adv-x="896" 
d="M38 0zM334 0q-296 0 -296 186v353q0 186 296 186h490q24 0 31.5 -13.5t7.5 -40.5t-7.5 -40.5t-31.5 -13.5h-486q-88 0 -128 -22.5t-40 -55.5v-353q0 -32 40 -55t128 -23h487q24 0 31 -13.5t7 -40.5q0 -26 -7 -40t-31 -14h-491zM511 970q9 11 24.5 15.5t30.5 4.5
q26 0 45 -9.5t19 -25.5q0 -10 -8 -19l-110 -130q-10 -12 -25 -18t-39 -6t-39 6t-25 18l-110 130q-8 9 -8 19q0 16 19 25.5t45 9.5q15 0 30.5 -4.5t24.5 -15.5l63 -77z" />
    <glyph glyph-name="ccaron" unicode="&#x10d;" horiz-adv-x="893" 
d="M38 0zM321 0q-283 0 -283 174v217q0 174 283 174h500q23 0 30 -12.5t7 -38.5q0 -25 -7 -37.5t-30 -12.5h-496q-84 0 -122 -21t-38 -52v-217q0 -30 38 -51.5t122 -21.5h499q23 0 29.5 -12.5t6.5 -37.5t-6.5 -38t-29.5 -13h-503zM509 810q9 11 24.5 15.5t30.5 4.5
q26 0 45 -9.5t19 -25.5q0 -10 -8 -19l-110 -130q-10 -12 -25 -18t-39 -6t-39 6t-25 18l-110 130q-8 9 -8 19q0 16 19 25.5t45 9.5q15 0 30.5 -4.5t24.5 -15.5l63 -77z" />
    <glyph glyph-name="Dcaron" unicode="&#x10e;" horiz-adv-x="994" 
d="M47 0zM956 186q0 -186 -296 -186h-567q-46 0 -46 47v632q0 46 46 46h567q296 0 296 -186v-353zM180 108h476q88 0 128.5 23t40.5 55v353q0 33 -40.5 55.5t-128.5 22.5h-476v-509zM560 970q9 11 24.5 15.5t30.5 4.5q26 0 45 -9.5t19 -25.5q0 -10 -8 -19l-110 -130
q-10 -12 -25 -18t-39 -6t-39 6t-25 18l-110 130q-8 9 -8 19q0 16 19 25.5t45 9.5q15 0 30.5 -4.5t24.5 -15.5l63 -77z" />
    <glyph glyph-name="dcaron" unicode="&#x10f;" horiz-adv-x="1039" 
d="M38 0zM717 682q0 29 16 38t48 9t47.5 -9t15.5 -38v-508q0 -174 -283 -174h-240q-283 0 -283 174v217q0 174 283 174h396v117zM325 464q-84 0 -122 -21t-38 -52v-217q0 -30 38 -51.5t122 -21.5h232q84 0 122 21.5t38 51.5v290h-392zM1021 633q-4 -23 -19 -31.5t-49 -8.5
q-35 0 -50.5 8t-15.5 28q0 6 1 14.5t3 17.5l15 88q4 23 19 31.5t50 8.5t49.5 -8t14.5 -31q0 -5 -0.5 -11.5t-1.5 -11.5z" />
    <glyph glyph-name="Dcroat" unicode="&#x110;" horiz-adv-x="1035" 
d="M10 0zM997 186q0 -186 -296 -186h-567q-46 0 -46 47v256h-39q-24 0 -31.5 13.5t-7.5 40.5t7.5 40.5t31.5 13.5h39v268q0 46 46 46h567q296 0 296 -186v-353zM221 303v-195h476q88 0 128.5 23t40.5 55v353q0 33 -40.5 55.5t-128.5 22.5h-476v-206h409q24 0 31.5 -13.5
t7.5 -40.5t-7.5 -40.5t-31.5 -13.5h-409z" />
    <glyph glyph-name="dmacron" unicode="&#x111;" horiz-adv-x="887" 
d="M811 748q20 0 26.5 -11.5t6.5 -34.5v-528q0 -174 -283 -174h-240q-283 0 -283 174v217q0 174 283 174h396v91h-285q-21 0 -27 11.5t-6 34.5t6 34.5t27 11.5h379zM325 464q-84 0 -122 -21t-38 -52v-217q0 -30 38 -51.5t122 -21.5h232q84 0 122 21.5t38 51.5v290h-392z" />
    <glyph glyph-name="Emacron" unicode="&#x112;" horiz-adv-x="892" 
d="M38 0zM170 303v-117q0 -32 40 -55t128 -23h478q24 0 31.5 -13.5t7.5 -40.5q0 -26 -7.5 -40t-31.5 -14h-482q-296 0 -296 186v353q0 186 296 186h149q23 0 30.5 -13.5t7.5 -40.5t-7.5 -40.5t-30.5 -13.5h-145q-88 0 -128 -22.5t-40 -55.5v-128h649q24 0 31.5 -13.5
t7.5 -40.5t-7.5 -40.5t-31.5 -13.5h-649zM605 908q20 0 26.5 -11.5t6.5 -34.5t-6.5 -34.5t-26.5 -11.5h-379q-21 0 -27 11.5t-6 34.5t6 34.5t27 11.5h379z" />
    <glyph glyph-name="emacron" unicode="&#x113;" 
d="M38 0zM165 225v-51q0 -30 38 -51.5t122 -21.5h115q23 0 29.5 -12.5t6.5 -37.5t-6.5 -38t-29.5 -13h-119q-283 0 -283 174v217q0 174 283 174h231q150 0 216.5 -43t66.5 -131v-115q0 -29 -11 -40t-49 -11h-610zM165 324h543v67q0 35 -37.5 54t-122.5 19h-223
q-84 0 -122 -21t-38 -52v-67zM622 748q20 0 26.5 -11.5t6.5 -34.5t-6.5 -34.5t-26.5 -11.5h-379q-21 0 -27 11.5t-6 34.5t6 34.5t27 11.5h379z" />
    <glyph glyph-name="Ebreve" unicode="&#x114;" horiz-adv-x="892" 
d="M38 0zM170 303v-117q0 -32 40 -55t128 -23h478q24 0 31.5 -13.5t7.5 -40.5q0 -26 -7.5 -40t-31.5 -14h-482q-296 0 -296 186v353q0 186 296 186h149q23 0 30.5 -13.5t7.5 -40.5t-7.5 -40.5t-30.5 -13.5h-145q-88 0 -128 -22.5t-40 -55.5v-128h649q24 0 31.5 -13.5
t7.5 -40.5t-7.5 -40.5t-31.5 -13.5h-649zM416 782q-43 0 -84 11t-73.5 32t-52 51t-19.5 68q0 26 13 36t50 10q22 0 37.5 -5t23.5 -22q7 -15 15.5 -30.5t20.5 -28.5t28.5 -21t40.5 -8t40.5 8t28.5 21t20.5 28.5t15.5 30.5q8 17 23.5 22t37.5 5q37 0 50 -10t13 -36
q0 -38 -20 -68t-52 -51t-73 -32t-84 -11z" />
    <glyph glyph-name="ebreve" unicode="&#x115;" 
d="M38 0zM165 225v-51q0 -30 38 -51.5t122 -21.5h115q23 0 29.5 -12.5t6.5 -37.5t-6.5 -38t-29.5 -13h-119q-283 0 -283 174v217q0 174 283 174h231q150 0 216.5 -43t66.5 -131v-115q0 -29 -11 -40t-49 -11h-610zM165 324h543v67q0 35 -37.5 54t-122.5 19h-223
q-84 0 -122 -21t-38 -52v-67zM432 622q-43 0 -84 11t-73.5 32t-52 51t-19.5 68q0 26 13 36t50 10q22 0 37.5 -5t23.5 -22q7 -15 15.5 -30.5t20.5 -28.5t28.5 -21t40.5 -8t40.5 8t28.5 21t20.5 28.5t15.5 30.5q8 17 23.5 22t37.5 5q37 0 50 -10t13 -36q0 -38 -20 -68t-52 -51
t-73 -32t-84 -11z" />
    <glyph glyph-name="Edotaccent" unicode="&#x116;" horiz-adv-x="892" 
d="M38 0zM170 303v-117q0 -32 40 -55t128 -23h478q24 0 31.5 -13.5t7.5 -40.5q0 -26 -7.5 -40t-31.5 -14h-482q-296 0 -296 186v353q0 186 296 186h149q23 0 30.5 -13.5t7.5 -40.5t-7.5 -40.5t-30.5 -13.5h-145q-88 0 -128 -22.5t-40 -55.5v-128h649q24 0 31.5 -13.5
t7.5 -40.5t-7.5 -40.5t-31.5 -13.5h-649zM337 857q0 32 18.5 47t60.5 15t60.5 -15t18.5 -47t-18.5 -47t-60.5 -15t-60.5 15t-18.5 47z" />
    <glyph glyph-name="edotaccent" unicode="&#x117;" 
d="M38 0zM165 225v-51q0 -30 38 -51.5t122 -21.5h115q23 0 29.5 -12.5t6.5 -37.5t-6.5 -38t-29.5 -13h-119q-283 0 -283 174v217q0 174 283 174h231q150 0 216.5 -43t66.5 -131v-115q0 -29 -11 -40t-49 -11h-610zM165 324h543v67q0 35 -37.5 54t-122.5 19h-223
q-84 0 -122 -21t-38 -52v-67zM353 697q0 32 18.5 47t60.5 15t60.5 -15t18.5 -47t-18.5 -47t-60.5 -15t-60.5 15t-18.5 47z" />
    <glyph glyph-name="Eogonek" unicode="&#x118;" horiz-adv-x="892" 
d="M826 -116q21 0 27.5 -11.5t6.5 -34.5t-6.5 -35.5t-27.5 -12.5h-150q-34 0 -56 7.5t-34.5 19t-17.5 25t-5 24.5v24q0 21 8 37t27.5 29t52 23.5t82.5 20.5h-399q-296 0 -296 186v353q0 186 296 186h149q23 0 30.5 -13.5t7.5 -40.5t-7.5 -40.5t-30.5 -13.5h-145
q-88 0 -128 -22.5t-40 -55.5v-128h649q24 0 31.5 -13.5t7.5 -40.5t-7.5 -40.5t-31.5 -13.5h-649v-117q0 -32 40 -55t128 -23h478q23 0 31 -13t8 -37q0 -32 -12.5 -47.5t-43.5 -25.5q-65 -20 -91.5 -32t-26.5 -31v-15q0 -14 5.5 -18.5t21.5 -4.5h118v0z" />
    <glyph glyph-name="eogonek" unicode="&#x119;" 
d="M442 -116q21 0 27.5 -11.5t6.5 -34.5t-6.5 -35.5t-27.5 -12.5h-150q-34 0 -56 7.5t-34.5 19t-17.5 25t-5 24.5v24q0 21 8 37t27.5 29t52 23.5t82.5 20.5h-28q-283 0 -283 174v217q0 174 283 174h231q150 0 216.5 -43t66.5 -131v-115q0 -29 -11 -40t-49 -11h-610v-51
q0 -30 38 -51.5t122 -21.5h115q22 0 29 -12t7 -35q0 -17 -3 -28t-10.5 -18.5t-19 -12.5t-28.5 -10q-65 -21 -91.5 -33t-26.5 -30v-15q0 -14 5.5 -18.5t21.5 -4.5h118zM165 324h543v67q0 35 -37.5 54t-122.5 19h-223q-84 0 -122 -21t-38 -52v-67z" />
    <glyph glyph-name="Ecaron" unicode="&#x11a;" horiz-adv-x="892" 
d="M38 0zM170 303v-117q0 -32 40 -55t128 -23h478q24 0 31.5 -13.5t7.5 -40.5q0 -26 -7.5 -40t-31.5 -14h-482q-296 0 -296 186v353q0 186 296 186h149q23 0 30.5 -13.5t7.5 -40.5t-7.5 -40.5t-30.5 -13.5h-145q-88 0 -128 -22.5t-40 -55.5v-128h649q24 0 31.5 -13.5
t7.5 -40.5t-7.5 -40.5t-31.5 -13.5h-649zM479 970q9 11 24.5 15.5t30.5 4.5q26 0 45 -9.5t19 -25.5q0 -10 -8 -19l-110 -130q-10 -12 -25 -18t-39 -6t-39 6t-25 18l-110 130q-8 9 -8 19q0 16 19 25.5t45 9.5q15 0 30.5 -4.5t24.5 -15.5l63 -77z" />
    <glyph glyph-name="ecaron" unicode="&#x11b;" 
d="M38 0zM165 225v-51q0 -30 38 -51.5t122 -21.5h115q23 0 29.5 -12.5t6.5 -37.5t-6.5 -38t-29.5 -13h-119q-283 0 -283 174v217q0 174 283 174h231q150 0 216.5 -43t66.5 -131v-115q0 -29 -11 -40t-49 -11h-610zM165 324h543v67q0 35 -37.5 54t-122.5 19h-223
q-84 0 -122 -21t-38 -52v-67zM495 810q9 11 24.5 15.5t30.5 4.5q26 0 45 -9.5t19 -25.5q0 -10 -8 -19l-110 -130q-10 -12 -25 -18t-39 -6t-39 6t-25 18l-110 130q-8 9 -8 19q0 16 19 25.5t45 9.5q15 0 30.5 -4.5t24.5 -15.5l63 -77z" />
    <glyph glyph-name="Gbreve" unicode="&#x11e;" horiz-adv-x="970" 
d="M38 0zM934 186q0 -96 -75.5 -141t-221.5 -45h-303q-296 0 -296 186v353q0 186 296 186h141q24 0 31.5 -13.5t7.5 -40.5t-7.5 -40.5t-31.5 -13.5h-137q-88 0 -128 -22.5t-40 -55.5v-353q0 -32 40 -55t128 -23h295q88 0 127.5 23t39.5 55v178q0 29 16.5 38t49.5 9t50.5 -9
t17.5 -38v-178zM455 782q-43 0 -84 11t-73.5 32t-52 51t-19.5 68q0 26 13 36t50 10q22 0 37.5 -5t23.5 -22q7 -15 15.5 -30.5t20.5 -28.5t28.5 -21t40.5 -8t40.5 8t28.5 21t20.5 28.5t15.5 30.5q8 17 23.5 22t37.5 5q37 0 50 -10t13 -36q0 -38 -20 -68t-52 -51t-73 -32
t-84 -11z" />
    <glyph glyph-name="gbreve" unicode="&#x11f;" horiz-adv-x="876" 
d="M38 0zM436 -164q-23 0 -29.5 13t-6.5 38t6.5 37.5t29.5 12.5h138q74 0 103 18.5t29 53.5v5h-385q-283 0 -283 174v203q0 174 283 174h229q283 0 283 -174v-382q0 -87 -66.5 -130t-192.5 -43h-138zM706 113v278q0 30 -38 51.5t-122 21.5h-221q-84 0 -122 -21.5t-38 -51.5
v-205q0 -31 38 -52t122 -21h381zM438 622q-43 0 -84 11t-73.5 32t-52 51t-19.5 68q0 26 13 36t50 10q22 0 37.5 -5t23.5 -22q7 -15 15.5 -30.5t20.5 -28.5t28.5 -21t40.5 -8t40.5 8t28.5 21t20.5 28.5t15.5 30.5q8 17 23.5 22t37.5 5q37 0 50 -10t13 -36q0 -38 -20 -68
t-52 -51t-73 -32t-84 -11z" />
    <glyph glyph-name="Gdotaccent" unicode="&#x120;" horiz-adv-x="970" 
d="M38 0zM934 186q0 -96 -75.5 -141t-221.5 -45h-303q-296 0 -296 186v353q0 186 296 186h141q24 0 31.5 -13.5t7.5 -40.5t-7.5 -40.5t-31.5 -13.5h-137q-88 0 -128 -22.5t-40 -55.5v-353q0 -32 40 -55t128 -23h295q88 0 127.5 23t39.5 55v178q0 29 16.5 38t49.5 9t50.5 -9
t17.5 -38v-178zM376 857q0 32 18.5 47t60.5 15t60.5 -15t18.5 -47t-18.5 -47t-60.5 -15t-60.5 15t-18.5 47z" />
    <glyph glyph-name="gdotaccent" unicode="&#x121;" horiz-adv-x="876" 
d="M38 0zM436 -164q-23 0 -29.5 13t-6.5 38t6.5 37.5t29.5 12.5h138q74 0 103 18.5t29 53.5v5h-385q-283 0 -283 174v203q0 174 283 174h229q283 0 283 -174v-382q0 -87 -66.5 -130t-192.5 -43h-138zM706 113v278q0 30 -38 51.5t-122 21.5h-221q-84 0 -122 -21.5t-38 -51.5
v-205q0 -31 38 -52t122 -21h381zM359 697q0 32 18.5 47t60.5 15t60.5 -15t18.5 -47t-18.5 -47t-60.5 -15t-60.5 15t-18.5 47z" />
    <glyph glyph-name="Gcommaaccent" unicode="&#x122;" horiz-adv-x="970" 
d="M38 0zM934 186q0 -96 -75.5 -141t-221.5 -45h-303q-296 0 -296 186v353q0 186 296 186h141q24 0 31.5 -13.5t7.5 -40.5t-7.5 -40.5t-31.5 -13.5h-137q-88 0 -128 -22.5t-40 -55.5v-353q0 -32 40 -55t128 -23h295q88 0 127.5 23t39.5 55v178q0 29 16.5 38t49.5 9t50.5 -9
t17.5 -38v-178zM543 -170q-4 -23 -19 -31.5t-49 -8.5q-35 0 -50.5 8t-15.5 28q0 6 1 14.5t3 17.5l15 88q4 23 19 31.5t50 8.5t49.5 -8t14.5 -31q0 -5 -0.5 -11.5t-1.5 -11.5z" />
    <glyph glyph-name="gcommaaccent" unicode="&#x123;" horiz-adv-x="876" 
d="M38 0zM436 -164q-23 0 -29.5 13t-6.5 38t6.5 37.5t29.5 12.5h138q74 0 103 18.5t29 53.5v5h-385q-283 0 -283 174v203q0 174 283 174h229q283 0 283 -174v-382q0 -87 -66.5 -130t-192.5 -43h-138zM706 113v278q0 30 -38 51.5t-122 21.5h-221q-84 0 -122 -21.5t-38 -51.5
v-205q0 -31 38 -52t122 -21h381zM531 633q-4 -23 -19 -31.5t-49 -8.5q-35 0 -50.5 8t-15.5 28q0 6 1 14.5t3 17.5l15 88q4 23 19 31.5t50 8.5t49.5 -8t14.5 -31q0 -5 -0.5 -11.5t-1.5 -11.5z" />
    <glyph glyph-name="Hbar" unicode="&#x126;" horiz-adv-x="1004" 
d="M180 617h644v65q0 29 17 38t50 9q32 0 49 -9t17 -38v-639q0 -29 -17 -38t-49 -9q-33 0 -50 9t-17 38v260h-644v-260q0 -29 -17 -38t-50 -9q-32 0 -49 9t-17 38v639q0 29 17 38t49 9q33 0 50 -9t17 -38v-65zM824 411v114h-644v-114h644z" />
    <glyph glyph-name="hbar" unicode="&#x127;" horiz-adv-x="884" 
d="M459 748q20 0 26.5 -11.5t6.5 -34.5t-6.5 -34.5t-26.5 -11.5h-285v-91h384q283 0 283 -174v-348q0 -29 -16 -38t-48 -9t-47.5 9t-15.5 38v348q0 31 -38 52t-122 21h-380v-421q0 -29 -16 -38t-48 -9t-47.5 9t-15.5 38v659q0 23 6 34.5t27 11.5h379z" />
    <glyph glyph-name="Imacron" unicode="&#x12a;" horiz-adv-x="333" 
d="M0 0zM233 43q0 -29 -17 -38t-50 -9q-32 0 -49 9t-17 38v639q0 29 17 38t49 9q33 0 50 -9t17 -38v-639zM356 908q20 0 26.5 -11.5t6.5 -34.5t-6.5 -34.5t-26.5 -11.5h-379q-21 0 -27 11.5t-6 34.5t6 34.5t27 11.5h379z" />
    <glyph glyph-name="imacron" unicode="&#x12b;" horiz-adv-x="435" 
d="M0 0zM281 43q0 -29 -16 -38t-48 -9t-47.5 9t-15.5 38v479q0 29 15.5 38t47.5 9t48 -9t16 -38v-479zM407 748q20 0 26.5 -11.5t6.5 -34.5t-6.5 -34.5t-26.5 -11.5h-379q-21 0 -27 11.5t-6 34.5t6 34.5t27 11.5h379z" />
    <glyph glyph-name="Ibreve" unicode="&#x12c;" horiz-adv-x="349" 
d="M0 0zM241 43q0 -29 -17 -38t-50 -9q-32 0 -49 9t-17 38v639q0 29 17 38t49 9q33 0 50 -9t17 -38v-639zM175 782q-43 0 -84 11t-73.5 32t-52 51t-19.5 68q0 26 13 36t50 10q22 0 37.5 -5t23.5 -22q7 -15 15.5 -30.5t20.5 -28.5t28.5 -21t40.5 -8t40.5 8t28.5 21t20.5 28.5
t15.5 30.5q8 17 23.5 22t37.5 5q37 0 50 -10t13 -36q0 -38 -20 -68t-52 -51t-73 -32t-84 -11z" />
    <glyph glyph-name="ibreve" unicode="&#x12d;" horiz-adv-x="445" 
d="M0 0zM286 43q0 -29 -16 -38t-48 -9t-47.5 9t-15.5 38v479q0 29 15.5 38t47.5 9t48 -9t16 -38v-479zM223 622q-43 0 -84 11t-73.5 32t-52 51t-19.5 68q0 26 13 36t50 10q22 0 37.5 -5t23.5 -22q7 -15 15.5 -30.5t20.5 -28.5t28.5 -21t40.5 -8t40.5 8t28.5 21t20.5 28.5
t15.5 30.5q8 17 23.5 22t37.5 5q37 0 50 -10t13 -36q0 -38 -20 -68t-52 -51t-73 -32t-84 -11z" />
    <glyph glyph-name="Iogonek" unicode="&#x12e;" horiz-adv-x="288" 
d="M211 -116q21 0 27.5 -11.5t6.5 -34.5t-6.5 -35.5t-27.5 -12.5h-150q-34 0 -56 7.5t-34.5 19t-17.5 25t-5 24.5v24q0 21 8 37t28.5 29.5t55 24.5t88.5 22q-20 12 -20 40v639q0 29 17 38t49 9q33 0 50 -9t17 -38v-639q0 -26 -18 -38.5t-39 -19.5q-65 -20 -91.5 -32
t-26.5 -31v-15q0 -14 5.5 -18.5t21.5 -4.5h118v0z" />
    <glyph glyph-name="iogonek" unicode="&#x12f;" horiz-adv-x="288" 
d="M212 -116q21 0 27.5 -11.5t6.5 -34.5t-6.5 -35.5t-27.5 -12.5h-150q-34 0 -56 7.5t-34.5 19t-17.5 25t-5 24.5v24q0 21 8 37t28.5 29.5t56 24.5t89.5 22q-17 10 -17 40v472q0 29 15.5 38t47.5 9t48 -9t16 -38v-472q0 -26 -17.5 -38.5t-38.5 -19.5q-65 -20 -91.5 -32
t-26.5 -31v-15q0 -14 5.5 -18.5t21.5 -4.5h118zM98 667q0 32 18.5 47t60.5 15t60.5 -15t18.5 -47t-18.5 -47t-60.5 -15t-60.5 15t-18.5 47z" />
    <glyph glyph-name="Idotaccent" unicode="&#x130;" horiz-adv-x="227" 
d="M35 0zM180 43q0 -29 -17 -38t-50 -9q-32 0 -49 9t-17 38v639q0 29 17 38t49 9q33 0 50 -9t17 -38v-639zM35 857q0 32 18.5 47t60.5 15t60.5 -15t18.5 -47t-18.5 -47t-60.5 -15t-60.5 15t-18.5 47z" />
    <glyph glyph-name="dotlessi" unicode="&#x131;" horiz-adv-x="221" 
d="M174 43q0 -29 -16 -38t-48 -9t-47.5 9t-15.5 38v479q0 29 15.5 38t47.5 9t48 -9t16 -38v-479z" />
    <glyph glyph-name="IJ" unicode="&#x132;" horiz-adv-x="450" 
d="M180 71q0 -29 -17 -38t-50 -9q-32 0 -49 9t-17 38v611q0 29 17 38t49 9q33 0 50 -9t17 -38v-611zM85 -164q-24 0 -31 14t-7 41q0 26 7 39.5t31 13.5h22q88 0 127.5 23t39.5 55v660q0 29 17 38t50 9q32 0 49 -9t17 -38v-660q0 -186 -297 -186h-25z" />
    <glyph glyph-name="ij" unicode="&#x133;" horiz-adv-x="459" 
d="M31 0zM174 43q0 -29 -16 -38t-48 -9t-47.5 9t-15.5 38v472q0 29 15.5 38t47.5 9t48 -9t16 -38v-472zM31 667q0 32 18.5 47t60.5 15t60.5 -15t18.5 -47t-18.5 -47t-60.5 -15t-60.5 15t-18.5 47zM269 667q0 32 18.5 47t60.5 15t60.5 -15t18.5 -47t-18.5 -47t-60.5 -15
t-60.5 15t-18.5 47zM71 -164q-23 0 -29.5 13t-6.5 38t6.5 37.5t29.5 12.5h82q74 0 103 18.5t29 53.5v506q0 29 16 38t48 9t47.5 -9t15.5 -38v-506q0 -87 -66.5 -130t-192.5 -43h-82z" />
    <glyph glyph-name="Kcommaaccent" unicode="&#x136;" horiz-adv-x="879" 
d="M47 0zM180 431l527 284q14 8 30.5 11t50.5 3q22 0 38 -11.5t16 -34.5q0 -30 -32 -46l-534 -269l552 -280q32 -16 32 -46q0 -23 -16 -34.5t-38 -11.5q-34 0 -50.5 3t-30.5 11l-545 289v-256q0 -29 -17 -38t-50 -9q-32 0 -49 9t-17 38v639q0 29 17 38t49 9q33 0 50 -9
t17 -38v-251zM467 -170q-4 -23 -19 -31.5t-49 -8.5q-35 0 -50.5 8t-15.5 28q0 6 1 14.5t3 17.5l15 88q4 23 19 31.5t50 8.5t49.5 -8t14.5 -31q0 -5 -0.5 -11.5t-1.5 -11.5z" />
    <glyph glyph-name="kcommaaccent" unicode="&#x137;" horiz-adv-x="737" 
d="M47 0zM174 342l410 216q13 7 29.5 9t47.5 2q20 0 34.5 -9t14.5 -28q0 -14 -8 -22t-20 -14l-402 -211l409 -207q29 -15 29 -42q0 -22 -17.5 -31t-52.5 -9q-32 0 -50.5 5t-26.5 10l-397 210v-178q0 -29 -16 -38t-48 -9t-47.5 9t-15.5 38v639q0 29 15.5 38t47.5 9t48 -9
t16 -38v-340zM396 -170q-4 -23 -19 -31.5t-49 -8.5q-35 0 -50.5 8t-15.5 28q0 6 1 14.5t3 17.5l15 88q4 23 19 31.5t50 8.5t49.5 -8t14.5 -31q0 -5 -0.5 -11.5t-1.5 -11.5z" />
    <glyph glyph-name="Lacute" unicode="&#x139;" horiz-adv-x="883" 
d="M43 0zM339 0q-296 0 -296 186v496q0 29 17 38t49 9q33 0 50 -9t17 -38v-496q0 -32 39.5 -55t127.5 -23h490q24 0 31 -13.5t7 -39.5q0 -27 -7 -41t-31 -14h-494zM237 795q-14 -7 -28.5 -10t-46.5 -3q-20 0 -35 10.5t-15 31.5q0 27 30 43l203 110q14 7 28.5 10t46.5 3
q20 0 35 -10.5t15 -32.5q0 -26 -30 -42z" />
    <glyph glyph-name="lacute" unicode="&#x13a;" horiz-adv-x="221" 
d="M0 0zM174 43q0 -29 -16 -38t-48 -9t-47.5 9t-15.5 38v639q0 29 15.5 38t47.5 9t48 -9t16 -38v-639zM107 795q-14 -7 -28.5 -10t-46.5 -3q-20 0 -35 10.5t-15 31.5q0 27 30 43l203 110q14 7 28.5 10t46.5 3q20 0 35 -10.5t15 -32.5q0 -26 -30 -42z" />
    <glyph glyph-name="Lcommaaccent" unicode="&#x13b;" horiz-adv-x="883" 
d="M43 0zM339 0q-296 0 -296 186v496q0 29 17 38t49 9q33 0 50 -9t17 -38v-496q0 -32 39.5 -55t127.5 -23h490q24 0 31 -13.5t7 -39.5q0 -27 -7 -41t-31 -14h-494zM499 -170q-4 -23 -19 -31.5t-49 -8.5q-35 0 -50.5 8t-15.5 28q0 6 1 14.5t3 17.5l15 88q4 23 19 31.5t50 8.5
t49.5 -8t14.5 -31q0 -5 -0.5 -11.5t-1.5 -11.5z" />
    <glyph glyph-name="lcommaaccent" unicode="&#x13c;" horiz-adv-x="221" 
d="M35 0zM174 43q0 -29 -16 -38t-48 -9t-47.5 9t-15.5 38v639q0 29 15.5 38t47.5 9t48 -9t16 -38v-639zM169 -170q-4 -23 -19 -31.5t-49 -8.5q-35 0 -50.5 8t-15.5 28q0 6 1 14.5t3 17.5l15 88q4 23 19 31.5t50 8.5t49.5 -8t14.5 -31q0 -5 -0.5 -11.5t-1.5 -11.5z" />
    <glyph glyph-name="Lcaron" unicode="&#x13d;" horiz-adv-x="883" 
d="M43 0zM339 0q-296 0 -296 186v496q0 29 17 38t49 9q33 0 50 -9t17 -38v-496q0 -32 39.5 -55t127.5 -23h490q24 0 31 -13.5t7 -39.5q0 -27 -7 -41t-31 -14h-494zM491 633q-4 -23 -19 -31.5t-49 -8.5q-35 0 -50.5 8t-15.5 28q0 6 1 14.5t3 17.5l15 88q4 23 19 31.5t50 8.5
t49.5 -8t14.5 -31q0 -5 -0.5 -11.5t-1.5 -11.5z" />
    <glyph glyph-name="lcaron" unicode="&#x13e;" horiz-adv-x="373" 
d="M47 0zM174 43q0 -29 -16 -38t-48 -9t-47.5 9t-15.5 38v639q0 29 15.5 38t47.5 9t48 -9t16 -38v-639zM355 633q-4 -23 -19 -31.5t-49 -8.5q-35 0 -50.5 8t-15.5 28q0 6 1 14.5t3 17.5l15 88q4 23 19 31.5t50 8.5t49.5 -8t14.5 -31q0 -5 -0.5 -11.5t-1.5 -11.5z" />
    <glyph glyph-name="Ldot" unicode="&#x13f;" horiz-adv-x="883" 
d="M43 0zM339 0q-296 0 -296 186v496q0 29 17 38t49 9q33 0 50 -9t17 -38v-496q0 -32 39.5 -55t127.5 -23h490q24 0 31 -13.5t7 -39.5q0 -27 -7 -41t-31 -14h-494zM287 382q0 32 18.5 47t60.5 15t60.5 -15t18.5 -47t-18.5 -47t-60.5 -15t-60.5 15t-18.5 47z" />
    <glyph glyph-name="ldot" unicode="&#x140;" horiz-adv-x="360" 
d="M47 0zM174 43q0 -29 -16 -38t-48 -9t-47.5 9t-15.5 38v639q0 29 15.5 38t47.5 9t48 -9t16 -38v-639zM207 382q0 32 18.5 47t60.5 15t60.5 -15t18.5 -47t-18.5 -47t-60.5 -15t-60.5 15t-18.5 47z" />
    <glyph glyph-name="Lslash" unicode="&#x141;" horiz-adv-x="922" 
d="M82 471v211q0 29 17 38t49 9q33 0 50 -9t17 -38v-155l230 96q11 5 26 8t41 3q21 0 33.5 -9t12.5 -26q0 -26 -25 -36l-318 -133v-244q0 -32 39.5 -55t127.5 -23h490q24 0 31 -13.5t7 -39.5q0 -27 -7 -41t-31 -14h-494q-296 0 -296 186v194q-8 -2 -15.5 -2h-18.5
q-20 0 -32.5 9t-12.5 26q0 26 25 36z" />
    <glyph glyph-name="lslash" unicode="&#x142;" horiz-adv-x="442" 
d="M157 497v185q0 29 15.5 38t47.5 9t48 -9t16 -38v-132l38 16q11 5 26 8t41 3q21 0 33.5 -9t12.5 -26q0 -26 -25 -36l-126 -53v-410q0 -29 -16 -38t-48 -9t-47.5 9t-15.5 38v357l-37 -15q-11 -5 -26.5 -8t-41.5 -3q-20 0 -32.5 9t-12.5 26q0 26 25 36z" />
    <glyph glyph-name="Nacute" unicode="&#x143;" horiz-adv-x="997" 
d="M47 0zM881 -4q-14 0 -23 1t-17 5t-17 10.5t-22 17.5l-622 524v-511q0 -29 -17 -38t-50 -9q-32 0 -49 9t-17 38v639q0 28 16 37.5t47 9.5q33 0 52 -8.5t42 -28.5l613 -522v512q0 29 17 38t49 9q33 0 50 -9t17 -38v-639q0 -29 -17 -38t-52 -9zM494 795q-14 -7 -28.5 -10
t-46.5 -3q-20 0 -35 10.5t-15 31.5q0 27 30 43l203 110q14 7 28.5 10t46.5 3q20 0 35 -10.5t15 -32.5q0 -26 -30 -42z" />
    <glyph glyph-name="nacute" unicode="&#x144;" horiz-adv-x="870" 
d="M43 0zM106 -4q-32 0 -47.5 9t-15.5 38v348q0 174 283 174h218q283 0 283 -174v-348q0 -29 -16 -38t-48 -9t-47.5 9t-15.5 38v348q0 31 -38 52t-122 21h-210q-84 0 -122 -21t-38 -52v-348q0 -29 -16 -38t-48 -9zM431 635q-14 -7 -28.5 -10t-46.5 -3q-20 0 -35 10.5
t-15 31.5q0 27 30 43l203 110q14 7 28.5 10t46.5 3q20 0 35 -10.5t15 -32.5q0 -26 -30 -42z" />
    <glyph glyph-name="Ncommaaccent" unicode="&#x145;" horiz-adv-x="997" 
d="M47 0zM881 -4q-14 0 -23 1t-17 5t-17 10.5t-22 17.5l-622 524v-511q0 -29 -17 -38t-50 -9q-32 0 -49 9t-17 38v639q0 28 16 37.5t47 9.5q33 0 52 -8.5t42 -28.5l613 -522v512q0 29 17 38t49 9q33 0 50 -9t17 -38v-639q0 -29 -17 -38t-52 -9zM556 -170q-4 -23 -19 -31.5
t-49 -8.5q-35 0 -50.5 8t-15.5 28q0 6 1 14.5t3 17.5l15 88q4 23 19 31.5t50 8.5t49.5 -8t14.5 -31q0 -5 -0.5 -11.5t-1.5 -11.5z" />
    <glyph glyph-name="ncommaaccent" unicode="&#x146;" horiz-adv-x="870" 
d="M43 0zM106 -4q-32 0 -47.5 9t-15.5 38v348q0 174 283 174h218q283 0 283 -174v-348q0 -29 -16 -38t-48 -9t-47.5 9t-15.5 38v348q0 31 -38 52t-122 21h-210q-84 0 -122 -21t-38 -52v-348q0 -29 -16 -38t-48 -9zM493 -170q-4 -23 -19 -31.5t-49 -8.5q-35 0 -50.5 8
t-15.5 28q0 6 1 14.5t3 17.5l15 88q4 23 19 31.5t50 8.5t49.5 -8t14.5 -31q0 -5 -0.5 -11.5t-1.5 -11.5z" />
    <glyph glyph-name="Ncaron" unicode="&#x147;" horiz-adv-x="997" 
d="M47 0zM881 -4q-14 0 -23 1t-17 5t-17 10.5t-22 17.5l-622 524v-511q0 -29 -17 -38t-50 -9q-32 0 -49 9t-17 38v639q0 28 16 37.5t47 9.5q33 0 52 -8.5t42 -28.5l613 -522v512q0 29 17 38t49 9q33 0 50 -9t17 -38v-639q0 -29 -17 -38t-52 -9zM561 970q9 11 24.5 15.5
t30.5 4.5q26 0 45 -9.5t19 -25.5q0 -10 -8 -19l-110 -130q-10 -12 -25 -18t-39 -6t-39 6t-25 18l-110 130q-8 9 -8 19q0 16 19 25.5t45 9.5q15 0 30.5 -4.5t24.5 -15.5l63 -77z" />
    <glyph glyph-name="ncaron" unicode="&#x148;" horiz-adv-x="870" 
d="M43 0zM106 -4q-32 0 -47.5 9t-15.5 38v348q0 174 283 174h218q283 0 283 -174v-348q0 -29 -16 -38t-48 -9t-47.5 9t-15.5 38v348q0 31 -38 52t-122 21h-210q-84 0 -122 -21t-38 -52v-348q0 -29 -16 -38t-48 -9zM498 810q9 11 24.5 15.5t30.5 4.5q26 0 45 -9.5t19 -25.5
q0 -10 -8 -19l-110 -130q-10 -12 -25 -18t-39 -6t-39 6t-25 18l-110 130q-8 9 -8 19q0 16 19 25.5t45 9.5q15 0 30.5 -4.5t24.5 -15.5l63 -77z" />
    <glyph glyph-name="Eng" unicode="&#x14a;" horiz-adv-x="997" 
d="M603 -164q-23 0 -29.5 13t-6.5 38t6.5 37.5t29.5 12.5h82q74 0 103 18.5t29 53.5v9l-637 536v-511q0 -29 -17 -38t-50 -9q-32 0 -49 9t-17 38v639q0 28 16 37.5t47 9.5q33 0 52 -8.5t42 -28.5l613 -522v512q0 29 17 38t49 9q33 0 50 -9t17 -38v-673q0 -87 -69.5 -130
t-195.5 -43h-82z" />
    <glyph glyph-name="eng" unicode="&#x14b;" horiz-adv-x="870" 
d="M486 -164q-23 0 -29.5 13t-6.5 38t6.5 37.5t29.5 12.5h82q74 0 103 18.5t29 53.5v382q0 31 -38 52t-122 21h-210q-84 0 -122 -21t-38 -52v-348q0 -29 -16 -38t-48 -9t-47.5 9t-15.5 38v348q0 174 283 174h218q283 0 283 -174v-382q0 -87 -66.5 -130t-192.5 -43h-82z" />
    <glyph glyph-name="Omacron" unicode="&#x14c;" horiz-adv-x="959" 
d="M38 0zM334 0q-296 0 -296 186v353q0 186 296 186h291q296 0 296 -186v-353q0 -186 -296 -186h-291zM621 108q88 0 128 23t40 55v353q0 33 -40 55.5t-128 22.5h-283q-88 0 -128 -22.5t-40 -55.5v-353q0 -32 40 -55t128 -23h283zM669 908q20 0 26.5 -11.5t6.5 -34.5
t-6.5 -34.5t-26.5 -11.5h-379q-21 0 -27 11.5t-6 34.5t6 34.5t27 11.5h379z" />
    <glyph glyph-name="omacron" unicode="&#x14d;" horiz-adv-x="860" 
d="M38 0zM38 391q0 174 283 174h218q283 0 283 -174v-217q0 -174 -283 -174h-218q-283 0 -283 174v217zM695 391q0 31 -38 52t-122 21h-210q-84 0 -122 -21t-38 -52v-217q0 -30 38 -51.5t122 -21.5h210q84 0 122 21.5t38 51.5v217zM619 748q20 0 26.5 -11.5t6.5 -34.5
t-6.5 -34.5t-26.5 -11.5h-379q-21 0 -27 11.5t-6 34.5t6 34.5t27 11.5h379z" />
    <glyph glyph-name="Obreve" unicode="&#x14e;" horiz-adv-x="959" 
d="M38 0zM334 0q-296 0 -296 186v353q0 186 296 186h291q296 0 296 -186v-353q0 -186 -296 -186h-291zM621 108q88 0 128 23t40 55v353q0 33 -40 55.5t-128 22.5h-283q-88 0 -128 -22.5t-40 -55.5v-353q0 -32 40 -55t128 -23h283zM479 782q-43 0 -84 11t-73.5 32t-52 51
t-19.5 68q0 26 13 36t50 10q22 0 37.5 -5t23.5 -22q7 -15 15.5 -30.5t20.5 -28.5t28.5 -21t40.5 -8t40.5 8t28.5 21t20.5 28.5t15.5 30.5q8 17 23.5 22t37.5 5q37 0 50 -10t13 -36q0 -38 -20 -68t-52 -51t-73 -32t-84 -11z" />
    <glyph glyph-name="obreve" unicode="&#x14f;" horiz-adv-x="860" 
d="M38 0zM38 391q0 174 283 174h218q283 0 283 -174v-217q0 -174 -283 -174h-218q-283 0 -283 174v217zM695 391q0 31 -38 52t-122 21h-210q-84 0 -122 -21t-38 -52v-217q0 -30 38 -51.5t122 -21.5h210q84 0 122 21.5t38 51.5v217zM430 622q-43 0 -84 11t-73.5 32t-52 51
t-19.5 68q0 26 13 36t50 10q22 0 37.5 -5t23.5 -22q7 -15 15.5 -30.5t20.5 -28.5t28.5 -21t40.5 -8t40.5 8t28.5 21t20.5 28.5t15.5 30.5q8 17 23.5 22t37.5 5q37 0 50 -10t13 -36q0 -38 -20 -68t-52 -51t-73 -32t-84 -11z" />
    <glyph glyph-name="Ohungarumlaut" unicode="&#x150;" horiz-adv-x="959" 
d="M38 0zM334 0q-296 0 -296 186v353q0 186 296 186h291q296 0 296 -186v-353q0 -186 -296 -186h-291zM621 108q88 0 128 23t40 55v353q0 33 -40 55.5t-128 22.5h-283q-88 0 -128 -22.5t-40 -55.5v-353q0 -32 40 -55t128 -23h283zM608 795q-20 -13 -50 -13q-26 0 -37 10.5
t-11 30.5q0 27 24 44l158 110q11 7 25.5 10t26.5 3q46 0 46 -42q0 -27 -23 -43zM366 795q-11 -8 -22.5 -10.5t-36.5 -2.5q-16 0 -27.5 10.5t-11.5 31.5q0 27 23 43l159 110q19 13 50 13q22 0 35 -9t13 -34q0 -14 -5 -23.5t-19 -18.5z" />
    <glyph glyph-name="ohungarumlaut" unicode="&#x151;" horiz-adv-x="860" 
d="M38 0zM38 391q0 174 283 174h218q283 0 283 -174v-217q0 -174 -283 -174h-218q-283 0 -283 174v217zM695 391q0 31 -38 52t-122 21h-210q-84 0 -122 -21t-38 -52v-217q0 -30 38 -51.5t122 -21.5h210q84 0 122 21.5t38 51.5v217zM559 635q-20 -13 -50 -13q-26 0 -37 10.5
t-11 30.5q0 27 24 44l158 110q11 7 25.5 10t26.5 3q46 0 46 -42q0 -27 -23 -43zM317 635q-11 -8 -22.5 -10.5t-36.5 -2.5q-16 0 -27.5 10.5t-11.5 31.5q0 27 23 43l159 110q19 13 50 13q22 0 35 -9t13 -34q0 -14 -5 -23.5t-19 -18.5z" />
    <glyph glyph-name="OE" unicode="&#x152;" horiz-adv-x="1589" 
d="M1051 0q-157 0 -230 52q-73 -52 -230 -52h-257q-296 0 -296 186v353q0 186 296 186h257q157 0 230 -52q73 52 230 52h139q23 0 30.5 -13.5t7.5 -40.5t-7.5 -40.5t-30.5 -13.5h-135q-86 0 -127 -21.5t-41 -53.5v-131h629q24 0 31.5 -13.5t7.5 -40.5t-7.5 -40.5
t-31.5 -13.5h-629v-117q0 -32 40 -55t128 -23h458q24 0 31.5 -13.5t7.5 -40.5q0 -26 -7.5 -40t-31.5 -14h-462zM587 108q88 0 128 23t40 55v353q0 33 -40 55.5t-128 22.5h-249q-88 0 -128 -22.5t-40 -55.5v-353q0 -32 40 -55t128 -23h249z" />
    <glyph glyph-name="oe" unicode="&#x153;" horiz-adv-x="1522" 
d="M822 225v-51q0 -30 38 -51.5t122 -21.5h115q23 0 29.5 -12.5t6.5 -37.5t-6.5 -38t-29.5 -13h-119q-150 0 -220 48q-71 -48 -219 -48h-218q-283 0 -283 174v217q0 174 283 174h218q148 0 219 -48q70 48 220 48h231q150 0 216.5 -43t66.5 -131v-115q0 -29 -11 -40t-49 -11
h-610zM695 391q0 31 -38 52t-122 21h-210q-84 0 -122 -21t-38 -52v-217q0 -30 38 -51.5t122 -21.5h210q84 0 122 21.5t38 51.5v217zM822 324h543v67q0 35 -37.5 54t-122.5 19h-223q-84 0 -122 -21t-38 -52v-67z" />
    <glyph glyph-name="Racute" unicode="&#x154;" horiz-adv-x="985" 
d="M47 0zM47 679q0 46 47 46h562q68 0 122.5 -11.5t92.5 -32.5t58.5 -51t20.5 -67v-126q0 -37 -20.5 -67t-58.5 -51t-92.5 -32.5t-122.5 -11.5h-40h-76.5t-57.5 0.5t-45 1.5t-39 2v-2q16 -6 34.5 -12.5t45.5 -16.5t65.5 -25t95.5 -38l241 -97q32 -13 32 -45q0 -27 -17.5 -37
t-50.5 -10q-7 0 -17.5 0.5t-21.5 2t-21.5 4t-18.5 7.5l-585 253v-220q0 -29 -17 -38t-50 -9q-32 0 -49 9t-17 38v636zM180 617v-236h464q51 0 84.5 5t53.5 13.5t28 20t8 25.5v108q0 13 -8 25t-28 20.5t-53.5 13.5t-84.5 5h-464zM488 795q-14 -7 -28.5 -10t-46.5 -3
q-20 0 -35 10.5t-15 31.5q0 27 30 43l203 110q14 7 28.5 10t46.5 3q20 0 35 -10.5t15 -32.5q0 -26 -30 -42z" />
    <glyph glyph-name="racute" unicode="&#x155;" horiz-adv-x="438" 
d="M43 0zM380 565q23 0 29.5 -13t6.5 -38t-6.5 -37.5t-29.5 -12.5h-78q-74 0 -103 -19t-29 -53v-349q0 -29 -16 -38t-48 -9t-47.5 9t-15.5 38v349q0 87 66.5 130t192.5 43h78zM255 635q-14 -7 -28.5 -10t-46.5 -3q-20 0 -35 10.5t-15 31.5q0 27 30 43l203 110q14 7 28.5 10
t46.5 3q20 0 35 -10.5t15 -32.5q0 -26 -30 -42z" />
    <glyph glyph-name="Rcommaaccent" unicode="&#x156;" horiz-adv-x="985" 
d="M47 0zM47 679q0 46 47 46h562q68 0 122.5 -11.5t92.5 -32.5t58.5 -51t20.5 -67v-126q0 -37 -20.5 -67t-58.5 -51t-92.5 -32.5t-122.5 -11.5h-40h-76.5t-57.5 0.5t-45 1.5t-39 2v-2q16 -6 34.5 -12.5t45.5 -16.5t65.5 -25t95.5 -38l241 -97q32 -13 32 -45q0 -27 -17.5 -37
t-50.5 -10q-7 0 -17.5 0.5t-21.5 2t-21.5 4t-18.5 7.5l-585 253v-220q0 -29 -17 -38t-50 -9q-32 0 -49 9t-17 38v636zM180 617v-236h464q51 0 84.5 5t53.5 13.5t28 20t8 25.5v108q0 13 -8 25t-28 20.5t-53.5 13.5t-84.5 5h-464zM500 -170q-4 -23 -19 -31.5t-49 -8.5
q-35 0 -50.5 8t-15.5 28q0 6 1 14.5t3 17.5l15 88q4 23 19 31.5t50 8.5t49.5 -8t14.5 -31q0 -5 -0.5 -11.5t-1.5 -11.5z" />
    <glyph glyph-name="rcommaaccent" unicode="&#x157;" horiz-adv-x="438" 
d="M11 0zM380 565q23 0 29.5 -13t6.5 -38t-6.5 -37.5t-29.5 -12.5h-78q-74 0 -103 -19t-29 -53v-349q0 -29 -16 -38t-48 -9t-47.5 9t-15.5 38v349q0 87 66.5 130t192.5 43h78zM145 -170q-4 -23 -19 -31.5t-49 -8.5q-35 0 -50.5 8t-15.5 28q0 6 1 14.5t3 17.5l15 88
q4 23 19 31.5t50 8.5t49.5 -8t14.5 -31q0 -5 -0.5 -11.5t-1.5 -11.5z" />
    <glyph glyph-name="Rcaron" unicode="&#x158;" horiz-adv-x="985" 
d="M47 0zM47 679q0 46 47 46h562q68 0 122.5 -11.5t92.5 -32.5t58.5 -51t20.5 -67v-126q0 -37 -20.5 -67t-58.5 -51t-92.5 -32.5t-122.5 -11.5h-40h-76.5t-57.5 0.5t-45 1.5t-39 2v-2q16 -6 34.5 -12.5t45.5 -16.5t65.5 -25t95.5 -38l241 -97q32 -13 32 -45q0 -27 -17.5 -37
t-50.5 -10q-7 0 -17.5 0.5t-21.5 2t-21.5 4t-18.5 7.5l-585 253v-220q0 -29 -17 -38t-50 -9q-32 0 -49 9t-17 38v636zM180 617v-236h464q51 0 84.5 5t53.5 13.5t28 20t8 25.5v108q0 13 -8 25t-28 20.5t-53.5 13.5t-84.5 5h-464zM555 970q9 11 24.5 15.5t30.5 4.5
q26 0 45 -9.5t19 -25.5q0 -10 -8 -19l-110 -130q-10 -12 -25 -18t-39 -6t-39 6t-25 18l-110 130q-8 9 -8 19q0 16 19 25.5t45 9.5q15 0 30.5 -4.5t24.5 -15.5l63 -77z" />
    <glyph glyph-name="rcaron" unicode="&#x159;" horiz-adv-x="438" 
d="M43 0zM380 565q23 0 29.5 -13t6.5 -38t-6.5 -37.5t-29.5 -12.5h-78q-74 0 -103 -19t-29 -53v-349q0 -29 -16 -38t-48 -9t-47.5 9t-15.5 38v349q0 87 66.5 130t192.5 43h78zM322 810q9 11 24.5 15.5t30.5 4.5q26 0 45 -9.5t19 -25.5q0 -10 -8 -19l-110 -130
q-10 -12 -25 -18t-39 -6t-39 6t-25 18l-110 130q-8 9 -8 19q0 16 19 25.5t45 9.5q15 0 30.5 -4.5t24.5 -15.5l63 -77z" />
    <glyph glyph-name="Sacute" unicode="&#x15a;" horiz-adv-x="887" 
d="M34 0zM330 314q-296 0 -296 186v39q0 186 296 186h100q24 0 31.5 -13.5t7.5 -40.5t-7.5 -40.5t-31.5 -13.5h-103q-88 0 -124.5 -22.5t-36.5 -55.5v-39q0 -32 36.5 -55t124.5 -23h236q296 0 296 -186v-50q0 -186 -296 -186h-490q-24 0 -31.5 13.5t-7.5 40.5t7.5 40.5
t31.5 13.5h493q88 0 124.5 22.5t36.5 55.5v50q0 32 -36.5 55t-124.5 23h-236zM389 795q-14 -7 -28.5 -10t-46.5 -3q-20 0 -35 10.5t-15 31.5q0 27 30 43l203 110q14 7 28.5 10t46.5 3q20 0 35 -10.5t15 -32.5q0 -26 -30 -42z" />
    <glyph glyph-name="sacute" unicode="&#x15b;" horiz-adv-x="789" 
d="M34 0zM34 415q0 70 60 110t178 40h137q23 0 30 -12.5t7 -38.5q0 -25 -7 -37.5t-30 -12.5h-138q-57 0 -84 -13.5t-27 -36.5v-26q0 -23 28 -37t88 -14h221q140 0 202 -40t62 -112v-32q0 -36 -16 -64.5t-50 -48t-88 -30t-129 -10.5h-405q-23 0 -30 12.5t-7 38.5q0 25 7 37.5
t30 12.5h424q40 0 66.5 3.5t42 10t21.5 15.5t6 21v36q0 12 -6 21t-21 16t-40.5 10.5t-64.5 3.5h-224q-121 0 -182 39.5t-61 108.5v29zM340 635q-14 -7 -28.5 -10t-46.5 -3q-20 0 -35 10.5t-15 31.5q0 27 30 43l203 110q14 7 28.5 10t46.5 3q20 0 35 -10.5t15 -32.5
q0 -26 -30 -42z" />
    <glyph glyph-name="Scedilla" unicode="&#x15e;" horiz-adv-x="887" 
d="M34 0zM330 314q-296 0 -296 186v39q0 186 296 186h100q24 0 31.5 -13.5t7.5 -40.5t-7.5 -40.5t-31.5 -13.5h-103q-88 0 -124.5 -22.5t-36.5 -55.5v-39q0 -32 36.5 -55t124.5 -23h236q296 0 296 -186v-50q0 -186 -296 -186h-490q-24 0 -31.5 13.5t-7.5 40.5t7.5 40.5
t31.5 13.5h493q88 0 124.5 22.5t36.5 55.5v50q0 32 -36.5 55t-124.5 23h-236zM501 -170q-4 -23 -19 -31.5t-49 -8.5q-35 0 -50.5 8t-15.5 28q0 6 1 14.5t3 17.5l15 88q4 23 19 31.5t50 8.5t49.5 -8t14.5 -31q0 -5 -0.5 -11.5t-1.5 -11.5z" />
    <glyph glyph-name="scedilla" unicode="&#x15f;" horiz-adv-x="789" 
d="M34 0zM34 415q0 70 60 110t178 40h137q23 0 30 -12.5t7 -38.5q0 -25 -7 -37.5t-30 -12.5h-138q-57 0 -84 -13.5t-27 -36.5v-26q0 -23 28 -37t88 -14h221q140 0 202 -40t62 -112v-32q0 -36 -16 -64.5t-50 -48t-88 -30t-129 -10.5h-405q-23 0 -30 12.5t-7 38.5q0 25 7 37.5
t30 12.5h424q40 0 66.5 3.5t42 10t21.5 15.5t6 21v36q0 12 -6 21t-21 16t-40.5 10.5t-64.5 3.5h-224q-121 0 -182 39.5t-61 108.5v29zM452 -170q-4 -23 -19 -31.5t-49 -8.5q-35 0 -50.5 8t-15.5 28q0 6 1 14.5t3 17.5l15 88q4 23 19 31.5t50 8.5t49.5 -8t14.5 -31
q0 -5 -0.5 -11.5t-1.5 -11.5z" />
    <glyph glyph-name="Scaron" unicode="&#x160;" horiz-adv-x="887" 
d="M34 0zM330 314q-296 0 -296 186v39q0 186 296 186h100q24 0 31.5 -13.5t7.5 -40.5t-7.5 -40.5t-31.5 -13.5h-103q-88 0 -124.5 -22.5t-36.5 -55.5v-39q0 -32 36.5 -55t124.5 -23h236q296 0 296 -186v-50q0 -186 -296 -186h-490q-24 0 -31.5 13.5t-7.5 40.5t7.5 40.5
t31.5 13.5h493q88 0 124.5 22.5t36.5 55.5v50q0 32 -36.5 55t-124.5 23h-236zM456 970q9 11 24.5 15.5t30.5 4.5q26 0 45 -9.5t19 -25.5q0 -10 -8 -19l-110 -130q-10 -12 -25 -18t-39 -6t-39 6t-25 18l-110 130q-8 9 -8 19q0 16 19 25.5t45 9.5q15 0 30.5 -4.5t24.5 -15.5
l63 -77z" />
    <glyph glyph-name="scaron" unicode="&#x161;" horiz-adv-x="789" 
d="M34 0zM34 415q0 70 60 110t178 40h137q23 0 30 -12.5t7 -38.5q0 -25 -7 -37.5t-30 -12.5h-138q-57 0 -84 -13.5t-27 -36.5v-26q0 -23 28 -37t88 -14h221q140 0 202 -40t62 -112v-32q0 -36 -16 -64.5t-50 -48t-88 -30t-129 -10.5h-405q-23 0 -30 12.5t-7 38.5q0 25 7 37.5
t30 12.5h424q40 0 66.5 3.5t42 10t21.5 15.5t6 21v36q0 12 -6 21t-21 16t-40.5 10.5t-64.5 3.5h-224q-121 0 -182 39.5t-61 108.5v29zM407 810q9 11 24.5 15.5t30.5 4.5q26 0 45 -9.5t19 -25.5q0 -10 -8 -19l-110 -130q-10 -12 -25 -18t-39 -6t-39 6t-25 18l-110 130
q-8 9 -8 19q0 16 19 25.5t45 9.5q15 0 30.5 -4.5t24.5 -15.5l63 -77z" />
    <glyph glyph-name="Tcedilla" unicode="&#x162;" horiz-adv-x="838" 
d="M12 0zM485 617v-574q0 -29 -17 -38t-50 -9q-32 0 -49 9t-17 38v574h-301q-24 0 -31.5 13.5t-7.5 40.5t7.5 40.5t31.5 13.5h736q24 0 31.5 -13.5t7.5 -40.5t-7.5 -40.5t-31.5 -13.5h-302zM457 -170q-4 -23 -19 -31.5t-49 -8.5q-35 0 -50.5 8t-15.5 28q0 6 1 14.5t3 17.5
l15 88q4 23 19 31.5t50 8.5t49.5 -8t14.5 -31q0 -5 -0.5 -11.5t-1.5 -11.5z" />
    <glyph glyph-name="tcedilla" unicode="&#x163;" horiz-adv-x="491" 
d="M12 0zM105 565v117q0 29 15.5 38t47.5 9t48 -9t16 -38v-117h211q23 0 29.5 -13t6.5 -38t-6.5 -37.5t-29.5 -12.5h-211v-421q0 -29 -16 -38t-48 -9t-47.5 9t-15.5 38v421h-57q-23 0 -29.5 12.5t-6.5 37.5t6.5 38t29.5 13h57zM208 -170q-4 -23 -19 -31.5t-49 -8.5
q-35 0 -50.5 8t-15.5 28q0 6 1 14.5t3 17.5l15 88q4 23 19 31.5t50 8.5t49.5 -8t14.5 -31q0 -5 -0.5 -11.5t-1.5 -11.5z" />
    <glyph glyph-name="Tcaron" unicode="&#x164;" horiz-adv-x="838" 
d="M12 0zM485 617v-574q0 -29 -17 -38t-50 -9q-32 0 -49 9t-17 38v574h-301q-24 0 -31.5 13.5t-7.5 40.5t7.5 40.5t31.5 13.5h736q24 0 31.5 -13.5t7.5 -40.5t-7.5 -40.5t-31.5 -13.5h-302zM482 970q9 11 24.5 15.5t30.5 4.5q26 0 45 -9.5t19 -25.5q0 -10 -8 -19l-110 -130
q-10 -12 -25 -18t-39 -6t-39 6t-25 18l-110 130q-8 9 -8 19q0 16 19 25.5t45 9.5q15 0 30.5 -4.5t24.5 -15.5l63 -77z" />
    <glyph glyph-name="tcaron" unicode="&#x165;" horiz-adv-x="549" 
d="M12 0zM105 565v117q0 29 15.5 38t47.5 9t48 -9t16 -38v-117h211q23 0 29.5 -13t6.5 -38t-6.5 -37.5t-29.5 -12.5h-211v-421q0 -29 -16 -38t-48 -9t-47.5 9t-15.5 38v421h-57q-23 0 -29.5 12.5t-6.5 37.5t6.5 38t29.5 13h57zM531 633q-4 -23 -19 -31.5t-49 -8.5
q-35 0 -50.5 8t-15.5 28q0 6 1 14.5t3 17.5l15 88q4 23 19 31.5t50 8.5t49.5 -8t14.5 -31q0 -5 -0.5 -11.5t-1.5 -11.5z" />
    <glyph glyph-name="Tbar" unicode="&#x166;" horiz-adv-x="838" 
d="M352 507v110h-301q-24 0 -31.5 13.5t-7.5 40.5t7.5 40.5t31.5 13.5h736q24 0 31.5 -13.5t7.5 -40.5t-7.5 -40.5t-31.5 -13.5h-302v-110h122q23 0 29.5 -13t6.5 -38t-6.5 -37.5t-29.5 -12.5h-122v-363q0 -29 -17 -38t-50 -9q-32 0 -49 9t-17 38v363h-121q-23 0 -29.5 12.5
t-6.5 37.5t6.5 38t29.5 13h121z" />
    <glyph glyph-name="tbar" unicode="&#x167;" horiz-adv-x="491" 
d="M105 392v72h-57q-23 0 -29.5 12.5t-6.5 37.5t6.5 38t29.5 13h57v117q0 29 15.5 38t47.5 9t48 -9t16 -38v-117h211q23 0 29.5 -13t6.5 -38t-6.5 -37.5t-29.5 -12.5h-211v-72h211q23 0 29.5 -13t6.5 -38t-6.5 -37.5t-29.5 -12.5h-211v-248q0 -29 -16 -38t-48 -9t-47.5 9
t-15.5 38v248h-57q-23 0 -29.5 12.5t-6.5 37.5t6.5 38t29.5 13h57z" />
    <glyph glyph-name="Utilde" unicode="&#x168;" horiz-adv-x="986" 
d="M43 0zM339 0q-296 0 -296 186v496q0 29 17 38t49 9q33 0 50 -9t17 -38v-496q0 -32 39.5 -55t127.5 -23h300q88 0 127.5 23t39.5 55v496q0 29 17 38t50 9q32 0 49 -9t17 -38v-496q0 -186 -296 -186h-308zM682 908q20 0 26.5 -11.5t6.5 -34.5t-6.5 -34.5t-26.5 -11.5h-379
q-21 0 -27 11.5t-6 34.5t6 34.5t27 11.5h379z" />
    <glyph glyph-name="utilde" unicode="&#x169;" horiz-adv-x="891" 
d="M43 0zM785 569q32 0 47.5 -9t15.5 -38v-348q0 -174 -283 -174h-239q-283 0 -283 174v348q0 29 16 38t48 9t47.5 -9t15.5 -38v-348q0 -31 38 -52t122 -21h231q84 0 122 21t38 52v348q0 29 16 38t48 9zM635 748q20 0 26.5 -11.5t6.5 -34.5t-6.5 -34.5t-26.5 -11.5h-379
q-21 0 -27 11.5t-6 34.5t6 34.5t27 11.5h379z" />
    <glyph glyph-name="Umacron" unicode="&#x16a;" horiz-adv-x="986" 
d="M43 0zM339 0q-296 0 -296 186v496q0 29 17 38t49 9q33 0 50 -9t17 -38v-496q0 -32 39.5 -55t127.5 -23h300q88 0 127.5 23t39.5 55v496q0 29 17 38t50 9q32 0 49 -9t17 -38v-496q0 -186 -296 -186h-308zM682 908q20 0 26.5 -11.5t6.5 -34.5t-6.5 -34.5t-26.5 -11.5h-379
q-21 0 -27 11.5t-6 34.5t6 34.5t27 11.5h379z" />
    <glyph glyph-name="umacron" unicode="&#x16b;" horiz-adv-x="891" 
d="M43 0zM785 569q32 0 47.5 -9t15.5 -38v-348q0 -174 -283 -174h-239q-283 0 -283 174v348q0 29 16 38t48 9t47.5 -9t15.5 -38v-348q0 -31 38 -52t122 -21h231q84 0 122 21t38 52v348q0 29 16 38t48 9zM635 748q20 0 26.5 -11.5t6.5 -34.5t-6.5 -34.5t-26.5 -11.5h-379
q-21 0 -27 11.5t-6 34.5t6 34.5t27 11.5h379z" />
    <glyph glyph-name="Ubreve" unicode="&#x16c;" horiz-adv-x="986" 
d="M43 0zM339 0q-296 0 -296 186v496q0 29 17 38t49 9q33 0 50 -9t17 -38v-496q0 -32 39.5 -55t127.5 -23h300q88 0 127.5 23t39.5 55v496q0 29 17 38t50 9q32 0 49 -9t17 -38v-496q0 -186 -296 -186h-308zM493 782q-43 0 -84 11t-73.5 32t-52 51t-19.5 68q0 26 13 36t50 10
q22 0 37.5 -5t23.5 -22q7 -15 15.5 -30.5t20.5 -28.5t28.5 -21t40.5 -8t40.5 8t28.5 21t20.5 28.5t15.5 30.5q8 17 23.5 22t37.5 5q37 0 50 -10t13 -36q0 -38 -20 -68t-52 -51t-73 -32t-84 -11z" />
    <glyph glyph-name="ubreve" unicode="&#x16d;" horiz-adv-x="891" 
d="M43 0zM785 569q32 0 47.5 -9t15.5 -38v-348q0 -174 -283 -174h-239q-283 0 -283 174v348q0 29 16 38t48 9t47.5 -9t15.5 -38v-348q0 -31 38 -52t122 -21h231q84 0 122 21t38 52v348q0 29 16 38t48 9zM445 622q-43 0 -84 11t-73.5 32t-52 51t-19.5 68q0 26 13 36t50 10
q22 0 37.5 -5t23.5 -22q7 -15 15.5 -30.5t20.5 -28.5t28.5 -21t40.5 -8t40.5 8t28.5 21t20.5 28.5t15.5 30.5q8 17 23.5 22t37.5 5q37 0 50 -10t13 -36q0 -38 -20 -68t-52 -51t-73 -32t-84 -11z" />
    <glyph glyph-name="Uring" unicode="&#x16e;" horiz-adv-x="986" 
d="M43 0zM339 0q-296 0 -296 186v496q0 29 17 38t49 9q33 0 50 -9t17 -38v-496q0 -32 39.5 -55t127.5 -23h300q88 0 127.5 23t39.5 55v496q0 29 17 38t50 9q32 0 49 -9t17 -38v-496q0 -186 -296 -186h-308zM627 852q0 -32 -6.5 -51.5t-20.5 -31t-36.5 -15.5t-54.5 -4h-32
q-32 0 -54.5 4t-36.5 15.5t-20.5 31t-6.5 51.5v36q0 31 6.5 51t20.5 31.5t36.5 15.5t54.5 4h32q32 0 54.5 -4t36.5 -15.5t20.5 -31.5t6.5 -51v-36zM503 807q38 0 48 8t10 37v36q0 29 -10 37t-48 8h-20q-38 0 -48 -8t-10 -37v-36q0 -29 10 -37t48 -8h20z" />
    <glyph glyph-name="uring" unicode="&#x16f;" horiz-adv-x="891" 
d="M43 0zM785 569q32 0 47.5 -9t15.5 -38v-348q0 -174 -283 -174h-239q-283 0 -283 174v348q0 29 16 38t48 9t47.5 -9t15.5 -38v-348q0 -31 38 -52t122 -21h231q84 0 122 21t38 52v348q0 29 16 38t48 9zM579 692q0 -32 -6.5 -51.5t-20.5 -31t-36.5 -15.5t-54.5 -4h-32
q-32 0 -54.5 4t-36.5 15.5t-20.5 31t-6.5 51.5v36q0 31 6.5 51t20.5 31.5t36.5 15.5t54.5 4h32q32 0 54.5 -4t36.5 -15.5t20.5 -31.5t6.5 -51v-36zM455 647q38 0 48 8t10 37v36q0 29 -10 37t-48 8h-20q-38 0 -48 -8t-10 -37v-36q0 -29 10 -37t48 -8h20z" />
    <glyph glyph-name="Uhungarumlaut" unicode="&#x170;" horiz-adv-x="986" 
d="M43 0zM339 0q-296 0 -296 186v496q0 29 17 38t49 9q33 0 50 -9t17 -38v-496q0 -32 39.5 -55t127.5 -23h300q88 0 127.5 23t39.5 55v496q0 29 17 38t50 9q32 0 49 -9t17 -38v-496q0 -186 -296 -186h-308zM622 795q-20 -13 -50 -13q-26 0 -37 10.5t-11 30.5q0 27 24 44
l158 110q11 7 25.5 10t26.5 3q46 0 46 -42q0 -27 -23 -43zM380 795q-11 -8 -22.5 -10.5t-36.5 -2.5q-16 0 -27.5 10.5t-11.5 31.5q0 27 23 43l159 110q19 13 50 13q22 0 35 -9t13 -34q0 -14 -5 -23.5t-19 -18.5z" />
    <glyph glyph-name="uhungarumlaut" unicode="&#x171;" horiz-adv-x="891" 
d="M43 0zM785 569q32 0 47.5 -9t15.5 -38v-348q0 -174 -283 -174h-239q-283 0 -283 174v348q0 29 16 38t48 9t47.5 -9t15.5 -38v-348q0 -31 38 -52t122 -21h231q84 0 122 21t38 52v348q0 29 16 38t48 9zM574 635q-20 -13 -50 -13q-26 0 -37 10.5t-11 30.5q0 27 24 44
l158 110q11 7 25.5 10t26.5 3q46 0 46 -42q0 -27 -23 -43zM332 635q-11 -8 -22.5 -10.5t-36.5 -2.5q-16 0 -27.5 10.5t-11.5 31.5q0 27 23 43l159 110q19 13 50 13q22 0 35 -9t13 -34q0 -14 -5 -23.5t-19 -18.5z" />
    <glyph glyph-name="Uogonek" unicode="&#x172;" horiz-adv-x="986" 
d="M607 -116q21 0 27.5 -11.5t6.5 -34.5t-6.5 -35.5t-27.5 -12.5h-150q-34 0 -56 7.5t-34.5 19t-17.5 25t-5 24.5v24q0 21 8 37t27.5 29t52 23.5t82.5 20.5h-175q-296 0 -296 186v496q0 29 17 38t49 9q33 0 50 -9t17 -38v-496q0 -32 39.5 -55t127.5 -23h300q88 0 127.5 23
t39.5 55v496q0 29 17 38t50 9q32 0 49 -9t17 -38v-496q0 -186 -296 -186h-26q-47 -15 -78 -26t-49 -19.5t-25 -16t-7 -16.5v-15q0 -14 5.5 -18.5t21.5 -4.5h118v0z" />
    <glyph glyph-name="uogonek" unicode="&#x173;" horiz-adv-x="891" 
d="M525 -116q21 0 27.5 -11.5t6.5 -34.5t-6.5 -35.5t-27.5 -12.5h-150q-34 0 -56 7.5t-34.5 19t-17.5 25t-5 24.5v24q0 21 8 37t27.5 29t52 23.5t82.5 20.5h-106q-283 0 -283 174v348q0 29 16 38t48 9t47.5 -9t15.5 -38v-348q0 -31 38 -52t122 -21h231q84 0 122 21t38 52
v348q0 29 16 38t48 9t47.5 -9t15.5 -38v-348q0 -174 -283 -174h-25q-48 -15 -79 -26t-49 -19.5t-25 -16t-7 -16.5v-15q0 -14 5.5 -18.5t21.5 -4.5h118v0z" />
    <glyph glyph-name="Wcircumflex" unicode="&#x174;" horiz-adv-x="1391" 
d="M12 0zM455 39q-19 -43 -77 -43q-29 0 -50 11t-32 35l-278 617q-6 12 -6 23q0 22 20.5 34.5t52.5 12.5q23 0 36.5 -7.5t20.5 -22.5l234 -549l243 529q14 29 30 39.5t46 10.5q32 0 45.5 -10.5t26.5 -39.5l242 -529l240 549q13 30 57 30q32 0 52.5 -12.5t20.5 -34.5
q0 -11 -6 -23l-284 -617q-21 -46 -82 -46q-27 0 -47.5 10t-31.5 33l-236 514zM632 802q-9 -11 -24.5 -15.5t-30.5 -4.5q-26 0 -45 9.5t-19 25.5q0 10 8 19l110 130q10 12 25 18t39 6t39 -6t25 -18l110 -130q8 -9 8 -19q0 -16 -19 -25.5t-45 -9.5q-15 0 -30.5 4.5t-24.5 15.5
l-63 77z" />
    <glyph glyph-name="wcircumflex" unicode="&#x175;" horiz-adv-x="1184" 
d="M10 0zM393 30q-18 -34 -72 -34q-27 0 -46.5 8.5t-28.5 27.5l-230 482q-6 10 -6 19q0 17 19 26.5t50 9.5q44 0 54 -23l187 -420l210 404q12 23 25.5 31t39.5 8q15 0 24.5 -2.5t16 -7t11.5 -12t10 -17.5l202 -404l191 420q10 23 55 23q31 0 50 -9.5t19 -26.5q0 -9 -6 -19
l-236 -482q-9 -19 -28.5 -27.5t-45.5 -8.5q-25 0 -44.5 8t-28.5 26l-192 390zM529 642q-9 -11 -24.5 -15.5t-30.5 -4.5q-26 0 -45 9.5t-19 25.5q0 10 8 19l110 130q10 12 25 18t39 6t39 -6t25 -18l110 -130q8 -9 8 -19q0 -16 -19 -25.5t-45 -9.5q-15 0 -30.5 4.5t-24.5 15.5
l-63 77z" />
    <glyph glyph-name="Ycircumflex" unicode="&#x176;" horiz-adv-x="919" 
d="M11 0zM32 649q-21 19 -21 40q0 16 17 28t55 12q22 0 33.5 -4.5t22.5 -14.5l321 -312l320 312q10 10 22 14.5t34 4.5q38 0 55 -11.5t17 -28.5q0 -21 -21 -40l-361 -349v-257q0 -29 -17 -38t-50 -9q-32 0 -49 9t-17 38v257zM396 802q-9 -11 -24.5 -15.5t-30.5 -4.5
q-26 0 -45 9.5t-19 25.5q0 10 8 19l110 130q10 12 25 18t39 6t39 -6t25 -18l110 -130q8 -9 8 -19q0 -16 -19 -25.5t-45 -9.5q-15 0 -30.5 4.5t-24.5 15.5l-63 77z" />
    <glyph glyph-name="ycircumflex" unicode="&#x177;" horiz-adv-x="880" 
d="M43 0zM706 115v407q0 29 15.5 38t47.5 9t48 -9t16 -38v-513q0 -87 -66.5 -130t-192.5 -43h-138q-23 0 -29.5 13t-6.5 38t6.5 37.5t29.5 12.5h138q74 0 103 18.5t29 53.5v5h-380q-283 0 -283 174v334q0 29 15.5 38t47.5 9t48 -9t16 -38v-335q0 -31 38 -51.5t122 -20.5h376
zM377 642q-9 -11 -24.5 -15.5t-30.5 -4.5q-26 0 -45 9.5t-19 25.5q0 10 8 19l110 130q10 12 25 18t39 6t39 -6t25 -18l110 -130q8 -9 8 -19q0 -16 -19 -25.5t-45 -9.5q-15 0 -30.5 4.5t-24.5 15.5l-63 77z" />
    <glyph glyph-name="Ydieresis" unicode="&#x178;" horiz-adv-x="919" 
d="M11 0zM32 649q-21 19 -21 40q0 16 17 28t55 12q22 0 33.5 -4.5t22.5 -14.5l321 -312l320 312q10 10 22 14.5t34 4.5q38 0 55 -11.5t17 -28.5q0 -21 -21 -40l-361 -349v-257q0 -29 -17 -38t-50 -9q-32 0 -49 9t-17 38v257zM495 857q0 32 18.5 47t60.5 15t60.5 -15
t18.5 -47t-18.5 -47t-60.5 -15t-60.5 15t-18.5 47zM265 857q0 32 18.5 47t60.5 15t60.5 -15t18.5 -47t-18.5 -47t-60.5 -15t-60.5 15t-18.5 47z" />
    <glyph glyph-name="Zacute" unicode="&#x179;" horiz-adv-x="888" 
d="M18 0zM128 0q-54 0 -82 14t-28 55q0 17 5 27.5t16 19.5l674 591q12 11 29 14.5t40 3.5q11 0 22 -1t20 -5.5t14.5 -12.5t5.5 -22q0 -15 -7.5 -24.5t-24.5 -24.5l-612 -527h603q24 0 31.5 -13.5t7.5 -40.5t-7.5 -40.5t-31.5 -13.5h-675zM490 795q-14 -7 -28.5 -10t-46.5 -3
q-20 0 -35 10.5t-15 31.5q0 27 30 43l203 110q14 7 28.5 10t46.5 3q20 0 35 -10.5t15 -32.5q0 -26 -30 -42z" />
    <glyph glyph-name="zacute" unicode="&#x17a;" 
d="M26 0zM232 101h554q23 0 29.5 -13t6.5 -38t-6.5 -37.5t-29.5 -12.5h-663q-54 0 -75.5 12.5t-21.5 39.5q0 14 5.5 24.5t19.5 21.5l616 457q11 8 28 11t45 3t48 -5t20 -27q0 -12 -7 -19.5t-23 -18.5zM478 635q-14 -7 -28.5 -10t-46.5 -3q-20 0 -35 10.5t-15 31.5
q0 27 30 43l203 110q14 7 28.5 10t46.5 3q20 0 35 -10.5t15 -32.5q0 -26 -30 -42z" />
    <glyph glyph-name="Zdotaccent" unicode="&#x17b;" horiz-adv-x="888" 
d="M18 0zM128 0q-54 0 -82 14t-28 55q0 17 5 27.5t16 19.5l674 591q12 11 29 14.5t40 3.5q11 0 22 -1t20 -5.5t14.5 -12.5t5.5 -22q0 -15 -7.5 -24.5t-24.5 -24.5l-612 -527h603q24 0 31.5 -13.5t7.5 -40.5t-7.5 -40.5t-31.5 -13.5h-675zM415 857q0 32 18.5 47t60.5 15
t60.5 -15t18.5 -47t-18.5 -47t-60.5 -15t-60.5 15t-18.5 47z" />
    <glyph glyph-name="zdotaccent" unicode="&#x17c;" 
d="M26 0zM232 101h554q23 0 29.5 -13t6.5 -38t-6.5 -37.5t-29.5 -12.5h-663q-54 0 -75.5 12.5t-21.5 39.5q0 14 5.5 24.5t19.5 21.5l616 457q11 8 28 11t45 3t48 -5t20 -27q0 -12 -7 -19.5t-23 -18.5zM403 697q0 32 18.5 47t60.5 15t60.5 -15t18.5 -47t-18.5 -47t-60.5 -15
t-60.5 15t-18.5 47z" />
    <glyph glyph-name="Zcaron" unicode="&#x17d;" horiz-adv-x="888" 
d="M18 0zM128 0q-54 0 -82 14t-28 55q0 17 5 27.5t16 19.5l674 591q12 11 29 14.5t40 3.5q11 0 22 -1t20 -5.5t14.5 -12.5t5.5 -22q0 -15 -7.5 -24.5t-24.5 -24.5l-612 -527h603q24 0 31.5 -13.5t7.5 -40.5t-7.5 -40.5t-31.5 -13.5h-675zM557 970q9 11 24.5 15.5t30.5 4.5
q26 0 45 -9.5t19 -25.5q0 -10 -8 -19l-110 -130q-10 -12 -25 -18t-39 -6t-39 6t-25 18l-110 130q-8 9 -8 19q0 16 19 25.5t45 9.5q15 0 30.5 -4.5t24.5 -15.5l63 -77z" />
    <glyph glyph-name="zcaron" unicode="&#x17e;" 
d="M26 0zM232 101h554q23 0 29.5 -13t6.5 -38t-6.5 -37.5t-29.5 -12.5h-663q-54 0 -75.5 12.5t-21.5 39.5q0 14 5.5 24.5t19.5 21.5l616 457q11 8 28 11t45 3t48 -5t20 -27q0 -12 -7 -19.5t-23 -18.5zM545 810q9 11 24.5 15.5t30.5 4.5q26 0 45 -9.5t19 -25.5q0 -10 -8 -19
l-110 -130q-10 -12 -25 -18t-39 -6t-39 6t-25 18l-110 130q-8 9 -8 19q0 16 19 25.5t45 9.5q15 0 30.5 -4.5t24.5 -15.5l63 -77z" />
    <glyph glyph-name="florin" unicode="&#x192;" horiz-adv-x="474" 
d="M424 725q23 0 29.5 -13t6.5 -38t-6.5 -37.5t-29.5 -12.5h-41q-38 0 -60.5 -18.5t-22.5 -53.5v-97h114q23 0 29.5 -13t6.5 -38t-6.5 -37.5t-29.5 -12.5h-114v-345q0 -43 -16 -75.5t-44.5 -54t-67 -32.5t-82.5 -11h-41q-23 0 -29.5 13t-6.5 38t6.5 37.5t29.5 12.5h41
q38 0 60.5 18.5t22.5 53.5v345h-106q-23 0 -29.5 12.5t-6.5 37.5t6.5 38t29.5 13h106v97q0 43 16 75.5t44.5 54t67 32.5t82.5 11h41z" />
    <glyph glyph-name="Scommaaccent" unicode="&#x218;" horiz-adv-x="887" 
d="M34 0zM330 314q-296 0 -296 186v39q0 186 296 186h100q24 0 31.5 -13.5t7.5 -40.5t-7.5 -40.5t-31.5 -13.5h-103q-88 0 -124.5 -22.5t-36.5 -55.5v-39q0 -32 36.5 -55t124.5 -23h236q296 0 296 -186v-50q0 -186 -296 -186h-490q-24 0 -31.5 13.5t-7.5 40.5t7.5 40.5
t31.5 13.5h493q88 0 124.5 22.5t36.5 55.5v50q0 32 -36.5 55t-124.5 23h-236zM501 -170q-4 -23 -19 -31.5t-49 -8.5q-35 0 -50.5 8t-15.5 28q0 6 1 14.5t3 17.5l15 88q4 23 19 31.5t50 8.5t49.5 -8t14.5 -31q0 -5 -0.5 -11.5t-1.5 -11.5z" />
    <glyph glyph-name="scommaaccent" unicode="&#x219;" horiz-adv-x="789" 
d="M34 0zM34 415q0 70 60 110t178 40h137q23 0 30 -12.5t7 -38.5q0 -25 -7 -37.5t-30 -12.5h-138q-57 0 -84 -13.5t-27 -36.5v-26q0 -23 28 -37t88 -14h221q140 0 202 -40t62 -112v-32q0 -36 -16 -64.5t-50 -48t-88 -30t-129 -10.5h-405q-23 0 -30 12.5t-7 38.5q0 25 7 37.5
t30 12.5h424q40 0 66.5 3.5t42 10t21.5 15.5t6 21v36q0 12 -6 21t-21 16t-40.5 10.5t-64.5 3.5h-224q-121 0 -182 39.5t-61 108.5v29zM452 -170q-4 -23 -19 -31.5t-49 -8.5q-35 0 -50.5 8t-15.5 28q0 6 1 14.5t3 17.5l15 88q4 23 19 31.5t50 8.5t49.5 -8t14.5 -31
q0 -5 -0.5 -11.5t-1.5 -11.5z" />
    <glyph glyph-name="uni021A" unicode="&#x21a;" horiz-adv-x="838" 
d="M12 0zM485 617v-574q0 -29 -17 -38t-50 -9q-32 0 -49 9t-17 38v574h-301q-24 0 -31.5 13.5t-7.5 40.5t7.5 40.5t31.5 13.5h736q24 0 31.5 -13.5t7.5 -40.5t-7.5 -40.5t-31.5 -13.5h-302zM457 -170q-4 -23 -19 -31.5t-49 -8.5q-35 0 -50.5 8t-15.5 28q0 6 1 14.5t3 17.5
l15 88q4 23 19 31.5t50 8.5t49.5 -8t14.5 -31q0 -5 -0.5 -11.5t-1.5 -11.5z" />
    <glyph glyph-name="uni021B" unicode="&#x21b;" horiz-adv-x="491" 
d="M12 0zM105 565v117q0 29 15.5 38t47.5 9t48 -9t16 -38v-117h211q23 0 29.5 -13t6.5 -38t-6.5 -37.5t-29.5 -12.5h-211v-421q0 -29 -16 -38t-48 -9t-47.5 9t-15.5 38v421h-57q-23 0 -29.5 12.5t-6.5 37.5t6.5 38t29.5 13h57zM208 -170q-4 -23 -19 -31.5t-49 -8.5
q-35 0 -50.5 8t-15.5 28q0 6 1 14.5t3 17.5l15 88q4 23 19 31.5t50 8.5t49.5 -8t14.5 -31q0 -5 -0.5 -11.5t-1.5 -11.5z" />
    <glyph glyph-name="circumflex" unicode="&#x2c6;" horiz-adv-x="440" 
d="M157 642q-9 -11 -24.5 -15.5t-30.5 -4.5q-26 0 -45 9.5t-19 25.5q0 10 8 19l110 130q10 12 25 18t39 6t39 -6t25 -18l110 -130q8 -9 8 -19q0 -16 -19 -25.5t-45 -9.5q-15 0 -30.5 4.5t-24.5 15.5l-63 77z" />
    <glyph glyph-name="caron" unicode="&#x2c7;" horiz-adv-x="440" 
d="M283 810q9 11 24.5 15.5t30.5 4.5q26 0 45 -9.5t19 -25.5q0 -10 -8 -19l-110 -130q-10 -12 -25 -18t-39 -6t-39 6t-25 18l-110 130q-8 9 -8 19q0 16 19 25.5t45 9.5q15 0 30.5 -4.5t24.5 -15.5l63 -77z" />
    <glyph glyph-name="breve" unicode="&#x2d8;" horiz-adv-x="534" 
d="M267 622q-43 0 -84 11t-73.5 32t-52 51t-19.5 68q0 26 13 36t50 10q22 0 37.5 -5t23.5 -22q7 -15 15.5 -30.5t20.5 -28.5t28.5 -21t40.5 -8t40.5 8t28.5 21t20.5 28.5t15.5 30.5q8 17 23.5 22t37.5 5q37 0 50 -10t13 -36q0 -38 -20 -68t-52 -51t-73 -32t-84 -11z" />
    <glyph glyph-name="dotaccent" unicode="&#x2d9;" horiz-adv-x="234" 
d="M38 697q0 32 18.5 47t60.5 15t60.5 -15t18.5 -47t-18.5 -47t-60.5 -15t-60.5 15t-18.5 47z" />
    <glyph glyph-name="ring" unicode="&#x2da;" horiz-adv-x="344" 
d="M306 692q0 -32 -6.5 -51.5t-20.5 -31t-36.5 -15.5t-54.5 -4h-32q-32 0 -54.5 4t-36.5 15.5t-20.5 31t-6.5 51.5v36q0 31 6.5 51t20.5 31.5t36.5 15.5t54.5 4h32q32 0 54.5 -4t36.5 -15.5t20.5 -31.5t6.5 -51v-36zM182 647q38 0 48 8t10 37v36q0 29 -10 37t-48 8h-20
q-38 0 -48 -8t-10 -37v-36q0 -29 10 -37t48 -8h20z" />
    <glyph glyph-name="ogonek" unicode="&#x2db;" horiz-adv-x="373" 
d="M301 -116q21 0 27.5 -11.5t6.5 -34.5t-6.5 -35.5t-27.5 -12.5h-150q-34 0 -56 7.5t-34.5 19t-17.5 25t-5 24.5v24q0 21 8 37t27.5 29t52 23.5t82.5 20.5h101q-6 -5 -11.5 -7.5t-23.5 -7.5q-64 -20 -91 -32.5t-27 -30.5v-15q0 -14 5.5 -18.5t21.5 -4.5h118v0z" />
    <glyph glyph-name="tilde" unicode="&#x2dc;" horiz-adv-x="521" 
d="M450 748q20 0 26.5 -11.5t6.5 -34.5t-6.5 -34.5t-26.5 -11.5h-379q-21 0 -27 11.5t-6 34.5t6 34.5t27 11.5h379z" />
    <glyph glyph-name="hungarumlaut" unicode="&#x2dd;" horiz-adv-x="598" 
d="M378 635q-20 -13 -50 -13q-26 0 -37 10.5t-11 30.5q0 27 24 44l158 110q11 7 25.5 10t26.5 3q46 0 46 -42q0 -27 -23 -43zM136 635q-11 -8 -22.5 -10.5t-36.5 -2.5q-16 0 -27.5 10.5t-11.5 31.5q0 27 23 43l159 110q19 13 50 13q22 0 35 -9t13 -34q0 -14 -5 -23.5
t-19 -18.5z" />
    <glyph glyph-name="Delta" unicode="&#x394;" horiz-adv-x="1072" 
d="M87 0q-12 0 -25.5 4t-24.5 11.5t-18 17t-7 21.5t8 22l435 618q12 17 31 26t48 9t47.5 -9t30.5 -26l440 -618q8 -13 8 -23q0 -11 -7 -20.5t-18.5 -17t-25 -11.5t-26.5 -4h-896zM189 108h687l-345 493z" />
    <glyph glyph-name="Omega" unicode="&#x3a9;" horiz-adv-x="885" 
d="M347 630q-54 0 -90.5 -9t-59 -30.5t-32 -57.5t-9.5 -89q0 -71 14 -121.5t36 -90.5t47.5 -73t48.5 -69q7 -11 9.5 -18t2.5 -17q0 -55 -41 -55h-194q-23 0 -35 10t-12 42t12 44t35 12h103q-33 36 -60.5 69.5t-47 71.5t-30.5 85t-11 111q0 79 18 133.5t56 88t97.5 48
t142.5 14.5h194q82 0 140.5 -15t96 -48.5t55.5 -87.5t18 -133q0 -64 -11 -111t-30.5 -85t-47 -71.5t-60.5 -69.5h103q23 0 35 -12t12 -44t-12 -42t-35 -10h-194q-41 0 -41 55q0 10 2.5 17t9.5 18q22 35 47.5 68t47.5 72.5t36.5 90.5t14.5 123q0 53 -9.5 88.5t-31.5 57
t-58 31t-89 9.5h-193z" />
    <glyph glyph-name="mu" unicode="&#x3bc;" horiz-adv-x="884" 
d="M110 569q32 0 48 -9t16 -38v-421h380q84 0 122 21t38 52v348q0 29 15.5 38t47.5 9t48 -9t16 -38v-348q0 -174 -283 -174h-384v-125q0 -29 -16 -38t-48 -9t-47.5 9t-15.5 38v647q0 29 15.5 38t47.5 9z" />
    <glyph glyph-name="pi" unicode="&#x3c0;" horiz-adv-x="803" 
d="M706 565q23 0 32.5 -10.5t9.5 -33.5v-478q0 -29 -15.5 -38t-47.5 -9t-48 9t-16 38v421h-440v-421q0 -29 -16 -38t-48 -9t-47.5 9t-15.5 38v478q0 23 9.5 33.5t32.5 10.5h610v0z" />
    <glyph glyph-name="Wgrave" unicode="&#x1e80;" horiz-adv-x="1391" 
d="M12 0zM455 39q-19 -43 -77 -43q-29 0 -50 11t-32 35l-278 617q-6 12 -6 23q0 22 20.5 34.5t52.5 12.5q23 0 36.5 -7.5t20.5 -22.5l234 -549l243 529q14 29 30 39.5t46 10.5q32 0 45.5 -10.5t26.5 -39.5l242 -529l240 549q13 30 57 30q32 0 52.5 -12.5t20.5 -34.5
q0 -11 -6 -23l-284 -617q-21 -46 -82 -46q-27 0 -47.5 10t-31.5 33l-236 514zM496 905q-30 16 -30 42q0 22 15 32.5t35 10.5q32 0 46.5 -3t28.5 -10l203 -110q30 -16 30 -43q0 -21 -15 -31.5t-35 -10.5q-32 0 -46.5 3t-28.5 10z" />
    <glyph glyph-name="wgrave" unicode="&#x1e81;" horiz-adv-x="1184" 
d="M10 0zM393 30q-18 -34 -72 -34q-27 0 -46.5 8.5t-28.5 27.5l-230 482q-6 10 -6 19q0 17 19 26.5t50 9.5q44 0 54 -23l187 -420l210 404q12 23 25.5 31t39.5 8q15 0 24.5 -2.5t16 -7t11.5 -12t10 -17.5l202 -404l191 420q10 23 55 23q31 0 50 -9.5t19 -26.5q0 -9 -6 -19
l-236 -482q-9 -19 -28.5 -27.5t-45.5 -8.5q-25 0 -44.5 8t-28.5 26l-192 390zM393 745q-30 16 -30 42q0 22 15 32.5t35 10.5q32 0 46.5 -3t28.5 -10l203 -110q30 -16 30 -43q0 -21 -15 -31.5t-35 -10.5q-32 0 -46.5 3t-28.5 10z" />
    <glyph glyph-name="Wacute" unicode="&#x1e82;" horiz-adv-x="1391" 
d="M12 0zM455 39q-19 -43 -77 -43q-29 0 -50 11t-32 35l-278 617q-6 12 -6 23q0 22 20.5 34.5t52.5 12.5q23 0 36.5 -7.5t20.5 -22.5l234 -549l243 529q14 29 30 39.5t46 10.5q32 0 45.5 -10.5t26.5 -39.5l242 -529l240 549q13 30 57 30q32 0 52.5 -12.5t20.5 -34.5
q0 -11 -6 -23l-284 -617q-21 -46 -82 -46q-27 0 -47.5 10t-31.5 33l-236 514zM691 795q-14 -7 -28.5 -10t-46.5 -3q-20 0 -35 10.5t-15 31.5q0 27 30 43l203 110q14 7 28.5 10t46.5 3q20 0 35 -10.5t15 -32.5q0 -26 -30 -42z" />
    <glyph glyph-name="wacute" unicode="&#x1e83;" horiz-adv-x="1184" 
d="M10 0zM393 30q-18 -34 -72 -34q-27 0 -46.5 8.5t-28.5 27.5l-230 482q-6 10 -6 19q0 17 19 26.5t50 9.5q44 0 54 -23l187 -420l210 404q12 23 25.5 31t39.5 8q15 0 24.5 -2.5t16 -7t11.5 -12t10 -17.5l202 -404l191 420q10 23 55 23q31 0 50 -9.5t19 -26.5q0 -9 -6 -19
l-236 -482q-9 -19 -28.5 -27.5t-45.5 -8.5q-25 0 -44.5 8t-28.5 26l-192 390zM588 635q-14 -7 -28.5 -10t-46.5 -3q-20 0 -35 10.5t-15 31.5q0 27 30 43l203 110q14 7 28.5 10t46.5 3q20 0 35 -10.5t15 -32.5q0 -26 -30 -42z" />
    <glyph glyph-name="Wdieresis" unicode="&#x1e84;" horiz-adv-x="1391" 
d="M12 0zM455 39q-19 -43 -77 -43q-29 0 -50 11t-32 35l-278 617q-6 12 -6 23q0 22 20.5 34.5t52.5 12.5q23 0 36.5 -7.5t20.5 -22.5l234 -549l243 529q14 29 30 39.5t46 10.5q32 0 45.5 -10.5t26.5 -39.5l242 -529l240 549q13 30 57 30q32 0 52.5 -12.5t20.5 -34.5
q0 -11 -6 -23l-284 -617q-21 -46 -82 -46q-27 0 -47.5 10t-31.5 33l-236 514zM731 857q0 32 18.5 47t60.5 15t60.5 -15t18.5 -47t-18.5 -47t-60.5 -15t-60.5 15t-18.5 47zM501 857q0 32 18.5 47t60.5 15t60.5 -15t18.5 -47t-18.5 -47t-60.5 -15t-60.5 15t-18.5 47z" />
    <glyph glyph-name="wdieresis" unicode="&#x1e85;" horiz-adv-x="1184" 
d="M10 0zM393 30q-18 -34 -72 -34q-27 0 -46.5 8.5t-28.5 27.5l-230 482q-6 10 -6 19q0 17 19 26.5t50 9.5q44 0 54 -23l187 -420l210 404q12 23 25.5 31t39.5 8q15 0 24.5 -2.5t16 -7t11.5 -12t10 -17.5l202 -404l191 420q10 23 55 23q31 0 50 -9.5t19 -26.5q0 -9 -6 -19
l-236 -482q-9 -19 -28.5 -27.5t-45.5 -8.5q-25 0 -44.5 8t-28.5 26l-192 390zM628 697q0 32 18.5 47t60.5 15t60.5 -15t18.5 -47t-18.5 -47t-60.5 -15t-60.5 15t-18.5 47zM398 697q0 32 18.5 47t60.5 15t60.5 -15t18.5 -47t-18.5 -47t-60.5 -15t-60.5 15t-18.5 47z" />
    <glyph glyph-name="Ygrave" unicode="&#x1ef2;" horiz-adv-x="919" 
d="M11 0zM32 649q-21 19 -21 40q0 16 17 28t55 12q22 0 33.5 -4.5t22.5 -14.5l321 -312l320 312q10 10 22 14.5t34 4.5q38 0 55 -11.5t17 -28.5q0 -21 -21 -40l-361 -349v-257q0 -29 -17 -38t-50 -9q-32 0 -49 9t-17 38v257zM260 905q-30 16 -30 42q0 22 15 32.5t35 10.5
q32 0 46.5 -3t28.5 -10l203 -110q30 -16 30 -43q0 -21 -15 -31.5t-35 -10.5q-32 0 -46.5 3t-28.5 10z" />
    <glyph glyph-name="ygrave" unicode="&#x1ef3;" horiz-adv-x="880" 
d="M43 0zM706 115v407q0 29 15.5 38t47.5 9t48 -9t16 -38v-513q0 -87 -66.5 -130t-192.5 -43h-138q-23 0 -29.5 13t-6.5 38t6.5 37.5t29.5 12.5h138q74 0 103 18.5t29 53.5v5h-380q-283 0 -283 174v334q0 29 15.5 38t47.5 9t48 -9t16 -38v-335q0 -31 38 -51.5t122 -20.5h376
zM241 745q-30 16 -30 42q0 22 15 32.5t35 10.5q32 0 46.5 -3t28.5 -10l203 -110q30 -16 30 -43q0 -21 -15 -31.5t-35 -10.5q-32 0 -46.5 3t-28.5 10z" />
    <glyph glyph-name="endash" unicode="&#x2013;" horiz-adv-x="587" 
d="M539 408q23 0 29.5 -13t6.5 -38t-6.5 -37.5t-29.5 -12.5h-491q-23 0 -29.5 12.5t-6.5 37.5t6.5 38t29.5 13h491z" />
    <glyph glyph-name="emdash" unicode="&#x2014;" horiz-adv-x="758" 
d="M719 408q23 0 29.5 -13t6.5 -38t-6.5 -37.5t-29.5 -12.5h-680q-23 0 -29.5 12.5t-6.5 37.5t6.5 38t29.5 13h680z" />
    <glyph glyph-name="quoteleft" unicode="&#x2018;" horiz-adv-x="195" 
d="M18 678q-1 5 -1.5 11.5t-0.5 11.5q0 23 14.5 31t49.5 8t50 -8.5t19 -31.5l26 -161q2 -9 3 -17.5t1 -14.5q0 -20 -15.5 -28t-49.5 -8q-35 0 -50 8.5t-19 31.5z" />
    <glyph glyph-name="quoteright" unicode="&#x2019;" horiz-adv-x="195" 
d="M150 511q-4 -23 -19 -31.5t-50 -8.5q-34 0 -49.5 8t-15.5 28q0 6 1 14.5t3 17.5l26 161q4 23 19 31.5t50 8.5t49.5 -8t14.5 -31q0 -5 -0.5 -11.5t-1.5 -11.5z" />
    <glyph glyph-name="quotesinglbase" unicode="&#x201a;" horiz-adv-x="195" 
d="M150 -54q-4 -23 -19 -31.5t-50 -8.5q-34 0 -49.5 8t-15.5 28q0 6 1 14.5t3 17.5l26 161q4 23 19 31.5t50 8.5t49.5 -8t14.5 -31q0 -5 -0.5 -11.5t-1.5 -11.5zM150 -54q-4 -23 -19 -31.5t-50 -8.5q-34 0 -49.5 8t-15.5 28q0 6 1 14.5t3 17.5l26 161q4 23 19 31.5t50 8.5
t49.5 -8t14.5 -31q0 -5 -0.5 -11.5t-1.5 -11.5z" />
    <glyph glyph-name="quotedblleft" unicode="&#x201c;" horiz-adv-x="375" 
d="M18 678q-1 5 -1.5 11.5t-0.5 11.5q0 23 14.5 31t49.5 8t50 -8.5t19 -31.5l26 -161q2 -9 3 -17.5t1 -14.5q0 -20 -15.5 -28t-49.5 -8q-35 0 -50 8.5t-19 31.5zM198 678q-1 5 -1.5 11.5t-0.5 11.5q0 23 14.5 31t49.5 8t50 -8.5t19 -31.5l26 -161q2 -9 3 -17.5t1 -14.5
q0 -20 -15.5 -28t-49.5 -8q-35 0 -50 8.5t-19 31.5z" />
    <glyph glyph-name="quotedblright" unicode="&#x201d;" horiz-adv-x="375" 
d="M330 511q-4 -23 -19 -31.5t-50 -8.5q-34 0 -49.5 8t-15.5 28q0 6 1 14.5t3 17.5l26 161q4 23 19 31.5t50 8.5t49.5 -8t14.5 -31q0 -5 -0.5 -11.5t-1.5 -11.5zM150 511q-4 -23 -19 -31.5t-50 -8.5q-34 0 -49.5 8t-15.5 28q0 6 1 14.5t3 17.5l26 161q4 23 19 31.5t50 8.5
t49.5 -8t14.5 -31q0 -5 -0.5 -11.5t-1.5 -11.5z" />
    <glyph glyph-name="quotedblbase" unicode="&#x201e;" horiz-adv-x="375" 
d="M330 -54q-4 -23 -19 -31.5t-50 -8.5q-34 0 -49.5 8t-15.5 28q0 6 1 14.5t3 17.5l26 161q4 23 19 31.5t50 8.5t49.5 -8t14.5 -31q0 -5 -0.5 -11.5t-1.5 -11.5zM150 -54q-4 -23 -19 -31.5t-50 -8.5q-34 0 -49.5 8t-15.5 28q0 6 1 14.5t3 17.5l26 161q4 23 19 31.5t50 8.5
t49.5 -8t14.5 -31q0 -5 -0.5 -11.5t-1.5 -11.5z" />
    <glyph glyph-name="dagger" unicode="&#x2020;" horiz-adv-x="454" 
d="M267 26q-1 -18 -13 -24t-27 -6t-27 6t-13 24l-16 447h-86q-38 0 -38 40q0 41 38 41h77v116q0 59 65 59q64 0 64 -59v-116h80q36 0 36 -41q0 -40 -36 -40h-88z" />
    <glyph glyph-name="daggerdbl" unicode="&#x2021;" horiz-adv-x="454" 
d="M171 227l14 124l-14 122h-86q-38 0 -38 41q0 40 38 40h77v116q0 59 65 59q64 0 64 -59v-116h80q36 0 36 -40q0 -41 -36 -41h-88l-14 -122l14 -124h85q39 0 39 -42q0 -40 -39 -40h-77v-115q0 -60 -65 -60q-63 0 -63 60v115h-80q-36 0 -36 41t36 41h88z" />
    <glyph glyph-name="bullet" unicode="&#x2022;" horiz-adv-x="492" 
d="M445 240q0 -29 -31.5 -49t-101.5 -20h-132q-70 0 -101.5 20t-31.5 49v205q0 29 31.5 49t101.5 20h132q70 0 101.5 -20t31.5 -49v-205z" />
    <glyph glyph-name="ellipsis" unicode="&#x2026;" horiz-adv-x="981" 
d="M67 0zM67 58q0 32 18.5 47t60.5 15t60.5 -15t18.5 -47t-18.5 -47t-60.5 -15t-60.5 15t-18.5 47zM411 58q0 32 18.5 47t60.5 15t60.5 -15t18.5 -47t-18.5 -47t-60.5 -15t-60.5 15t-18.5 47zM755 58q0 32 18.5 47t60.5 15t60.5 -15t18.5 -47t-18.5 -47t-60.5 -15t-60.5 15
t-18.5 47z" />
    <glyph glyph-name="perthousand" unicode="&#x2030;" horiz-adv-x="1518" 
d="M209 310q-171 0 -171 110v194q0 111 171 111h60q171 0 171 -111v-194q0 -110 -171 -110h-60zM267 385q44 0 64 10.5t20 24.5v194q0 15 -20 25t-64 10h-56q-44 0 -64 -10t-20 -25v-194q0 -14 20 -24.5t64 -10.5h56zM322 15q-15 -19 -46 -19q-44 0 -44 31q0 3 2.5 10
t11.5 20l495 654q8 11 19 14.5t27 3.5q44 0 44 -31q0 -5 -3 -11.5t-11 -17.5zM792 0q-171 0 -171 110v194q0 111 171 111h60q171 0 171 -111v-194q0 -110 -171 -110h-60zM850 75q44 0 64 10.5t20 24.5v194q0 15 -20 25t-64 10h-56q-44 0 -64 -10t-20 -25v-194
q0 -14 20 -24.5t64 -10.5h56zM1249 0q-171 0 -171 110v194q0 111 171 111h60q171 0 171 -111v-194q0 -110 -171 -110h-60zM1307 75q44 0 64 10.5t20 24.5v194q0 15 -20 25t-64 10h-56q-44 0 -64 -10t-20 -25v-194q0 -14 20 -24.5t64 -10.5h56z" />
    <glyph glyph-name="guilsinglleft" unicode="&#x2039;" horiz-adv-x="351" 
d="M28 282q0 20 4.5 32t12.5 20l237 228q7 7 14 7q11 0 17.5 -16.5t6.5 -39.5q0 -13 -3 -26t-12 -21l-194 -185l198 -188q8 -7 11 -19.5t3 -24.5q0 -21 -6.5 -37t-16.5 -16q-8 0 -15 7l-240 227q-17 15 -17 52z" />
    <glyph glyph-name="guilsinglright" unicode="&#x203a;" horiz-adv-x="351" 
d="M323 282q0 -37 -17 -52l-240 -227q-7 -7 -15 -7q-10 0 -16.5 16t-6.5 37q0 12 3 24.5t11 19.5l198 188l-194 185q-9 8 -12 21t-3 26q0 23 6.5 39.5t17.5 16.5q7 0 14 -7l237 -228q8 -8 12.5 -20t4.5 -32z" />
    <glyph glyph-name="fraction" unicode="&#x2044;" horiz-adv-x="206" 
d="M-106 15q-15 -19 -46 -19q-44 0 -44 31q0 3 2.5 10t11.5 20l495 654q8 11 19 14.5t27 3.5q44 0 44 -31q0 -5 -3 -11.5t-11 -17.5z" />
    <glyph glyph-name="zerosuperior" unicode="&#x2070;" horiz-adv-x="557" 
d="M27 310zM198 310q-171 0 -171 110v194q0 111 171 111h160q171 0 171 -111v-194q0 -110 -171 -110h-160zM356 385q44 0 64 10.5t20 24.5v194q0 15 -20 25t-64 10h-156q-44 0 -64 -10t-20 -25v-194q0 -14 20 -24.5t64 -10.5h156z" />
    <glyph glyph-name="foursuperior" unicode="&#x2074;" horiz-adv-x="622" 
d="M30 308zM119 491h381v202q0 20 11.5 27t33.5 7t33 -7t11 -27v-351q0 -20 -11 -27t-33 -7t-33.5 7t-11.5 27v74h-435q-14 0 -24.5 6.5t-10.5 23.5v247q0 20 11.5 27t33.5 7t33 -7t11 -27v-202z" />
    <glyph glyph-name="fivesuperior" unicode="&#x2075;" horiz-adv-x="592" 
d="M31 310zM399 589q171 0 171 -110v-59q0 -110 -171 -110h-339q-17 0 -23 9.5t-6 28.5q0 20 6 28.5t23 8.5h341q44 0 62 10t18 25v59q0 14 -18 24.5t-62 10.5h-335q-34 0 -34 31v145q0 35 34 35h243q17 0 23 -9.5t6 -28.5t-6 -28.5t-23 -9.5h-188v-60h278z" />
    <glyph glyph-name="sixsuperior" unicode="&#x2076;" horiz-adv-x="599" 
d="M28 310zM199 310q-171 0 -171 110v194q0 111 171 111h99q17 0 23 -9.5t6 -28.5t-6 -28.5t-23 -9.5h-97q-44 0 -64 -10t-20 -25v-24h289q170 0 170 -110v-60q0 -110 -170 -110h-207zM403 385q45 0 65 10.5t20 24.5v60q0 15 -20 25t-65 10h-286v-95q0 -14 20 -24.5
t64 -10.5h202z" />
    <glyph glyph-name="sevensuperior" unicode="&#x2077;" horiz-adv-x="562" 
d="M17 308zM476 725q32 0 50.5 -9t18.5 -35q0 -11 -3 -18.5t-10 -15.5l-277 -321q-15 -18 -44 -18q-42 0 -42 30q0 5 2.5 13t12.5 19l242 279h-380q-17 0 -23 9.5t-6 28.5t6 28.5t23 9.5h430z" />
    <glyph glyph-name="eightsuperior" unicode="&#x2078;" horiz-adv-x="554" 
d="M20 310zM190 310q-32 0 -62.5 5t-54.5 18.5t-38.5 37t-14.5 61.5q0 35 12 54.5t34 30.5q-26 16 -33.5 36.5t-7.5 45.5q0 38 12 62.5t34.5 38.5t53.5 19.5t70 5.5h164q39 0 70 -5.5t53.5 -19.5t34.5 -38.5t12 -62.5q0 -25 -7.5 -45.5t-33.5 -36.5q20 -10 33 -28t13 -56
t-14.5 -62t-38.5 -37.5t-54.5 -18.5t-62.5 -5h-174zM111 430q0 -12 2.5 -20.5t10.5 -14t22.5 -8t39.5 -2.5h182q25 0 39.5 2.5t22.5 8t10.5 14t2.5 20.5q0 13 -3 22.5t-12 15.5t-25.5 9t-42.5 3h-166q-26 0 -42.5 -3t-25.5 -9t-12 -15.5t-3 -22.5zM187 649q-23 0 -38 -2.5
t-23 -8.5t-11 -14.5t-3 -20.5q0 -29 16.5 -38t61.5 -9h174q45 0 62 9t17 38q0 24 -15 35t-61 11h-180z" />
    <glyph glyph-name="ninesuperior" unicode="&#x2079;" horiz-adv-x="567" 
d="M23 310zM368 725q171 0 171 -111v-194q0 -110 -171 -110h-78q-19 0 -24 9.5t-5 28.5q0 20 5 28.5t24 8.5h76q44 0 64 10t20 25v25h-256q-171 0 -171 110v59q0 111 171 111h174zM196 649q-44 0 -64 -10t-20 -25v-59q0 -15 20 -25t64 -10h254v94q0 15 -20 25t-64 10h-170z
" />
    <glyph glyph-name="zeroinferior" unicode="&#x2080;" horiz-adv-x="557" 
d="M198 0q-171 0 -171 110v194q0 111 171 111h160q171 0 171 -111v-194q0 -110 -171 -110h-160zM356 75q44 0 64 10.5t20 24.5v194q0 15 -20 25t-64 10h-156q-44 0 -64 -10t-20 -25v-194q0 -14 20 -24.5t64 -10.5h156z" />
    <glyph glyph-name="oneinferior" unicode="&#x2081;" horiz-adv-x="155" 
d="M122 32q0 -20 -11.5 -27t-33.5 -7t-33 7t-11 27v351q0 20 11 27t33 7t33.5 -7t11.5 -27v-351z" />
    <glyph glyph-name="twoinferior" unicode="&#x2082;" horiz-adv-x="590" 
d="M199 167q-44 0 -62 -10t-18 -25v-57h411q17 0 23 -8.5t6 -28.5q0 -19 -6 -28.5t-23 -9.5h-466q-34 0 -34 35v97q0 111 171 111h189q44 0 62.5 10t18.5 24v27q0 15 -18.5 25t-62.5 10h-85q-19 0 -24.5 9.5t-5.5 28.5t5.5 28.5t24.5 9.5h83q171 0 171 -111v-27
q0 -110 -171 -110h-189z" />
    <glyph glyph-name="threeinferior" unicode="&#x2083;" horiz-adv-x="579" 
d="M468 120q0 13 -3 22.5t-12 15.5t-25 9t-42 3h-327q-19 0 -24 9.5t-5 28.5t5 28.5t24 9.5h331q45 0 61.5 9t16.5 38q0 24 -14.5 35t-61.5 11h-83q-17 0 -23 9.5t-6 28.5t6 28.5t23 9.5h76q37 0 68.5 -5.5t53.5 -19.5t34.5 -37.5t12.5 -60.5q0 -27 -8.5 -49t-31.5 -37
q21 -11 33 -30t12 -54q0 -38 -14.5 -61.5t-38.5 -37t-54.5 -18.5t-62.5 -5h-331q-17 0 -23 9.5t-6 28.5q0 20 6 28.5t23 8.5h335q25 0 39.5 2.5t22.5 8t10.5 14t2.5 20.5z" />
    <glyph glyph-name="fourinferior" unicode="&#x2084;" horiz-adv-x="622" 
d="M119 181h381v202q0 20 11.5 27t33.5 7t33 -7t11 -27v-351q0 -20 -11 -27t-33 -7t-33.5 7t-11.5 27v74h-435q-14 0 -24.5 6.5t-10.5 23.5v247q0 20 11.5 27t33.5 7t33 -7t11 -27v-202z" />
    <glyph glyph-name="fiveinferior" unicode="&#x2085;" horiz-adv-x="592" 
d="M399 279q171 0 171 -110v-59q0 -110 -171 -110h-339q-17 0 -23 9.5t-6 28.5q0 20 6 28.5t23 8.5h341q44 0 62 10t18 25v59q0 14 -18 24.5t-62 10.5h-335q-34 0 -34 31v145q0 35 34 35h243q17 0 23 -9.5t6 -28.5t-6 -28.5t-23 -9.5h-188v-60h278z" />
    <glyph glyph-name="sixinferior" unicode="&#x2086;" horiz-adv-x="599" 
d="M199 0q-171 0 -171 110v194q0 111 171 111h99q17 0 23 -9.5t6 -28.5t-6 -28.5t-23 -9.5h-97q-44 0 -64 -10t-20 -25v-24h289q170 0 170 -110v-60q0 -110 -170 -110h-207zM403 75q45 0 65 10.5t20 24.5v60q0 15 -20 25t-65 10h-286v-95q0 -14 20 -24.5t64 -10.5h202z" />
    <glyph glyph-name="seveninferior" unicode="&#x2087;" horiz-adv-x="562" 
d="M476 415q32 0 50.5 -9t18.5 -35q0 -11 -3 -18.5t-10 -15.5l-277 -321q-15 -18 -44 -18q-42 0 -42 30q0 5 2.5 13t12.5 19l242 279h-380q-17 0 -23 9.5t-6 28.5t6 28.5t23 9.5h430z" />
    <glyph glyph-name="eightinferior" unicode="&#x2088;" horiz-adv-x="554" 
d="M190 0q-32 0 -62.5 5t-54.5 18.5t-38.5 37t-14.5 61.5q0 35 12 54.5t34 30.5q-26 16 -33.5 36.5t-7.5 45.5q0 38 12 62.5t34.5 38.5t53.5 19.5t70 5.5h164q39 0 70 -5.5t53.5 -19.5t34.5 -38.5t12 -62.5q0 -25 -7.5 -45.5t-33.5 -36.5q20 -10 33 -28t13 -56t-14.5 -62
t-38.5 -37.5t-54.5 -18.5t-62.5 -5h-174zM111 120q0 -12 2.5 -20.5t10.5 -14t22.5 -8t39.5 -2.5h182q25 0 39.5 2.5t22.5 8t10.5 14t2.5 20.5q0 13 -3 22.5t-12 15.5t-25.5 9t-42.5 3h-166q-26 0 -42.5 -3t-25.5 -9t-12 -15.5t-3 -22.5zM187 339q-23 0 -38 -2.5t-23 -8.5
t-11 -14.5t-3 -20.5q0 -29 16.5 -38t61.5 -9h174q45 0 62 9t17 38q0 24 -15 35t-61 11h-180z" />
    <glyph glyph-name="nineinferior" unicode="&#x2089;" horiz-adv-x="567" 
d="M368 415q171 0 171 -111v-194q0 -110 -171 -110h-78q-19 0 -24 9.5t-5 28.5q0 20 5 28.5t24 8.5h76q44 0 64 10t20 25v25h-256q-171 0 -171 110v59q0 111 171 111h174zM196 339q-44 0 -64 -10t-20 -25v-59q0 -15 20 -25t64 -10h254v94q0 15 -20 25t-64 10h-170z" />
    <glyph glyph-name="uni20A4" unicode="&#x20a4;" horiz-adv-x="838" 
d="M152 289v87h-69q-23 0 -29.5 12.5t-6.5 37.5t6.5 38t29.5 13h69v62q0 186 297 186h71q24 0 31 -14t7 -41q0 -26 -7 -39.5t-31 -13.5h-68q-88 0 -127.5 -23t-39.5 -55v-62h424q23 0 29.5 -13t6.5 -38t-6.5 -37.5t-29.5 -12.5h-424v-87h424q23 0 29.5 -13t6.5 -38
t-6.5 -37.5t-29.5 -12.5h-424v-80h472q24 0 31.5 -13.5t7.5 -40.5t-7.5 -40.5t-31.5 -13.5h-706q-24 0 -31.5 13.5t-7.5 40.5t7.5 40.5t31.5 13.5h101v80h-70q-23 0 -29.5 12.5t-6.5 37.5t6.5 38t29.5 13h70z" />
    <glyph glyph-name="Euro" unicode="&#x20ac;" horiz-adv-x="925" 
d="M403 0q-296 0 -296 186v28h-43q-24 0 -31.5 13.5t-7.5 40.5t7.5 40.5t31.5 13.5h43v92h-43q-24 0 -31.5 13.5t-7.5 40.5t7.5 40.5t31.5 13.5h43v17q0 186 296 186h440q24 0 31.5 -13.5t7.5 -40.5t-7.5 -40.5t-31.5 -13.5h-436q-88 0 -128 -22.5t-40 -55.5v-17h424
q24 0 31.5 -13.5t7.5 -40.5t-7.5 -40.5t-31.5 -13.5h-424v-92h256q24 0 31.5 -13.5t7.5 -40.5t-7.5 -40.5t-31.5 -13.5h-256v-28q0 -32 40 -55t128 -23h437q24 0 31 -13.5t7 -40.5q0 -26 -7 -40t-31 -14h-441z" />
    <glyph glyph-name="uni20B9" unicode="&#x20b9;" horiz-adv-x="877" 
d="M728 421v-24q0 -37 -20.5 -67t-58.5 -51t-92.5 -32.5t-122.5 -11.5h-55l229 -147q16 -11 24 -19.5t8 -25.5q0 -24 -16 -35.5t-43 -11.5q-34 0 -54 2.5t-34 11.5l-332 225q-31 21 -31 52q0 21 16.5 37.5t46.5 16.5h229q51 0 84.5 5t53.5 13.5t28 20t8 25.5v16h-528
q-24 0 -31.5 13.5t-7.5 40.5t7.5 40.5t31.5 13.5h528v24q0 13 -8 25t-28 20.5t-53.5 13.5t-84.5 5h-354q-24 0 -31.5 13.5t-7.5 40.5t7.5 40.5t31.5 13.5h741q24 0 31.5 -13.5t7.5 -40.5t-7.5 -40.5t-31.5 -13.5h-94q13 -28 13 -54v-34h81q24 0 31.5 -13.5t7.5 -40.5
t-7.5 -40.5t-31.5 -13.5h-81z" />
    <glyph glyph-name="uni20BA" unicode="&#x20ba;" horiz-adv-x="912" 
d="M112 541v141q0 29 17 38t49 9q33 0 50 -9t17 -38v-85l230 96q11 5 26 8t41 3q21 0 33.5 -9t12.5 -26q0 -26 -25 -36l-318 -133v-93l230 96q11 5 26 8t41 3q21 0 33.5 -9t12.5 -26q0 -26 -25 -36l-318 -133v-124q0 -32 39.5 -55t127.5 -23h430q24 0 31 -13.5t7 -39.5
q0 -27 -7 -41t-31 -14h-434q-296 0 -296 186v74q-8 -2 -15.5 -2h-18.5q-20 0 -32.5 9t-12.5 26q0 26 25 36l54 22v99q-8 -2 -15.5 -2h-18.5q-20 0 -32.5 9t-12.5 26q0 26 25 36z" />
    <glyph glyph-name="uni20BD" unicode="&#x20bd;" horiz-adv-x="1002" 
d="M289 113v-70q0 -29 -17 -38t-50 -9q-32 0 -49 9t-17 38v70h-79q-23 0 -31 13.5t-8 40.5t8 40.5t31 13.5h79v85h-79q-23 0 -31 13.5t-8 40.5t8 40.5t31 13.5h79v265q0 46 47 46h467q68 0 122.5 -11.5t92.5 -32.5t58.5 -51t20.5 -67v-95q0 -37 -20.5 -67t-58.5 -51
t-92.5 -32.5t-122.5 -11.5h-381v-85h560q24 0 32 -13.5t8 -40.5t-8 -40.5t-32 -13.5h-560zM289 617v-203h369q51 0 84.5 5t53.5 13.5t28 20t8 25.5v75q0 13 -8 25t-28 20.5t-53.5 13.5t-84.5 5h-369z" />
    <glyph glyph-name="uni2117" unicode="&#x2117;" 
d="M818 193q0 -91 -54 -142t-175 -51h-313q-121 0 -175 51t-54 142v339q0 91 54 142t175 51h313q121 0 175 -51t54 -142v-339zM110 200q0 -69 41.5 -102t125.5 -33h311q84 0 125.5 33t41.5 102v325q0 69 -41.5 102t-125.5 33h-311q-84 0 -125.5 -33t-41.5 -102v-325z
M199 535q0 24 24 24h299q72 0 113.5 -23.5t41.5 -61.5v-77q0 -38 -41.5 -61.5t-113.5 -23.5h-253v-112q0 -15 -9 -20t-27 -5q-17 0 -25.5 5t-8.5 20v335zM269 502v-133h247q54 0 73 10t19 24v65q0 14 -19 24t-73 10h-247z" />
    <glyph glyph-name="trademark" unicode="&#x2122;" horiz-adv-x="1116" 
d="M254 661v-342q0 -17 -10 -22.5t-30 -5.5t-30 5.5t-10 22.5v342h-129q-14 0 -18.5 7.5t-4.5 24.5q0 16 4.5 24t18.5 8h338q14 0 19 -8t5 -24q0 -17 -5 -24.5t-19 -7.5h-129zM971 703q8 12 20.5 16.5t26.5 4.5q44 0 44 -41v-364q0 -17 -10 -22.5t-30 -5.5t-30 5.5t-10 22.5
v265l-177 -270q-9 -14 -20 -18.5t-27 -4.5q-18 0 -30 5t-20 18l-178 270v-265q0 -17 -10 -22.5t-30 -5.5t-30 5.5t-10 22.5v364q0 41 44 41q15 0 27 -5t20 -16l214 -322z" />
    <glyph glyph-name="onethird" unicode="&#x2153;" horiz-adv-x="937" 
d="M38 0zM201 342q0 -20 -11.5 -27t-33.5 -7t-33 7t-11 27v351q0 20 11 27t33 7t33.5 -7t11.5 -27v-351zM128 15q-15 -19 -46 -19q-44 0 -44 31q0 3 2.5 10t11.5 20l495 654q8 11 19 14.5t27 3.5q44 0 44 -31q0 -5 -3 -11.5t-11 -17.5zM808 120q0 13 -3 22.5t-12 15.5t-25 9
t-42 3h-327q-19 0 -24 9.5t-5 28.5t5 28.5t24 9.5h331q45 0 61.5 9t16.5 38q0 24 -14.5 35t-61.5 11h-83q-17 0 -23 9.5t-6 28.5t6 28.5t23 9.5h76q37 0 68.5 -5.5t53.5 -19.5t34.5 -37.5t12.5 -60.5q0 -27 -8.5 -49t-31.5 -37q21 -11 33 -30t12 -54q0 -38 -14.5 -61.5
t-38.5 -37t-54.5 -18.5t-62.5 -5h-331q-17 0 -23 9.5t-6 28.5q0 20 6 28.5t23 8.5h335q25 0 39.5 2.5t22.5 8t10.5 14t2.5 20.5z" />
    <glyph glyph-name="twothirds" unicode="&#x2154;" horiz-adv-x="1301" 
d="M38 0zM207 477q-44 0 -62 -10t-18 -25v-57h411q17 0 23 -8.5t6 -28.5q0 -19 -6 -28.5t-23 -9.5h-466q-34 0 -34 35v97q0 111 171 111h189q44 0 62.5 10t18.5 24v27q0 15 -18.5 25t-62.5 10h-85q-19 0 -24.5 9.5t-5.5 28.5t5.5 28.5t24.5 9.5h83q171 0 171 -111v-27
q0 -110 -171 -110h-189zM492 15q-15 -19 -46 -19q-44 0 -44 31q0 3 2.5 10t11.5 20l495 654q8 11 19 14.5t27 3.5q44 0 44 -31q0 -5 -3 -11.5t-11 -17.5zM1172 120q0 13 -3 22.5t-12 15.5t-25 9t-42 3h-327q-19 0 -24 9.5t-5 28.5t5 28.5t24 9.5h331q45 0 61.5 9t16.5 38
q0 24 -14.5 35t-61.5 11h-83q-17 0 -23 9.5t-6 28.5t6 28.5t23 9.5h76q37 0 68.5 -5.5t53.5 -19.5t34.5 -37.5t12.5 -60.5q0 -27 -8.5 -49t-31.5 -37q21 -11 33 -30t12 -54q0 -38 -14.5 -61.5t-38.5 -37t-54.5 -18.5t-62.5 -5h-331q-17 0 -23 9.5t-6 28.5q0 20 6 28.5
t23 8.5h335q25 0 39.5 2.5t22.5 8t10.5 14t2.5 20.5z" />
    <glyph glyph-name="uni2155" unicode="&#x2155;" horiz-adv-x="1048" 
d="M38 0zM201 342q0 -20 -11.5 -27t-33.5 -7t-33 7t-11 27v351q0 20 11 27t33 7t33.5 -7t11.5 -27v-351zM128 15q-15 -19 -46 -19q-44 0 -44 31q0 3 2.5 10t11.5 20l495 654q8 11 19 14.5t27 3.5q44 0 44 -31q0 -5 -3 -11.5t-11 -17.5zM839 279q171 0 171 -110v-59
q0 -110 -171 -110h-339q-17 0 -23 9.5t-6 28.5q0 20 6 28.5t23 8.5h341q44 0 62 10t18 25v59q0 14 -18 24.5t-62 10.5h-335q-34 0 -34 31v145q0 35 34 35h243q17 0 23 -9.5t6 -28.5t-6 -28.5t-23 -9.5h-188v-60h278z" />
    <glyph glyph-name="uni2156" unicode="&#x2156;" horiz-adv-x="1412" 
d="M38 0zM207 477q-44 0 -62 -10t-18 -25v-57h411q17 0 23 -8.5t6 -28.5q0 -19 -6 -28.5t-23 -9.5h-466q-34 0 -34 35v97q0 111 171 111h189q44 0 62.5 10t18.5 24v27q0 15 -18.5 25t-62.5 10h-85q-19 0 -24.5 9.5t-5.5 28.5t5.5 28.5t24.5 9.5h83q171 0 171 -111v-27
q0 -110 -171 -110h-189zM492 15q-15 -19 -46 -19q-44 0 -44 31q0 3 2.5 10t11.5 20l495 654q8 11 19 14.5t27 3.5q44 0 44 -31q0 -5 -3 -11.5t-11 -17.5zM1203 279q171 0 171 -110v-59q0 -110 -171 -110h-339q-17 0 -23 9.5t-6 28.5q0 20 6 28.5t23 8.5h341q44 0 62 10
t18 25v59q0 14 -18 24.5t-62 10.5h-335q-34 0 -34 31v145q0 35 34 35h243q17 0 23 -9.5t6 -28.5t-6 -28.5t-23 -9.5h-188v-60h278z" />
    <glyph glyph-name="uni2157" unicode="&#x2157;" horiz-adv-x="1382" 
d="M38 0zM477 430q0 13 -3 22.5t-12 15.5t-25 9t-42 3h-327q-19 0 -24 9.5t-5 28.5t5 28.5t24 9.5h331q45 0 61.5 9t16.5 38q0 24 -14.5 35t-61.5 11h-83q-17 0 -23 9.5t-6 28.5t6 28.5t23 9.5h76q37 0 68.5 -5.5t53.5 -19.5t34.5 -37.5t12.5 -60.5q0 -27 -8.5 -49
t-31.5 -37q21 -11 33 -30t12 -54q0 -38 -14.5 -61.5t-38.5 -37t-54.5 -18.5t-62.5 -5h-331q-17 0 -23 9.5t-6 28.5q0 20 6 28.5t23 8.5h335q25 0 39.5 2.5t22.5 8t10.5 14t2.5 20.5zM462 15q-15 -19 -46 -19q-44 0 -44 31q0 3 2.5 10t11.5 20l495 654q8 11 19 14.5t27 3.5
q44 0 44 -31q0 -5 -3 -11.5t-11 -17.5zM1173 279q171 0 171 -110v-59q0 -110 -171 -110h-339q-17 0 -23 9.5t-6 28.5q0 20 6 28.5t23 8.5h341q44 0 62 10t18 25v59q0 14 -18 24.5t-62 10.5h-335q-34 0 -34 31v145q0 35 34 35h243q17 0 23 -9.5t6 -28.5t-6 -28.5t-23 -9.5
h-188v-60h278z" />
    <glyph glyph-name="uni2158" unicode="&#x2158;" horiz-adv-x="1444" 
d="M38 0zM127 491h381v202q0 20 11.5 27t33.5 7t33 -7t11 -27v-351q0 -20 -11 -27t-33 -7t-33.5 7t-11.5 27v74h-435q-14 0 -24.5 6.5t-10.5 23.5v247q0 20 11.5 27t33.5 7t33 -7t11 -27v-202zM524 15q-15 -19 -46 -19q-44 0 -44 31q0 3 2.5 10t11.5 20l495 654
q8 11 19 14.5t27 3.5q44 0 44 -31q0 -5 -3 -11.5t-11 -17.5zM1235 279q171 0 171 -110v-59q0 -110 -171 -110h-339q-17 0 -23 9.5t-6 28.5q0 20 6 28.5t23 8.5h341q44 0 62 10t18 25v59q0 14 -18 24.5t-62 10.5h-335q-34 0 -34 31v145q0 35 34 35h243q17 0 23 -9.5t6 -28.5
t-6 -28.5t-23 -9.5h-188v-60h278z" />
    <glyph glyph-name="uni2159" unicode="&#x2159;" horiz-adv-x="1034" 
d="M38 0zM201 342q0 -20 -11.5 -27t-33.5 -7t-33 7t-11 27v351q0 20 11 27t33 7t33.5 -7t11.5 -27v-351zM128 15q-15 -19 -46 -19q-44 0 -44 31q0 3 2.5 10t11.5 20l495 654q8 11 19 14.5t27 3.5q44 0 44 -31q0 -5 -3 -11.5t-11 -17.5zM619 0q-171 0 -171 110v194
q0 111 171 111h99q17 0 23 -9.5t6 -28.5t-6 -28.5t-23 -9.5h-97q-44 0 -64 -10t-20 -25v-24h289q170 0 170 -110v-60q0 -110 -170 -110h-207zM823 75q45 0 65 10.5t20 24.5v60q0 15 -20 25t-65 10h-286v-95q0 -14 20 -24.5t64 -10.5h202z" />
    <glyph glyph-name="uni215A" unicode="&#x215a;" horiz-adv-x="1369" 
d="M38 0zM406 589q171 0 171 -110v-59q0 -110 -171 -110h-339q-17 0 -23 9.5t-6 28.5q0 20 6 28.5t23 8.5h341q44 0 62 10t18 25v59q0 14 -18 24.5t-62 10.5h-335q-34 0 -34 31v145q0 35 34 35h243q17 0 23 -9.5t6 -28.5t-6 -28.5t-23 -9.5h-188v-60h278zM463 15
q-15 -19 -46 -19q-44 0 -44 31q0 3 2.5 10t11.5 20l495 654q8 11 19 14.5t27 3.5q44 0 44 -31q0 -5 -3 -11.5t-11 -17.5zM954 0q-171 0 -171 110v194q0 111 171 111h99q17 0 23 -9.5t6 -28.5t-6 -28.5t-23 -9.5h-97q-44 0 -64 -10t-20 -25v-24h289q170 0 170 -110v-60
q0 -110 -170 -110h-207zM1158 75q45 0 65 10.5t20 24.5v60q0 15 -20 25t-65 10h-286v-95q0 -14 20 -24.5t64 -10.5h202z" />
    <glyph glyph-name="oneeighth" unicode="&#x215b;" horiz-adv-x="992" 
d="M38 0zM201 342q0 -20 -11.5 -27t-33.5 -7t-33 7t-11 27v351q0 20 11 27t33 7t33.5 -7t11.5 -27v-351zM128 15q-15 -19 -46 -19q-44 0 -44 31q0 3 2.5 10t11.5 20l495 654q8 11 19 14.5t27 3.5q44 0 44 -31q0 -5 -3 -11.5t-11 -17.5zM610 0q-32 0 -62.5 5t-54.5 18.5
t-38.5 37t-14.5 61.5q0 35 12 54.5t34 30.5q-26 16 -33.5 36.5t-7.5 45.5q0 38 12 62.5t34.5 38.5t53.5 19.5t70 5.5h164q39 0 70 -5.5t53.5 -19.5t34.5 -38.5t12 -62.5q0 -25 -7.5 -45.5t-33.5 -36.5q20 -10 33 -28t13 -56t-14.5 -62t-38.5 -37.5t-54.5 -18.5t-62.5 -5
h-174zM531 120q0 -12 2.5 -20.5t10.5 -14t22.5 -8t39.5 -2.5h182q25 0 39.5 2.5t22.5 8t10.5 14t2.5 20.5q0 13 -3 22.5t-12 15.5t-25.5 9t-42.5 3h-166q-26 0 -42.5 -3t-25.5 -9t-12 -15.5t-3 -22.5zM607 339q-23 0 -38 -2.5t-23 -8.5t-11 -14.5t-3 -20.5q0 -29 16.5 -38
t61.5 -9h174q45 0 62 9t17 38q0 24 -15 35t-61 11h-180z" />
    <glyph glyph-name="threeeighths" unicode="&#x215c;" horiz-adv-x="1326" 
d="M38 0zM477 430q0 13 -3 22.5t-12 15.5t-25 9t-42 3h-327q-19 0 -24 9.5t-5 28.5t5 28.5t24 9.5h331q45 0 61.5 9t16.5 38q0 24 -14.5 35t-61.5 11h-83q-17 0 -23 9.5t-6 28.5t6 28.5t23 9.5h76q37 0 68.5 -5.5t53.5 -19.5t34.5 -37.5t12.5 -60.5q0 -27 -8.5 -49
t-31.5 -37q21 -11 33 -30t12 -54q0 -38 -14.5 -61.5t-38.5 -37t-54.5 -18.5t-62.5 -5h-331q-17 0 -23 9.5t-6 28.5q0 20 6 28.5t23 8.5h335q25 0 39.5 2.5t22.5 8t10.5 14t2.5 20.5zM462 15q-15 -19 -46 -19q-44 0 -44 31q0 3 2.5 10t11.5 20l495 654q8 11 19 14.5t27 3.5
q44 0 44 -31q0 -5 -3 -11.5t-11 -17.5zM944 0q-32 0 -62.5 5t-54.5 18.5t-38.5 37t-14.5 61.5q0 35 12 54.5t34 30.5q-26 16 -33.5 36.5t-7.5 45.5q0 38 12 62.5t34.5 38.5t53.5 19.5t70 5.5h164q39 0 70 -5.5t53.5 -19.5t34.5 -38.5t12 -62.5q0 -25 -7.5 -45.5t-33.5 -36.5
q20 -10 33 -28t13 -56t-14.5 -62t-38.5 -37.5t-54.5 -18.5t-62.5 -5h-174zM865 120q0 -12 2.5 -20.5t10.5 -14t22.5 -8t39.5 -2.5h182q25 0 39.5 2.5t22.5 8t10.5 14t2.5 20.5q0 13 -3 22.5t-12 15.5t-25.5 9t-42.5 3h-166q-26 0 -42.5 -3t-25.5 -9t-12 -15.5t-3 -22.5z
M941 339q-23 0 -38 -2.5t-23 -8.5t-11 -14.5t-3 -20.5q0 -29 16.5 -38t61.5 -9h174q45 0 62 9t17 38q0 24 -15 35t-61 11h-180z" />
    <glyph glyph-name="fiveeighths" unicode="&#x215d;" horiz-adv-x="1327" 
d="M38 0zM406 589q171 0 171 -110v-59q0 -110 -171 -110h-339q-17 0 -23 9.5t-6 28.5q0 20 6 28.5t23 8.5h341q44 0 62 10t18 25v59q0 14 -18 24.5t-62 10.5h-335q-34 0 -34 31v145q0 35 34 35h243q17 0 23 -9.5t6 -28.5t-6 -28.5t-23 -9.5h-188v-60h278zM463 15
q-15 -19 -46 -19q-44 0 -44 31q0 3 2.5 10t11.5 20l495 654q8 11 19 14.5t27 3.5q44 0 44 -31q0 -5 -3 -11.5t-11 -17.5zM945 0q-32 0 -62.5 5t-54.5 18.5t-38.5 37t-14.5 61.5q0 35 12 54.5t34 30.5q-26 16 -33.5 36.5t-7.5 45.5q0 38 12 62.5t34.5 38.5t53.5 19.5t70 5.5
h164q39 0 70 -5.5t53.5 -19.5t34.5 -38.5t12 -62.5q0 -25 -7.5 -45.5t-33.5 -36.5q20 -10 33 -28t13 -56t-14.5 -62t-38.5 -37.5t-54.5 -18.5t-62.5 -5h-174zM866 120q0 -12 2.5 -20.5t10.5 -14t22.5 -8t39.5 -2.5h182q25 0 39.5 2.5t22.5 8t10.5 14t2.5 20.5q0 13 -3 22.5
t-12 15.5t-25.5 9t-42.5 3h-166q-26 0 -42.5 -3t-25.5 -9t-12 -15.5t-3 -22.5zM942 339q-23 0 -38 -2.5t-23 -8.5t-11 -14.5t-3 -20.5q0 -29 16.5 -38t61.5 -9h174q45 0 62 9t17 38q0 24 -15 35t-61 11h-180z" />
    <glyph glyph-name="seveneighths" unicode="&#x215e;" horiz-adv-x="1203" 
d="M38 0zM497 725q32 0 50.5 -9t18.5 -35q0 -11 -3 -18.5t-10 -15.5l-277 -321q-15 -18 -44 -18q-42 0 -42 30q0 5 2.5 13t12.5 19l242 279h-380q-17 0 -23 9.5t-6 28.5t6 28.5t23 9.5h430zM339 15q-15 -19 -46 -19q-44 0 -44 31q0 3 2.5 10t11.5 20l495 654q8 11 19 14.5
t27 3.5q44 0 44 -31q0 -5 -3 -11.5t-11 -17.5zM821 0q-32 0 -62.5 5t-54.5 18.5t-38.5 37t-14.5 61.5q0 35 12 54.5t34 30.5q-26 16 -33.5 36.5t-7.5 45.5q0 38 12 62.5t34.5 38.5t53.5 19.5t70 5.5h164q39 0 70 -5.5t53.5 -19.5t34.5 -38.5t12 -62.5q0 -25 -7.5 -45.5
t-33.5 -36.5q20 -10 33 -28t13 -56t-14.5 -62t-38.5 -37.5t-54.5 -18.5t-62.5 -5h-174zM742 120q0 -12 2.5 -20.5t10.5 -14t22.5 -8t39.5 -2.5h182q25 0 39.5 2.5t22.5 8t10.5 14t2.5 20.5q0 13 -3 22.5t-12 15.5t-25.5 9t-42.5 3h-166q-26 0 -42.5 -3t-25.5 -9t-12 -15.5
t-3 -22.5zM818 339q-23 0 -38 -2.5t-23 -8.5t-11 -14.5t-3 -20.5q0 -29 16.5 -38t61.5 -9h174q45 0 62 9t17 38q0 24 -15 35t-61 11h-180z" />
    <glyph glyph-name="partialdiff" unicode="&#x2202;" horiz-adv-x="576" 
d="M450 298q11 52 11 102q0 81 -15 126.5t-43.5 69t-70 31t-93.5 13.5q-13 2 -23 10.5t-10 31.5q0 29 18.5 38t51.5 9q66 0 116 -22.5t84 -64t51.5 -100t17.5 -131.5q0 -77 -19.5 -151t-58 -133t-96 -95t-133.5 -36q-52 0 -91 17t-64.5 46.5t-38 69t-12.5 83.5q0 51 16 95
t45 76.5t71 51t95 18.5q47 0 81 -14.5t57 -37t35.5 -50t17.5 -53.5zM426 235q-8 64 -51.5 101.5t-107.5 37.5q-35 0 -63 -11.5t-48 -32t-31 -49t-11 -62.5q0 -59 33 -96t99 -37q67 0 111 40t69 109z" />
    <glyph glyph-name="product" unicode="&#x220f;" horiz-adv-x="742" 
d="M574 729h-407v-887q0 -26 -15 -39t-41 -13t-42.5 13t-16.5 39v926q0 52 49 52h539q49 0 49 -52v-926q0 -26 -16.5 -39t-42.5 -13t-41 13t-15 39v887z" />
    <glyph glyph-name="summation" unicode="&#x2211;" horiz-adv-x="591" 
d="M72 -164q-25 0 -36.5 10.5t-11.5 25.5q0 14 11 34l221 414l-192 320q-15 25 -15 48q0 15 10 26t33 11h430q31 0 31 -39q0 -40 -31 -40h-357l167 -293q6 -11 8 -19t2 -19q-2 -9 -4 -19t-8 -24l-187 -360h383q29 0 29 -36q0 -40 -29 -40h-454z" />
    <glyph glyph-name="minus" unicode="&#x2212;" horiz-adv-x="609" 
d="M80 304q-26 0 -34 14.5t-8 43.5t8 43t34 14h449q26 0 34 -14t8 -43t-8 -43.5t-34 -14.5h-449z" />
    <glyph glyph-name="radical" unicode="&#x221a;" horiz-adv-x="724" 
d="M588 706q10 23 54 23q31 0 50 -9.5t19 -26.5q0 -5 -2 -9.5t-4 -9.5l-293 -642q-9 -19 -29 -27.5t-46 -8.5q-27 0 -46.5 8.5t-28.5 27.5l-132 272h-67q-26 0 -34 14.5t-8 43.5t8 43t34 14h113q20 0 30.5 -7.5t18.5 -25.5l112 -263z" />
    <glyph glyph-name="infinity" unicode="&#x221e;" horiz-adv-x="868" 
d="M433 290q-26 -55 -73.5 -91.5t-116.5 -36.5q-42 0 -79.5 10t-66 33.5t-45 61.5t-16.5 94t14.5 94.5t41.5 62t65 33.5t85 10q71 0 115.5 -33t73.5 -94q28 58 75.5 92.5t116.5 34.5q42 0 80 -10.5t66.5 -33.5t45 -61t16.5 -92q0 -56 -14.5 -94.5t-41.5 -62.5t-65.5 -34.5
t-86.5 -10.5q-71 0 -115.5 33.5t-74.5 94.5zM462 361q11 -44 45 -73t83 -29q60 0 87 24.5t27 77.5q0 104 -114 104q-43 0 -77.5 -29t-50.5 -75zM405 363q-11 44 -45 73t-82 29q-60 0 -86 -25t-26 -78q0 -103 113 -103q41 0 76.5 28.5t49.5 75.5z" />
    <glyph glyph-name="integral" unicode="&#x222b;" horiz-adv-x="432" 
d="M273 1q0 -45 -16 -83.5t-43 -67t-64 -44.5t-79 -16q-31 0 -45 10t-14 35q0 22 9.5 29t23.5 12q23 7 43.5 15.5t36 21.5t24.5 34t9 54v690q0 45 16 83.5t43 67t64 44.5t79 16q31 0 45 -10t14 -35q0 -22 -9.5 -29t-23.5 -12q-23 -8 -43.5 -16t-36 -21t-24.5 -34t-9 -54
v-690z" />
    <glyph glyph-name="approxequal" unicode="&#x2248;" horiz-adv-x="609" 
d="M38 154zM415 394q-37 0 -66.5 13t-53.5 29t-45 29t-41 13q-23 0 -41 -17t-32 -39q-8 -14 -17.5 -21t-35.5 -7q-22 0 -33.5 8t-11.5 36q0 31 13.5 56.5t35 43.5t49.5 27.5t57 9.5q36 0 64.5 -13t53 -29t46 -29t42.5 -13q23 0 41.5 16t32.5 40q8 14 17 21t35 7
q23 0 34.5 -8t11.5 -36q0 -31 -13.5 -56.5t-35 -43.5t-49.5 -27.5t-58 -9.5zM415 154q-37 0 -66.5 13t-53.5 29t-45 29t-41 13q-23 0 -41 -17t-32 -39q-8 -14 -17.5 -21t-35.5 -7q-22 0 -33.5 8t-11.5 36q0 31 13.5 56.5t35 43.5t49.5 27.5t57 9.5q36 0 64.5 -13t53 -29
t46 -29t42.5 -13q23 0 41.5 16t32.5 40q8 14 17 21t35 7q23 0 34.5 -8t11.5 -36q0 -31 -13.5 -56.5t-35 -43.5t-49.5 -27.5t-58 -9.5z" />
    <glyph glyph-name="notequal" unicode="&#x2260;" horiz-adv-x="609" 
d="M429 444l-124 -165h224q26 0 34 -14t8 -43t-8 -43.5t-34 -14.5h-311l-109 -146q-10 -13 -22.5 -17.5t-31.5 -4.5q-53 0 -53 37q0 3 3 11.5t14 23.5l72 96h-11q-26 0 -34 14.5t-8 43.5t8 43t34 14h97l124 165h-221q-26 0 -34 14.5t-8 43.5t8 43t34 14h308l111 148
q10 13 22.5 17.5t31.5 4.5q53 0 53 -37q0 -6 -3.5 -14t-13.5 -21l-74 -98h14q26 0 34 -14t8 -43t-8 -43.5t-34 -14.5h-100z" />
    <glyph glyph-name="lessequal" unicode="&#x2264;" horiz-adv-x="609" 
d="M37 0zM37 405q0 26 7.5 37.5t20.5 16.5l367 159q29 13 74 13q32 0 47.5 -9.5t15.5 -33.5q0 -16 -6.5 -26t-23.5 -17l-348 -140l348 -140q17 -7 23.5 -17t6.5 -26q0 -24 -15.5 -33.5t-47.5 -9.5q-45 0 -74 13l-367 159q-13 5 -20.5 16t-7.5 38zM80 0q-26 0 -34 14.5
t-8 43.5t8 43t34 14h449q26 0 34 -14t8 -43t-8 -43.5t-34 -14.5h-449z" />
    <glyph glyph-name="greaterequal" unicode="&#x2265;" horiz-adv-x="609" 
d="M37 0zM569 405q0 -27 -7.5 -38t-20.5 -16l-367 -159q-29 -13 -74 -13q-32 0 -47.5 9.5t-15.5 33.5q0 16 6.5 26t23.5 17l348 140l-348 140q-17 7 -23.5 17t-6.5 26q0 24 15.5 33.5t47.5 9.5q45 0 74 -13l367 -159q13 -5 20.5 -16.5t7.5 -37.5zM80 0q-26 0 -34 14.5
t-8 43.5t8 43t34 14h449q26 0 34 -14t8 -43t-8 -43.5t-34 -14.5h-449z" />
    <glyph glyph-name="lozenge" unicode="&#x25ca;" horiz-adv-x="609" 
d="M563 378q5 -10 5 -16q0 -7 -5 -15l-184 -321q-9 -16 -28.5 -23t-46.5 -7t-46.5 7t-28.5 23l-184 321q-5 8 -5 15q0 6 5 16l184 321q9 16 28.5 23t46.5 7t46.5 -7t28.5 -23zM167 362l137 -261l136 261l-136 262z" />
    <glyph glyph-name="Z.1" unicode="&#xe2aa;" horiz-adv-x="888" 
d="M744 725q54 0 82 -14t28 -55q0 -17 -5 -28t-16 -19l-618 -501h600q24 0 31.5 -13.5t7.5 -40.5t-7.5 -40.5t-31.5 -13.5h-678q-54 0 -82 14t-28 55q0 17 5 27.5t16 19.5l619 501h-590q-24 0 -31.5 13.5t-7.5 40.5t7.5 40.5t31.5 13.5h667z" />
    <glyph glyph-name="z.1" unicode="&#xe2ab;" 
d="M713 565q50 0 76.5 -13.5t26.5 -51.5q0 -31 -20 -44l-544 -355h539q23 0 30 -12.5t7 -37.5q0 -26 -7 -38.5t-30 -12.5h-656q-50 0 -76.5 13.5t-26.5 51.5q0 31 20 44l557 355h-523q-23 0 -29.5 12.5t-6.5 37.5q0 26 6.5 38.5t29.5 12.5h627z" />
    <glyph glyph-name="Zcaron.1" unicode="&#xe2ac;" horiz-adv-x="888" 
d="M27 0zM527 970q9 11 24.5 15.5t30.5 4.5q26 0 45 -9.5t19 -25.5q0 -10 -8 -19l-110 -130q-10 -12 -25 -18t-39 -6t-39 6t-25 18l-110 130q-8 9 -8 19q0 16 19 25.5t45 9.5q15 0 30.5 -4.5t24.5 -15.5l63 -77zM744 725q54 0 82 -14t28 -55q0 -17 -5 -28t-16 -19l-618 -501
h600q24 0 31.5 -13.5t7.5 -40.5t-7.5 -40.5t-31.5 -13.5h-678q-54 0 -82 14t-28 55q0 17 5 27.5t16 19.5l619 501h-590q-24 0 -31.5 13.5t-7.5 40.5t7.5 40.5t31.5 13.5h667z" />
    <glyph glyph-name="zcaron.1" unicode="&#xe2ad;" 
d="M32 0zM515 810q9 11 24.5 15.5t30.5 4.5q26 0 45 -9.5t19 -25.5q0 -10 -8 -19l-110 -130q-10 -12 -25 -18t-39 -6t-39 6t-25 18l-110 130q-8 9 -8 19q0 16 19 25.5t45 9.5q15 0 30.5 -4.5t24.5 -15.5l63 -77zM713 565q50 0 76.5 -13.5t26.5 -51.5q0 -31 -20 -44
l-544 -355h539q23 0 30 -12.5t7 -37.5q0 -26 -7 -38.5t-30 -12.5h-656q-50 0 -76.5 13.5t-26.5 51.5q0 31 20 44l557 355h-523q-23 0 -29.5 12.5t-6.5 37.5q0 26 6.5 38.5t29.5 12.5h627z" />
    <glyph glyph-name="Zacute.1" unicode="&#xe2ae;" horiz-adv-x="888" 
d="M27 0zM460 795q-14 -7 -28.5 -10t-46.5 -3q-20 0 -35 10.5t-15 31.5q0 27 30 43l203 110q14 7 28.5 10t46.5 3q20 0 35 -10.5t15 -32.5q0 -26 -30 -42zM744 725q54 0 82 -14t28 -55q0 -17 -5 -28t-16 -19l-618 -501h600q24 0 31.5 -13.5t7.5 -40.5t-7.5 -40.5
t-31.5 -13.5h-678q-54 0 -82 14t-28 55q0 17 5 27.5t16 19.5l619 501h-590q-24 0 -31.5 13.5t-7.5 40.5t7.5 40.5t31.5 13.5h667z" />
    <glyph glyph-name="zacute.1" unicode="&#xe2af;" 
d="M32 0zM448 635q-14 -7 -28.5 -10t-46.5 -3q-20 0 -35 10.5t-15 31.5q0 27 30 43l203 110q14 7 28.5 10t46.5 3q20 0 35 -10.5t15 -32.5q0 -26 -30 -42zM713 565q50 0 76.5 -13.5t26.5 -51.5q0 -31 -20 -44l-544 -355h539q23 0 30 -12.5t7 -37.5q0 -26 -7 -38.5t-30 -12.5
h-656q-50 0 -76.5 13.5t-26.5 51.5q0 31 20 44l557 355h-523q-23 0 -29.5 12.5t-6.5 37.5q0 26 6.5 38.5t29.5 12.5h627z" />
    <glyph glyph-name="Zdotaccent.1" unicode="&#xe2b0;" horiz-adv-x="888" 
d="M27 0zM385 857q0 32 18.5 47t60.5 15t60.5 -15t18.5 -47t-18.5 -47t-60.5 -15t-60.5 15t-18.5 47zM744 725q54 0 82 -14t28 -55q0 -17 -5 -28t-16 -19l-618 -501h600q24 0 31.5 -13.5t7.5 -40.5t-7.5 -40.5t-31.5 -13.5h-678q-54 0 -82 14t-28 55q0 17 5 27.5t16 19.5
l619 501h-590q-24 0 -31.5 13.5t-7.5 40.5t7.5 40.5t31.5 13.5h667z" />
    <glyph glyph-name="zdotaccent.1" unicode="&#xe2b1;" 
d="M32 0zM383 697q0 32 18.5 47t60.5 15t60.5 -15t18.5 -47t-18.5 -47t-60.5 -15t-60.5 15t-18.5 47zM713 565q50 0 76.5 -13.5t26.5 -51.5q0 -31 -20 -44l-544 -355h539q23 0 30 -12.5t7 -37.5q0 -26 -7 -38.5t-30 -12.5h-656q-50 0 -76.5 13.5t-26.5 51.5q0 31 20 44
l557 355h-523q-23 0 -29.5 12.5t-6.5 37.5q0 26 6.5 38.5t29.5 12.5h627z" />
    <glyph glyph-name=".null" horiz-adv-x="0" 
 />
    <glyph glyph-name="nonmarkingreturn" horiz-adv-x="349" 
 />
    <glyph glyph-name=".ttfautohint" horiz-adv-x="349" 
d="M0 0z" />
    </font>
</defs>
</svg>
